<?xml version="1.0" standalone="no"?>
<!DOCTYPE svg PUBLIC "-//W3C//DTD SVG 1.1//EN" "http://www.w3.org/Graphics/SVG/1.1/DTD/svg11.dtd" >
<svg xmlns="http://www.w3.org/2000/svg">
<metadata></metadata>
<defs>
<font id="caslonroman" horiz-adv-x="1000" >
<font-face units-per-em="1000" ascent="800" descent="-200" />
<missing-glyph horiz-adv-x="236" />
<glyph unicode="&#x5d0;&#x5dc;" horiz-adv-x="579" d="M50 677q7 10 59 77q26 33 26 61q0 20 -30 35l-24 12q-11 6 -11 15q0 14 16 16l16 -2q1 0 3 -1q48 -23 55 -49q1 -6 1 -12q0 -67 -34 -120q-26 -38 -28 -60q-1 -6 -1 -12q0 -23 17 -38q5 -6 8 -9l180 -210l86 96l-57 65q-24 28 -24 70q0 18 5 33q12 35 46 41 q-6 -12 -6 -28q0 -35 25 -65l121 -140q26 -31 26 -65q0 -44 -32 -69q-10 -8 -21 -8q7 11 7 31q0 26 -19 50l-59 71l-86 -96l184 -215q25 -30 25 -65q0 -44 -32 -71q-10 -8 -21 -8q7 12 7 31q0 27 -19 50l-344 403q-23 -24 -23 -62q0 -7 1 -14l39 -329v-32q-5 -51 -52 -57 h-24q-15 3 -20 10l19 6q15 9 16 32q0 6 -1 12q-14 119 -39 320v32q6 58 45 86q13 9 26 11l-26 31q-30 36 -35 89v28q3 14 9 23z" />
<glyph unicode=" "  horiz-adv-x="236" />
<glyph unicode="&#x09;" horiz-adv-x="236" />
<glyph unicode="&#xa0;" horiz-adv-x="236" />
<glyph unicode="!" horiz-adv-x="217" d="M99 668q4 9 12 9l8 -2q3 -2 5 -7q39 -75 43 -85q10 -28 10 -64q0 -67 -29 -176q-26 -99 -26 -166q0 -21 -9 -23l-5 2q-6 5 -6 21q0 67 -29 176q-26 99 -26 166q0 46 28 101q19 37 24 48zM148 89q25 -16 25 -43l-4 -20q-11 -31 -42 -36h-20q-9 3 -19 9q-25 16 -25 43l4 20 q11 32 42 37l20 -1q9 -3 19 -9z" />
<glyph unicode="&#x22;" horiz-adv-x="244" d="M193 661l-14 -122h-24l-14 122h52zM104 661l-14 -122h-24l-14 122h52z" />
<glyph unicode="#" horiz-adv-x="498" d="M459 422h-120l-27 -179h104v-30h-109l-25 -170h-30l25 170h-139l-25 -170h-30l25 170h-108v30h113l26 179h-96v30h101l26 173h30l-26 -173h139l26 173h30l-26 -173h116v-30zM309 422h-140l-26 -179h139z" />
<glyph unicode="$" horiz-adv-x="573" d="M207 412l33 203l-1 11q-2 4 -13 4q-59 0 -101 -51q-25 -31 -25 -62q0 -69 72 -105l18 -8h10q6 3 7 8zM315 383l34 204l-1 14q-2 6 -7 8q-28 13 -57 18l-10 -2q-6 -3 -8 -12l-34 -206l3 -12q3 -6 8 -8l54 -15l11 1q6 3 7 10zM258 35l42 240l-2 13q-3 4 -6 5q-32 7 -58 15 l-9 -2q-9 -6 -11 -21l-38 -222l-2 -12l8 -4q34 -15 64 -22l8 2q3 2 4 8zM325 267l-41 -235l1 -9q3 -4 9 -4q8 -1 24 -1q60 0 102 55q29 38 29 82q0 68 -67 108q-17 10 -37 16l-11 -1q-9 -3 -9 -11zM364 680q2 15 14 15l8 -2q4 -4 4 -12l-4 -26l2 -7q2 -3 5 -4q36 -10 75 -34 q24 -14 24 -38q0 -17 -18 -26q-5 -3 -10 -3q-17 0 -57 27q-11 8 -18 12h-6q-9 -5 -13 -22l-29 -184l1 -11q4 -7 12 -11q109 -37 142 -93q20 -34 20 -80q0 -89 -91 -144q-59 -35 -135 -41q-10 -1 -12 -13l-13 -77q-2 -13 -15 -14l-8 2q-4 3 -4 9v4l13 74l-1 8q-3 5 -10 5 q-41 0 -61 2l-9 -2q-4 -2 -5 -9l-14 -79q-2 -14 -16 -14q-5 0 -8 3q-2 3 -2 12l14 83l-2 10q-2 4 -6 5q-56 12 -97 47q-15 13 -15 36q0 20 19 30q6 3 12 3q8 0 31 -19q9 -9 17 -13l41 -20l7 -2q4 2 5 8l40 229l-1 13q-2 5 -7 7q-88 34 -114 87q-16 31 -16 75q0 74 78 128 q50 34 106 41q10 2 11 10l3 15q2 15 14 15l8 -2q4 -4 4 -12l-2 -16l1 -5q2 -3 5 -3q39 0 67 -4l9 1q3 2 3 6z" />
<glyph unicode="%" horiz-adv-x="1017" d="M192 3l539 707q8 10 19 10l9 -2q5 -3 5 -9l-3 -11q-1 -3 -3 -5l-544 -707q-9 -10 -17 -11l-8 3q-3 3 -3 9l3 12q1 2 3 4zM572 204q0 -92 60 -154q39 -41 83 -41q55 0 99 61q43 58 43 134q0 92 -58 154q-40 42 -84 42q-55 0 -99 -61q-44 -59 -44 -135zM506 206 q0 97 73 160q59 51 136 51q95 0 157 -72q51 -60 51 -139q0 -97 -73 -160q-58 -51 -135 -51q-95 0 -158 72q-51 60 -51 139zM92 491q0 -92 59 -154q40 -42 84 -42q55 0 99 61q43 59 43 135q0 92 -58 154q-40 42 -84 42q-55 0 -99 -61q-44 -59 -44 -135zM26 493q0 96 72 159 q59 52 137 52q95 0 157 -73q51 -59 51 -138q0 -97 -73 -160q-58 -51 -135 -51q-95 0 -158 72q-51 60 -51 139z" />
<glyph unicode="&#x26;" horiz-adv-x="900" d="M328 454q71 38 71 96q0 69 -43 91q-14 7 -32 7q-27 0 -51 -35q-15 -23 -15 -47q0 -67 42 -105q11 -10 17 -10zM464 140l-18 37q-9 17 -49 72q-7 9 -12 17q-24 36 -97 108l-16 16t-13 7q-3 1 -11 -2q-134 -46 -134 -165q0 -101 78 -147q45 -26 108 -27l34 3q48 10 127 57 q13 8 3 24zM763 112l12 22q3 2 6 2q8 0 7 -8q0 -6 -2 -16q-19 -75 -55 -100q-31 -21 -80 -21h-9q-88 4 -154 106q-3 4 -6 4t-9 -4q-109 -75 -180 -90q-30 -7 -61 -7q-53 0 -109 53q-70 65 -70 152q0 95 88 163q44 34 89 44q18 4 9 18q-30 53 -34 76q-1 9 -1 18q0 75 59 122 q32 25 62 25q98 0 112 -96q2 -14 2 -30q0 -56 -82 -101q-7 -4 -13 -7q-8 -3 -8 -11l4 -9l1 -2q53 -53 63 -65q47 -55 79 -102q7 -10 38 -62q5 -8 9 -8q3 0 8 5q54 57 54 100q-3 46 -54 64q-18 6 -38 6q-16 0 -19 12l1 6q4 6 18 6l244 1q18 0 32 -1q16 -1 17 -9q0 -3 -3 -6 q-5 -4 -13 -6q-40 -6 -99 -64q-106 -104 -115 -111q-7 -7 -14 -13q-6 -6 -6 -13l2 -8q50 -78 92 -93q12 -4 28 -4q54 2 90 50q5 6 8 12z" />
<glyph unicode="'" horiz-adv-x="220" d="M151 543q-25 -65 -88 -85q-7 -3 -14 -4l-13 15q24 6 40 30q6 10 6 19q0 8 -4 14q-23 14 -23 45q0 36 30 49q10 5 22 5h5q39 -2 48 -39l1 -21q-1 -16 -10 -28z" />
<glyph unicode="(" horiz-adv-x="354" d="M244 646q-109 -123 -136 -246q-13 -62 -13 -157q0 -151 42 -245q34 -76 107 -158q20 -23 22 -30l-2 -2l-14 7q-7 5 -18 13q-122 93 -178 235q-35 87 -35 180q0 187 133 339q37 43 80 76q25 19 32 19l2 -1q0 -4 -12 -18q-4 -6 -10 -12z" />
<glyph unicode=")" horiz-adv-x="354" d="M40 646q-20 23 -22 29l2 3l14 -7q7 -5 18 -13q124 -96 180 -239q33 -86 33 -176q0 -187 -132 -338q-37 -44 -81 -77q-25 -19 -32 -20l-2 2q0 6 22 30q109 123 136 246q13 62 13 157q0 151 -42 245q-34 76 -107 158z" />
<glyph unicode="*" horiz-adv-x="462" d="M389 388q4 -7 4 -13q0 -15 -38 -37q-18 -10 -73 -30q-17 -6 -27 -12q8 -5 60 -24q20 -8 36 -17q38 -21 38 -40l-3 -13l-1 -1q-7 -12 -18 -12q-13 0 -42 16q-20 11 -58 48q-15 13 -26 19q0 -10 10 -57q4 -19 4 -38q0 -57 -30 -57q-20 0 -24 27q-2 10 -2 27q0 20 10 71 l3 27q-9 -5 -47 -38q-21 -18 -40 -29q-29 -16 -42 -16q-11 0 -18 12q-4 7 -4 14l4 12q7 13 34 28q14 8 69 27q17 6 29 13q-8 5 -54 21q-24 8 -43 19q-38 22 -38 39l3 13l1 1q7 12 22 12q17 0 42 -15q17 -10 57 -44q14 -13 26 -20l-3 28q-11 45 -11 67q0 48 16 53q4 1 10 1 q28 0 30 -46v-11q0 -17 -11 -64q-3 -15 -3 -29q9 5 48 39q19 16 36 26q26 16 43 16q14 0 21 -13z" />
<glyph unicode="+" horiz-adv-x="354" d="M312 260h-123v-125h-33v125h-123v33h123v120h33v-120h123v-33z" />
<glyph unicode="," horiz-adv-x="220" d="M146 5q-15 -53 -70 -80q-16 -7 -32 -10l-13 16q24 6 40 30q6 10 6 19q0 8 -4 14q-23 14 -23 43l3 21q12 34 49 34h5q40 -2 49 -39l1 -21q-2 -15 -11 -27z" />
<glyph unicode="-" horiz-adv-x="391" d="M252 209h-219v45h219v-45z" />
<glyph unicode="." horiz-adv-x="220" d="M138 94q25 -16 25 -43l-4 -20q-11 -31 -42 -36h-20q-9 3 -19 9q-25 16 -25 43l4 20q11 32 42 37l20 -1q9 -3 19 -9z" />
<glyph unicode="/" horiz-adv-x="536" d="M460 615l-330 -635h-45l330 635h45z" />
<glyph unicode="0" horiz-adv-x="530" d="M245 0q-110 0 -168 113q-39 77 -39 178q0 136 66 220q56 70 141 70q113 0 171 -114q39 -76 39 -175q0 -137 -67 -221q-57 -71 -143 -71zM245 19q73 0 110 109q25 70 25 162q0 145 -53 223q-34 49 -82 49q-72 0 -109 -109q-24 -70 -24 -162q0 -145 53 -223q33 -49 80 -49z " />
<glyph unicode="1" horiz-adv-x="530" d="M310 0h-200v16h47q20 0 24 21q1 3 1 6v486h-40v18l95 34v-538q0 -17 17 -25q5 -2 9 -2h47v-16z" />
<glyph unicode="2" horiz-adv-x="530" d="M385 118l-23 -118h-285v40q0 62 69 149l79 98q61 82 65 152l-3 28q-12 50 -61 67q-14 4 -29 5l-27 -2q-53 -12 -78 -75q-5 -14 -8 -28h-11q5 78 64 121q36 26 82 26h6q93 -3 129 -60q15 -25 16 -59l-4 -36q-15 -75 -117 -171l-87 -82q-28 -28 -37 -49l-19 -44h251l10 38 h18z" />
<glyph unicode="3" horiz-adv-x="530" d="M321 143l-2 28q-12 60 -73 103q-36 25 -64 25h-23v29q20 4 35 12q66 35 66 108q0 7 -1 14q-5 56 -56 70l-26 3q-50 -1 -75 -38q-12 -18 -12 -40h-13q0 72 70 104q32 14 70 14h7q76 -3 101 -61q8 -19 8 -40q0 -27 -13 -51q-11 -20 -28 -34q-23 -19 -25 -20l-4 -2l2 -13 l11 -10l1 -1q79 -31 107 -108q10 -29 10 -59q0 -47 -24 -87q-53 -85 -184 -89l-31 3q-56 12 -78 58q-9 18 -9 38v5q3 45 40 56l19 2q32 -4 39 -34l1 -15q-1 -44 -38 -44q-5 0 -11 1q10 -20 37 -40q13 -10 35 -10l29 4q60 15 88 68q12 24 14 51z" />
<glyph unicode="4" horiz-adv-x="530" d="M470 109h-58v-109h-59v109h-323l347 472h35v-411h58v-61zM353 170v324l-236 -324h236z" />
<glyph unicode="5" horiz-adv-x="530" d="M397 172q-3 -84 -68 -139q-51 -44 -117 -44q-9 0 -19 1q-67 6 -105 49q-22 24 -22 54q0 48 41 58l23 2h2q27 -3 33 -34l1 -17q-3 -33 -38 -41q-6 -1 -13 -1q27 -33 75 -38h32q64 10 99 69q20 35 20 74q0 79 -75 115q-38 18 -84 18q-50 0 -90 -22v304h208q36 0 43 14l5 9 h7l-7 -88h-221v-172q43 22 89 22q53 0 97 -28q75 -46 83 -136z" />
<glyph unicode="6" horiz-adv-x="530" d="M263 581l-3 -12q-74 -62 -105 -142l-6 -14q-19 -56 -19 -102q45 65 108 65q109 -1 158 -88q24 -44 24 -97q0 -25 -5 -49q-20 -88 -94 -124q-37 -18 -83 -18q-128 0 -168 118q-15 44 -15 99q0 125 64 234q28 47 62 77q39 33 82 53zM238 17q65 0 95 80q15 41 16 91 q0 53 -18 95q-30 72 -93 73l-26 -3q-60 -18 -79 -106q-5 -27 -5 -57q0 -94 46 -144q27 -29 64 -29z" />
<glyph unicode="7" horiz-adv-x="530" d="M393 581l-166 -581h-74l185 513h-194q-41 0 -49 -5q-12 -7 -12 -28v-31l-15 12v120h325z" />
<glyph unicode="8" horiz-adv-x="530" d="M401 172l-2 -36q-13 -75 -78 -115q-39 -24 -85 -24q-105 0 -150 75q-22 36 -22 84v5q1 75 73 126q12 8 28 18q-74 60 -77 136l3 31q14 64 76 95q32 16 69 16q82 0 114 -57q12 -22 13 -50l-2 -31q-12 -56 -85 -102q-9 -5 -20 -11q82 -48 107 -75q37 -38 38 -85zM319 483 q-2 49 -45 73q-18 9 -38 10l-25 -2q-44 -12 -62 -56q-7 -17 -7 -39q2 -61 77 -112q7 -5 16 -11q72 45 82 106zM343 145q-1 42 -65 86l-93 60q-71 -48 -71 -111q0 -146 100 -161q11 -2 22 -2q57 0 88 52q19 31 19 71v5z" />
<glyph unicode="9" horiz-adv-x="530" d="M345 261q-45 -65 -108 -65q-109 1 -157 88q-25 44 -25 97q0 25 5 49q20 88 94 124q37 18 83 18q128 0 168 -118q15 -44 15 -99q0 -125 -64 -234q-28 -47 -62 -77q-39 -33 -82 -53l3 12q74 62 106 142q2 7 5 14q19 56 19 102zM237 216l26 3q60 18 79 106q6 27 5 57 q0 94 -46 144q-27 29 -64 29q-65 0 -95 -80q-15 -41 -15 -91q-1 -53 17 -95q30 -72 93 -73z" />
<glyph unicode=":" horiz-adv-x="220" d="M138 94q25 -16 25 -43l-4 -20q-11 -31 -42 -36h-20q-9 3 -19 9q-25 16 -25 43l4 20q11 32 42 37l20 -1q9 -3 19 -9zM133 316q25 -16 25 -43l-4 -20q-11 -31 -42 -36h-20q-9 3 -19 9q-25 16 -25 43l4 20q11 32 42 37l20 -1q9 -3 19 -9z" />
<glyph unicode=";" horiz-adv-x="220" d="M146 5q-15 -53 -70 -80q-16 -7 -32 -10l-13 16q24 6 40 30q6 10 6 19q0 8 -4 14q-23 14 -23 43l3 21q12 34 49 34h5q40 -2 49 -39l1 -21q-2 -15 -11 -27zM133 316q25 -16 25 -43l-4 -20q-11 -31 -42 -36h-20q-9 3 -19 9q-25 16 -25 43l4 20q11 32 42 37l20 -1q9 -3 19 -9 z" />
<glyph unicode="&#x3c;" horiz-adv-x="591" d="M457 87l-414 175v30l414 165v-48l-329 -127v-12l329 -134v-49z" />
<glyph unicode="=" horiz-adv-x="392" d="M312 321h-279v33h279v-33zM312 213h-279v33h279v-33z" />
<glyph unicode="&#x3e;" horiz-adv-x="586" d="M80 87v49l329 134v12l-329 127v48l414 -165v-30z" />
<glyph unicode="?" horiz-adv-x="419" d="M159 343q-18 -127 -23 -161q-2 -14 -11 -15l-7 3q-4 4 -5 13l-21 196l-5 44q1 24 19 27q104 20 120 24q86 27 86 89q0 51 -53 70q-19 6 -39 6q-26 0 -73 -27q-30 -17 -48 -17q-30 0 -41 28q-3 8 -3 17q0 43 50 60q18 6 37 6q83 0 142 -55q49 -45 49 -108l-3 -31 q-20 -86 -144 -135q-24 -11 -27 -34zM152 94q25 -16 25 -43l-4 -20q-11 -31 -42 -36h-20q-9 3 -19 9q-25 16 -25 43l4 20q11 32 42 37l20 -1q9 -3 19 -9z" />
<glyph unicode="@" horiz-adv-x="808" d="M709 128q-83 -103 -187 -127q-43 -10 -97 -10q-233 0 -335 153q-60 90 -60 210q0 162 104 270q108 113 282 113q149 0 234 -117q72 -99 72 -246q0 -79 -46 -141q-38 -51 -86 -51q-58 0 -88 58q-5 9 -8 19l-30 -51q-30 -42 -76 -42q-135 0 -176 107q-14 38 -14 83 q0 93 63 159q57 60 139 60q38 0 73 -34q9 -9 14 -17l48 26v-273q0 -59 52 -59q38 0 70 56q28 47 28 99q0 146 -84 241q-76 85 -185 85q-154 0 -250 -111q-84 -98 -84 -236q0 -154 101 -241q90 -78 242 -78q106 0 180 48q19 12 38 28zM453 264v221q-36 31 -62 33q-5 1 -11 1 q-54 0 -81 -75q-15 -41 -15 -88q0 -83 49 -120q25 -18 58 -18q25 0 50 31z" />
<glyph unicode="A" horiz-adv-x="732" d="M684 0h-202v25h41q17 0 21 17l-1 13l-92 265h-190l-88 -215q-4 -9 -4 -21q0 -35 28 -52q10 -7 23 -7h38v-25h-221v25h35q31 0 58 44q4 7 7 14l216 526l-14 38l43 39l222 -621q9 -26 44 -37q10 -3 19 -3h17v-25zM444 342l-79 233l-96 -233h175z" />
<glyph unicode="B" horiz-adv-x="553" d="M484 220q0 -97 -67 -163q-58 -57 -136 -57h-259v24h53q21 0 32 23q3 7 3 14v539q0 21 -21 33q-7 4 -14 4h-53v24h293q137 0 144 -111q1 -7 1 -15q0 -104 -84 -153q102 -37 108 -150v-12zM412 535q0 59 -52 85q-23 11 -50 11h-108q-28 0 -36 -36q-1 -7 -1 -14v-193h112 q70 0 110 61q25 38 25 86zM432 206q0 69 -46 118q-34 37 -77 37h-144v-281q0 -50 37 -50h72q73 0 123 74q35 51 35 102z" />
<glyph unicode="C" horiz-adv-x="601" d="M558 228l-43 -219h-20q0 29 -23 36q-4 1 -9 1q-25 0 -81 -26q-47 -22 -78 -22q-224 0 -257 242q-5 39 -5 83q0 139 63 239q74 117 210 117q66 0 115 -39q23 -19 33 -19q27 0 44 35q2 4 4 9h12l11 -219h-14q-28 106 -95 170q-52 49 -113 49q-92 0 -152 -107 q-54 -96 -54 -222q0 -154 59 -245q49 -74 126 -74q81 0 157 63q33 28 56 63q28 44 40 85h14z" />
<glyph unicode="D" horiz-adv-x="650" d="M619 347q0 -127 -87 -228q-92 -108 -228 -118q-12 -1 -25 -1h-256v24h53q21 0 32 23q3 7 3 14v539q0 21 -21 33q-7 4 -14 4h-53v24h356q145 0 207 -143q33 -76 33 -171zM346 631h-143q-26 0 -35 -34q-2 -8 -2 -16v-501q0 -33 22 -46q7 -4 15 -4h94q119 0 195 103 q66 89 66 210q0 136 -71 219q-56 65 -141 69z" />
<glyph unicode="E" horiz-adv-x="584" d="M530 196l-52 -196h-456v24h53q21 0 32 23q3 7 3 14v539q0 21 -21 33q-7 4 -14 4h-53v24h464l44 -200h-20l-13 30q-41 94 -92 123q-32 17 -74 17h-128q-28 0 -36 -35q-2 -7 -2 -15v-205h100q46 0 79 40q20 26 20 54v18h18v-254h-18v18q0 48 -43 80q-27 20 -56 20h-100 v-272q0 -36 24 -47q6 -3 14 -3h128q105 0 161 124q3 5 5 11l13 31h20z" />
<glyph unicode="F" horiz-adv-x="556" d="M491 470h-15l-7 32q-21 97 -98 119q-19 6 -41 6h-125q-27 0 -36 -35q-2 -8 -2 -16v-203h97q46 0 79 42q20 26 20 55v18h18v-254h-18v18q0 46 -43 77q-26 19 -56 19h-97v-287q0 -22 21 -33q7 -4 14 -4h53v-24h-231v24h53q21 0 32 23q4 7 4 14v539q0 22 -22 33q-7 4 -14 4 h-53v24h446z" />
<glyph unicode="G" horiz-adv-x="610" d="M591 339h-45q-27 -6 -30 -44v-227l-25 14q-71 -88 -187 -88q-126 0 -202 116q-63 95 -63 222q0 132 74 231q75 101 183 101q79 0 134 -41q13 -11 29 -25l43 60h23l13 -218h-14q-27 99 -104 159q-60 46 -129 46q-89 0 -147 -116q-48 -95 -48 -205q0 -129 63 -220 q62 -91 161 -91q88 0 141 78v204q0 44 -33 44h-31v18h194v-18z" />
<glyph unicode="H" horiz-adv-x="695" d="M648 0h-231v24h53q21 0 32 23q3 7 3 14v275h-317v-275q0 -24 22 -34q6 -3 13 -3h52v-24h-230v24h53q21 0 32 23q3 7 3 14v539q0 21 -21 33q-7 4 -14 4h-53v24h230v-24h-52q-23 0 -32 -24q-3 -6 -3 -13v-243h317v243q0 21 -21 33q-7 4 -14 4h-53v24h231v-24h-53 q-23 0 -32 -24q-3 -6 -3 -13v-539q0 -24 22 -34q6 -3 13 -3h53v-24z" />
<glyph unicode="I" horiz-adv-x="297" d="M275 0h-230v24h53q21 0 32 23q3 7 3 14v539q0 21 -21 33q-7 4 -14 4h-53v24h230v-24h-52q-23 0 -32 -24q-3 -6 -3 -13v-539q0 -24 22 -34q6 -3 13 -3h52v-24z" />
<glyph unicode="J" horiz-adv-x="327" d="M323 637h-53q-23 0 -32 -24q-3 -6 -3 -13v-467q0 -159 -69 -215q-30 -24 -72 -24q-73 0 -80 58q-1 6 -1 12q0 30 25 44q8 5 18 5q29 0 40 -28q3 -8 3 -15q0 -41 -36 -50q11 -9 42 -9q37 0 61 75q14 45 14 85v529q0 21 -21 33q-7 4 -14 4h-53v24h231v-24z" />
<glyph unicode="K" horiz-adv-x="662" d="M619 0h-195v25h30q15 0 15 13l-4 17q-2 5 -5 10l-198 295l-80 -80v-219q0 -24 21 -34q6 -3 13 -3h53v-24h-230v24h52q22 0 33 23q3 7 3 14v539q0 22 -21 33q-8 4 -15 4h-52v24h230v-24h-53q-22 0 -31 -24q-3 -6 -3 -13v-292l196 206q42 45 46 83l-2 16q-8 23 -49 23h-19 v25h242v-25q-95 -21 -209 -141l-84 -93l227 -339q14 -21 38 -34q8 -4 14 -4h37v-25z" />
<glyph unicode="L" horiz-adv-x="567" d="M533 179l-50 -179h-455v24h53q33 5 36 52v524q0 22 -22 33q-7 4 -14 4h-53v24h231v-24h-53q-22 0 -31 -24q-3 -6 -3 -13v-527q0 -36 24 -47q6 -3 14 -3h120q79 0 141 71q34 39 47 85h15z" />
<glyph unicode="M" horiz-adv-x="867" d="M814 0h-231v24h53q21 0 32 23q4 7 4 14v546l-231 -607h-29l-234 594v-477q0 -47 28 -76q16 -16 37 -16h37v-25h-235v25h49q39 0 57 53q7 20 7 39v483q0 21 -21 33q-7 4 -14 4h-53v24h145l236 -599l229 599h134v-24h-53q-22 0 -31 -24q-3 -6 -3 -13v-539q0 -24 21 -34 q6 -3 13 -3h53v-24z" />
<glyph unicode="N" horiz-adv-x="730" d="M713 636h-48q-42 0 -59 -54q-6 -19 -6 -38v-544h-36l-388 598v-481q0 -45 28 -75q16 -17 37 -17h38v-25h-236v25h49q39 0 58 52q7 21 7 40v483q0 22 -22 33q-7 4 -14 4h-52v24h128l383 -581v464q0 52 -29 79q-15 13 -35 13h-38v25h235v-25z" />
<glyph unicode="O" horiz-adv-x="710" d="M359 -21q-153 0 -238 128q-64 96 -64 222q0 145 81 242q84 100 220 100q154 0 239 -123q63 -92 63 -217q0 -152 -81 -252q-83 -100 -220 -100zM358 0q125 0 192 123q47 87 47 204q0 141 -69 234q-65 89 -169 89q-125 0 -191 -122q-48 -87 -48 -203q0 -147 71 -240 q65 -85 167 -85z" />
<glyph unicode="P" horiz-adv-x="491" d="M444 524q0 -80 -65 -126q-43 -31 -98 -31h-108v-306q0 -24 22 -34q6 -3 13 -3h52v-24h-230v24h53q21 0 32 23q3 7 3 14v545q0 23 -21 34q-7 4 -14 4h-53v17h266q73 0 118 -55q30 -36 30 -82zM273 638h-100v-253h99q76 0 107 71q14 32 14 71q0 59 -53 92q-30 19 -67 19z " />
<glyph unicode="Q" horiz-adv-x="710" d="M568 27q0 -68 -49 -101q-25 -18 -59 -18q-46 0 -119 44q-70 37 -97 40q-41 0 -52 -27q12 13 24 14q9 0 17 -8q12 -12 12 -31l-3 -18q-10 -24 -44 -24q-23 0 -34 26q-3 7 -3 15q0 47 59 67q-107 50 -149 186q-19 62 -19 131q0 146 80 244q82 99 217 99q158 0 243 -128 q62 -94 62 -221q0 -144 -81 -240q-64 -74 -161 -92q39 -12 75 -12q41 0 63 27q10 12 10 27h8zM365 2q117 8 178 127q43 83 43 189q0 147 -71 241q-64 86 -166 86q-123 0 -188 -124q-46 -87 -46 -202q0 -144 71 -236q35 -45 82 -66l28 1q23 -2 69 -16z" />
<glyph unicode="R" horiz-adv-x="627" d="M601 0h-64q-50 0 -80 49q-2 4 -5 8l-176 310h-107v-306q0 -24 22 -34q6 -3 13 -3h52v-24h-230v24h53q21 0 32 23q3 7 3 14v538q0 23 -21 34q-7 4 -14 4h-53v24h293q78 0 121 -56q27 -36 27 -83q0 -78 -61 -124q-32 -24 -72 -29l173 -297q16 -26 51 -46q17 -10 30 -10h13 v-16zM284 631h-115v-239h114q78 0 109 70q13 29 13 66q0 61 -59 89q-28 14 -62 14z" />
<glyph unicode="S" horiz-adv-x="502" d="M466 174q0 -76 -55 -130q-56 -54 -148 -54q-48 0 -97 31q-30 19 -46 19q-15 0 -48 -42h-11l-11 217h14q32 -116 104 -171q43 -32 93 -32q79 0 124 46q30 30 30 73q0 96 -98 150q-25 14 -129 54q-98 38 -129 80q-24 32 -24 75q0 84 70 140q55 44 126 44q65 0 102 -29 q22 -18 40 -18q16 0 45 39q2 2 3 4h11l12 -218h-14q-29 111 -98 168q-46 37 -99 37q-65 0 -109 -51q-30 -36 -30 -81q0 -73 89 -122q16 -9 121 -54t138 -95q24 -35 24 -80z" />
<glyph unicode="T" horiz-adv-x="741" d="M710 490l-20 -1q-20 77 -91 117q-42 24 -88 24h-80q-26 0 -35 -34q-2 -8 -2 -16v-519q0 -24 22 -34q6 -3 13 -3h53v-24h-231v24h53q21 0 32 23q3 7 3 14v519q0 37 -24 48q-6 2 -13 2h-41q-106 0 -160 -69q-24 -31 -32 -72l-22 1l58 171h548z" />
<glyph unicode="U" horiz-adv-x="656" d="M638 637h-53q-23 0 -32 -24q-3 -6 -3 -13v-380q0 -103 -61 -173q-52 -59 -127 -59q-139 0 -189 51q-45 45 -45 142v419q0 21 -21 33q-7 4 -14 4h-53v24h231v-24h-53q-23 0 -32 -24q-3 -6 -3 -13v-468q0 -65 75 -102q47 -23 101 -23q80 0 130 77q37 56 37 125v391 q0 22 -21 33q-8 4 -15 4h-52v24h200v-24z" />
<glyph unicode="V" horiz-adv-x="704" d="M666 636h-12q-48 0 -97 -72q-18 -26 -26 -50l-186 -514h-24l-212 589q-16 47 -55 47h-13v25h187v-25h-45q-21 0 -21 -22q0 -11 5 -27l185 -514l158 433q22 60 22 83l-3 20q-11 27 -57 27h-25v25h219v-25z" />
<glyph unicode="W" horiz-adv-x="1022" d="M989 636h-19q-71 0 -115 -117l-190 -519h-23l-152 419l-145 -419h-24l-212 589q-16 47 -55 47h-13v25h191v-25h-45q-21 0 -21 -22q0 -11 5 -27l182 -508l129 366l-52 144q-16 47 -56 47h-13v25h188v-25h-38q-27 0 -27 -29q0 -10 4 -20l187 -505l155 424q11 32 11 65 q0 65 -49 65h-25v25h222v-25z" />
<glyph unicode="X" horiz-adv-x="662" d="M619 636h-21q-72 0 -138 -108l-107 -174q1 0 175 -282q11 -18 38 -36q12 -8 18 -8h35v-28h-208v28h45q17 0 17 24q0 16 -6 26l-141 231l-97 -158q-35 -57 -35 -93q0 -11 4 -18q7 -12 26 -12h37v-28h-231v28h16q64 0 126 81q11 13 19 27l120 198l-156 257q-27 45 -54 45 h-27v25h187v-25h-45q-19 0 -19 -16l5 -19q3 -7 7 -14l130 -209l77 129q38 64 39 100q0 19 -14 26q-6 3 -16 3h-25v25h219v-25z" />
<glyph unicode="Y" horiz-adv-x="653" d="M621 636h-35q-41 0 -114 -95q-6 -7 -10 -13l-135 -189v-278q0 -24 21 -34q6 -3 13 -3h53v-24h-231v24h53q21 0 32 23q4 7 4 14v273l-149 257q-20 35 -54 43q-7 2 -13 2h-8v25h190v-25h-29q-34 0 -34 -20l3 -18q3 -5 6 -11l132 -230l103 150q44 64 44 99q1 16 -10 23 q-9 7 -26 7h-26v25h220v-25z" />
<glyph unicode="Z" horiz-adv-x="582" d="M538 206l-59 -206h-430v21l399 615h-170q-60 0 -119 -48q-41 -34 -52 -73l-13 -46h-23l45 192h405v-22l-391 -614h184q71 0 137 67q30 31 46 65l22 47z" />
<glyph unicode="[" horiz-adv-x="361" d="M265 -210h-190v880h190v-30h-134v-820h134v-30z" />
<glyph unicode="\" horiz-adv-x="462" d="M392 -19h-42l-312 600h42z" />
<glyph unicode="]" horiz-adv-x="361" d="M264 -210h-190v30h129v820h-129v30h190v-880z" />
<glyph unicode="^" horiz-adv-x="409" d="M352 368h-34l-116 115h-11l-115 -115h-38l145 187h25z" />
<glyph unicode="_" horiz-adv-x="565" d="M495 -205h-495v45h495v-45z" />
<glyph unicode="`" horiz-adv-x="321" d="M222 628h-33l-128 109h76z" />
<glyph unicode="a" horiz-adv-x="400" d="M369 43q0 -26 -27 -44q-12 -8 -23 -8q-58 0 -71 44q-4 15 -5 37q-26 -50 -72 -72q-19 -9 -38 -9q-113 0 -113 113q0 72 80 113q7 4 92 38q32 13 51 25v104q0 38 -41 52q-12 4 -26 4q-45 0 -70 -15l1 -28q0 -7 -3 -18q-13 -55 -33 -66q-7 -4 -17 -4q-20 0 -21 26l4 24 q18 56 75 89q43 24 96 24q44 0 71 -30q20 -21 20 -53v-320q0 -33 25 -38q3 -1 6 -1q20 0 37 37q1 3 2 5v-29zM243 110v145q-108 -23 -149 -74q-18 -22 -18 -47q0 -81 38 -97q16 -7 50 -7q37 0 71 65z" />
<glyph unicode="b" horiz-adv-x="489" d="M443 243q0 -115 -72 -192q-55 -60 -124 -60q-81 0 -128 41l-49 -41v607l-45 9v12l101 64v-255q49 44 121 44q157 0 188 -142q8 -38 8 -87zM373 239q0 133 -76 192q-28 23 -51 23q-93 0 -115 -87q-5 -21 -5 -45v-202q16 -112 121 -112q62 0 99 87q27 64 27 144z" />
<glyph unicode="c" horiz-adv-x="424" d="M368 110q-33 -74 -95 -105q-29 -14 -60 -14q-121 0 -169 113q-23 54 -23 122q0 103 68 179q62 67 141 67t116 -62q15 -26 15 -52q0 -42 -32 -47q-4 -1 -8 -1q-34 0 -46 43l-3 27q0 10 2 20q4 16 15 30q-20 20 -44 22h-15q-66 0 -110 -70q-30 -50 -30 -106q0 -139 61 -195 q30 -28 73 -28q87 0 144 104v-47z" />
<glyph unicode="d" horiz-adv-x="487" d="M430 45l-79 -54v30q-49 -30 -118 -30q-117 0 -169 101q-30 57 -30 136q0 101 61 175q57 69 138 69q72 0 118 -40v163l-48 10l3 16l101 59v-604l23 -10v-21zM351 121v177q0 103 -28 131q-23 25 -90 25q-87 0 -115 -118q-11 -44 -11 -97q0 -170 74 -216q24 -15 54 -15 q92 0 112 91q2 10 4 22z" />
<glyph unicode="e" horiz-adv-x="457" d="M394 290h-294l-8 -43v-1q0 -105 53 -159q31 -31 73 -31q108 0 162 84q6 8 10 17v-63q-51 -103 -165 -103q-127 0 -173 119q-21 55 -21 132q0 107 66 174q54 56 134 56t129 -71q34 -50 34 -111zM331 318q0 66 -37 108q-26 30 -63 30q-93 0 -124 -130l-2 -8h226z" />
<glyph unicode="f" horiz-adv-x="272" d="M249 615l-3 -13q-7 -15 -28 -15q-30 1 -39 27q-2 6 -2 14q0 10 6 21l-16 3q-23 -2 -27 -26q-1 -4 -1 -7v-186h53v-17h-53v-371q0 -19 18 -26q3 -1 7 -1h45v-18h-196v18h44q17 0 24 18q2 5 2 9v371h-45v17h45v137q0 53 48 81q24 14 52 14q56 0 65 -40q1 -5 1 -10z" />
<glyph unicode="g" horiz-adv-x="457" d="M441 -39q0 -90 -82 -140q-56 -33 -128 -33q-105 0 -163 51q-38 34 -38 85q0 46 53 93q21 20 43 30q-65 22 -65 59q0 56 94 66q-63 30 -76 111q-2 14 -2 29q0 73 49 119q38 35 92 35q66 0 106 -47v32q0 30 25 39q6 3 14 3q30 0 38 -28q2 -7 2 -14q0 -27 -26 -36 q-7 -3 -15 -3q-16 0 -30 16v-21q27 -40 27 -99q0 -75 -52 -119q-36 -31 -89 -31q-12 0 -18 1q-61 -5 -70 -8q-18 -6 -18 -20q0 -25 80 -43l128 -29q119 -32 121 -98zM218 176q53 0 76 65q11 31 11 67q0 78 -37 121q-22 24 -50 24q-51 0 -74 -72q-10 -33 -10 -71 q0 -81 41 -117q19 -17 43 -17zM387 -73q0 50 -101 80l-141 35q-69 -49 -69 -118q0 -67 72 -100q38 -17 83 -17q81 0 126 48q30 30 30 72z" />
<glyph unicode="h" horiz-adv-x="510" d="M488 0h-196v18h45q16 0 23 18q2 5 2 9v321q0 45 -39 68q-19 11 -41 11q-57 0 -116 -59q-7 -6 -12 -12v-329q0 -19 18 -26q3 -1 7 -1h45v-18h-196v18h44q17 0 24 18q2 5 2 9v522l-55 16v15l111 67v-263q52 55 116 67q14 3 26 3q108 0 120 -57q2 -8 2 -18v-352 q0 -17 17 -25q4 -2 8 -2h45v-18z" />
<glyph unicode="i" horiz-adv-x="262" d="M128 622q26 0 36 -24q2 -7 2 -14q0 -26 -23 -35q-7 -3 -15 -3q-25 0 -35 24q-3 7 -3 14q0 26 24 35q7 3 14 3zM228 0h-197v18h45q17 0 24 18q2 5 2 9v331l-53 18v13l108 67v-429q0 -17 17 -25q5 -2 9 -2h45v-18z" />
<glyph unicode="j" horiz-adv-x="287" d="M139 622q26 0 35 -24q3 -7 3 -14q0 -26 -24 -35q-7 -3 -14 -3q-26 0 -35 24q-3 7 -3 14q0 26 24 35q7 3 14 3zM173 -35q0 -57 -45 -91q-26 -20 -57 -20q-52 0 -59 39q-1 4 -1 8q0 29 23 39q6 3 13 3q30 0 38 -26q1 -5 1 -10q0 -25 -26 -39q13 0 27 7q30 16 30 56v466 l-40 13v7l96 57v-509z" />
<glyph unicode="k" horiz-adv-x="526" d="M496 0h-205v18h45q9 0 9 6l-5 14l-131 216l-55 -50v-159q0 -19 18 -26q3 -1 7 -1h45v-18h-196v18h44q17 0 24 18q2 5 2 9v527l-55 15v16l111 67v-453l130 123q30 29 32 68l-3 18q-7 21 -33 21h-29v16h225v-16q-62 -8 -119 -58l-101 -92l161 -259q5 -14 26 -19q4 -1 7 -1 h46v-18z" />
<glyph unicode="l" horiz-adv-x="262" d="M227 0h-196v18h45q16 0 23 19q2 4 2 8v527l-55 15v16l111 67v-625q0 -18 17 -25q4 -2 8 -2h45v-18z" />
<glyph unicode="m" horiz-adv-x="785" d="M752 0h-198v18h44q17 0 24 18q2 5 2 9v321q0 46 -40 69q-18 10 -40 10q-57 0 -122 -64l-4 -4v-332q0 -17 17 -25q4 -2 8 -2h45v-18h-196v18h45q16 0 23 18q2 5 2 9v321q0 45 -39 68q-19 11 -41 11q-58 0 -121 -61q-3 -4 -7 -8v-331q0 -17 17 -25q5 -2 9 -2h44v-18h-196 v18h45q18 0 24 20q1 3 1 7v331l-54 15v16l110 67v-71q62 62 129 68q7 1 13 1q113 0 122 -64v-4q61 61 128 67q6 1 12 1q124 0 124 -75v-352q0 -18 17 -25q4 -2 8 -2h45v-18z" />
<glyph unicode="n" horiz-adv-x="510" d="M488 0h-196v18h45q16 0 23 18q2 5 2 9v321q0 45 -39 68q-19 11 -41 11q-58 0 -121 -61q-3 -4 -7 -8v-331q0 -17 17 -25q5 -2 9 -2h44v-18h-196v18h45q18 0 24 20q1 3 1 7v331l-54 15v16l110 67v-71q62 62 129 68q7 1 13 1q118 -5 122 -75v-352q0 -17 17 -25q4 -2 8 -2h45 v-18z" />
<glyph unicode="o" horiz-adv-x="482" d="M242 -9q-106 0 -158 100q-33 61 -33 140q0 114 62 184q52 57 129 57q105 0 158 -100q33 -61 33 -139q0 -117 -64 -186q-50 -56 -127 -56zM242 6q74 0 110 97q21 57 21 129q0 120 -52 183q-33 40 -79 40q-74 0 -110 -97q-22 -57 -22 -128q0 -120 52 -184q33 -40 80 -40z " />
<glyph unicode="p" horiz-adv-x="524" d="M406 239q0 152 -73 200q-22 14 -46 14q-82 0 -114 -65q-13 -27 -13 -57v-215q18 -108 120 -108q63 0 99 88q27 63 27 143zM476 243q0 -107 -69 -186q-58 -66 -127 -66q-74 0 -120 37v-130q0 -18 17 -25q4 -2 8 -2h45v-18h-196v18h45q16 0 23 19q2 4 2 8v468l-43 23v16 l99 60v-41q48 48 120 48q148 0 183 -123q13 -45 13 -106z" />
<glyph unicode="q" horiz-adv-x="440" d="M449 -165h-126v186q-48 -30 -117 -30q-113 0 -166 95q-33 59 -33 142q0 113 68 185q55 59 131 59q75 0 122 -43l51 45v-594q0 -19 18 -26q3 -1 7 -1h45v-18zM323 115v198q0 95 -30 121q-24 20 -87 20q-90 0 -117 -124q-9 -42 -9 -91q0 -231 128 -231q82 0 105 65 q7 18 10 42z" />
<glyph unicode="r" horiz-adv-x="345" d="M311 438q0 -30 -32 -40q-9 -3 -19 -3q-42 0 -45 27q0 3 3 6q-34 -7 -70 -51v-332q0 -17 17 -25q4 -2 8 -2h45v-18h-196v18h45q16 0 23 18q2 5 2 9v345l-40 16v6l96 57v-67q47 52 83 64q17 6 34 6q36 0 45 -24q1 -5 1 -10z" />
<glyph unicode="s" horiz-adv-x="385" d="M332 119q0 -70 -61 -107q-35 -21 -78 -21q-47 0 -132 35v110h3q8 -59 58 -99q36 -28 78 -28q48 0 72 45q11 22 11 46q0 45 -63 79l-97 50q-79 46 -79 118q0 67 61 103q36 22 81 22q52 0 122 -32v-110h-2q-14 76 -63 107q-23 15 -50 15q-60 0 -87 -35q-11 -15 -11 -34 q0 -53 64 -91l99 -53q74 -47 74 -120z" />
<glyph unicode="t" horiz-adv-x="265" d="M223 64q-4 -35 -34 -57q-21 -16 -50 -16q-55 0 -55 82v340h-56v22l94 125l18 -14v-90h81l-16 -43h-65v-348q0 -21 24 -28q5 -1 10 -1q23 0 41 33q5 8 6 14z" />
<glyph unicode="u" horiz-adv-x="524" d="M477 65l-114 -74v74q-60 -74 -152 -74q-83 0 -113 61q-13 26 -13 61v305q0 17 -17 25q-4 2 -8 2h-45v18h126v-355q0 -65 57 -80q13 -4 28 -4q67 0 128 63q5 4 9 9v322q0 17 -17 25q-4 2 -8 2h-45v18h126v-365l58 -16v-17z" />
<glyph unicode="v" horiz-adv-x="465" d="M458 445h-27q-29 0 -53 -34q-6 -9 -9 -17l-141 -394l-15 6l-132 415q-4 13 -22 22q-5 2 -9 2h-26v18h151v-18h-28q-18 0 -19 -19l1 -11l111 -337l99 282q8 23 8 43q0 23 -11 33q-9 9 -24 9h-24v18h170v-18z" />
<glyph unicode="w" horiz-adv-x="629" d="M638 445h-27q-32 0 -55 -36q-5 -8 -8 -15l-141 -394l-14 6l-80 251l-102 -257l-17 6l-133 415q-6 19 -26 23q-2 1 -5 1h-25v18h159v-18h-29q-19 0 -19 -20l1 -10l103 -328l83 201l-42 133q-4 13 -23 22q-5 2 -9 2h-25v18h150v-18h-27q-18 0 -19 -19l1 -11l111 -337 l98 282q9 23 9 44q0 41 -36 41h-23v18h170v-18z" />
<glyph unicode="x" horiz-adv-x="481" d="M439 0h-160v18h24q10 0 10 15l-3 21l-1 1l-87 154l-72 -118q-8 -13 -8 -27l3 -17q11 -29 46 -29h15v-18h-192v18h30q37 0 73 56l95 154l-108 193q-13 24 -32 24h-25v18h170v-18h-28q-16 0 -20 -16l1 -12l1 -2l74 -133l54 87q13 22 13 46q0 30 -27 30h-24v18h170v-18h-26 q-26 0 -59 -36q-6 -6 -9 -12l-82 -133l100 -179q39 -67 63 -67h21v-18z" />
<glyph unicode="y" horiz-adv-x="440" d="M439 445h-19q-28 0 -56 -43q-4 -7 -7 -12l-210 -443q-20 -38 -61 -38q-35 0 -44 34q-2 8 -2 15q0 31 25 42q7 3 15 3q36 0 41 -31q1 -4 1 -7q0 -23 -23 -33q21 0 35 28l2 4l40 85l-4 2l-109 370q-4 15 -24 22q-4 2 -8 2h-25v18h159v-18h-28q-19 0 -19 -20l1 -10l90 -293 l110 238q8 18 8 40q0 45 -35 45h-23v18h170v-18z" />
<glyph unicode="z" horiz-adv-x="404" d="M364 463l-273 -445h112q51 0 98 64q18 25 27 50l15 -7l-38 -127h-293l270 447h-121q-46 0 -78 -68q-13 -29 -17 -56l-16 10l23 132h291z" />
<glyph unicode="{" horiz-adv-x="346" d="M285 -213h-37q-52 0 -87 31q-42 37 -43 91v188q0 81 -28 104q-15 12 -43 14v28q23 8 40 24q31 30 31 113v172q0 51 43 87q35 31 82 31h42v-30h-42q-31 0 -52 -21q-23 -28 -23 -104v-156q0 -71 -22 -97q-19 -23 -42 -33q24 -4 42 -21q22 -21 22 -85v-181q0 -81 33 -105 q25 -18 47 -19l37 -1v-30z" />
<glyph unicode="|" horiz-adv-x="155" d="M94 -114h-47v837h47v-837z" />
<glyph unicode="}" horiz-adv-x="346" d="M19 -213v30l37 1q22 1 47 19q33 24 33 105v181q0 64 22 85q18 17 42 21q-23 10 -42 33q-22 26 -22 97v156q0 77 -20 101l-3 3q-21 21 -52 21h-42v30h42q47 0 82 -31q43 -36 43 -87v-172q0 -83 31 -113q17 -16 40 -24v-28q-28 -2 -43 -14q-28 -23 -28 -104v-188 q0 -53 -43 -91q-35 -31 -87 -31h-37z" />
<glyph unicode="~" horiz-adv-x="409" d="M334 580q0 -56 -36 -87q-20 -16 -44 -16q-32 0 -62 28q-23 21 -41 21q-52 0 -86 -49h-13q1 55 48 89q26 19 55 19q21 0 58 -28q25 -19 38 -19q44 0 75 42h8z" />
<glyph unicode="&#xa1;" horiz-adv-x="217" d="M99 -13l-41 81q-12 32 -12 68q0 67 29 176q26 99 26 166q0 23 10 23l5 -2q5 -6 5 -21q0 -67 29 -176q26 -99 26 -166q0 -49 -27 -100l-25 -49q-4 -9 -12 -10l-8 3q-3 2 -5 7zM147 566q-15 -10 -31 -10q-32 0 -48 32q-6 11 -6 24l4 18q5 16 21 26q14 10 29 10l19 -3 q30 -11 36 -43v-20q-4 -21 -24 -34z" />
<glyph unicode="&#xa2;" horiz-adv-x="481" d="M207 435q-55 0 -96 -66q-31 -51 -31 -108q0 -105 74 -170q5 -4 11 -4l7 2q2 2 3 5l48 322q0 13 -12 18q-2 1 -4 1zM371 153q8 18 19 20l5 -2l2 -10l-2 -10q-24 -97 -107 -134q-37 -17 -81 -17q-12 0 -24 3l-14 -79v-1q-2 -8 -13 -8q-10 0 -10 10v6l13 78q-72 26 -117 105 q-34 59 -34 122q0 62 43 127q33 49 77 69q59 26 93 33l8 3h1l5 30q2 14 16 15l9 -3q4 -3 4 -13l-5 -31q68 -11 108 -51q13 -13 13 -29q0 -4 -1 -8q-4 -29 -30 -36q-4 -1 -9 -1q-21 0 -39 30q-7 12 -9 15q-15 23 -18 25q-2 2 -4 2l-15 1q-5 -1 -6 -7l-51 -323l3 -11 q3 -6 11 -9q15 -4 34 -4q41 0 88 44q25 23 37 49z" />
<glyph unicode="&#xa3;" horiz-adv-x="611" d="M218 88q-12 0 -34 -2q-18 -26 -42 -51q-33 -35 -55 -35q-18 0 -22 18q-1 3 -1 6q0 30 44 53l36 17q9 5 27 13q7 21 25 108l-1 11q-8 16 -32 16h-23q-13 0 -16 15q0 13 16 16h46q20 0 25 22q31 160 73 250q26 55 57 78q7 5 15 10q38 22 84 35l19 1q13 -2 24 -7 q41 -22 44 -47q0 -25 -22 -34q-6 -2 -12 -2q-21 0 -33 26q-1 2 -2 5q-11 27 -41 30l-18 -2q-12 -3 -20 -13q-29 -35 -58 -158q-20 -84 -29 -115l-20 -66v-10q1 -3 5 -3h43q24 0 24 -16q0 -15 -27 -15h-47q-13 0 -18 -15l-31 -82q-7 -15 -15 -28q16 3 37 3q41 0 108 -39 q70 -37 100 -40q36 0 37 29q0 14 -9 21q-28 16 -28 40q0 23 25 30q6 2 12 2q29 0 40 -32q4 -10 4 -21q0 -41 -52 -79q-42 -31 -80 -31q-45 0 -105 46q-48 37 -66 41q-6 1 -11 1z" />
<glyph unicode="&#xa4;" horiz-adv-x="544" d="M437 134l-28 -28l-52 53q-54 -44 -132 -44q-75 0 -127 41l-49 -50l-27 28l48 49q-46 54 -46 131q1 76 45 131q0 1 -47 47l27 28l47 -48q53 43 129 43q82 0 133 -46l51 51l28 -28l-52 -51q40 -54 40 -126q0 -74 -42 -128zM225 165q92 0 131 74q19 35 19 76q0 78 -56 121 q-39 29 -94 29q-92 0 -131 -74q-19 -35 -19 -76q0 -78 56 -121q39 -29 94 -29z" />
<glyph unicode="&#xa5;" horiz-adv-x="647" d="M637 636h-35q-45 0 -124 -108l-30 -41h146v-38h-173l-58 -80h231v-38h-250v-270q0 -24 22 -34q6 -3 13 -3h52v-24h-232v24h53q21 0 32 23q3 7 3 14v270h-234v38h215l-47 80h-168v38h146l-61 104q-21 35 -55 44q-6 1 -12 1h-7v25h191v-25h-28q-34 0 -34 -20l3 -18 q3 -5 6 -11l57 -100h163l14 20q44 63 44 99q1 21 -17 27q-8 3 -19 3h-25v25h218v-25zM396 449h-115l47 -80h14z" />
<glyph unicode="&#xa6;" horiz-adv-x="201" d="M94 398h-47v325h47v-325zM94 -19h-47v350h47v-350z" />
<glyph unicode="&#xa7;" horiz-adv-x="359" d="M319 613q-4 -35 -34 -40l-17 1q-25 7 -25 34v5q2 30 29 30h11q-5 28 -24 35q-22 9 -46 9l-26 -3q-49 -14 -64 -68q-2 -8 -3 -16l-1 -30q8 -71 95 -101l24 -7q46 -24 54 -86l1 -33q-7 -72 -70 -101l-14 -6q49 -7 77 -51q17 -27 18 -60q0 -10 -2 -21q-9 -59 -64 -87 q-7 -3 -12 -5q-36 -11 -66 -12q-19 0 -41 4q-60 10 -78 53q-5 12 -5 26v9q4 34 33 40h16q28 -7 28 -35v-5q-2 -31 -30 -31h-12q9 -26 19 -32q2 -2 6 -3q22 -9 46 -9q54 0 81 46q11 19 13 41v32q-9 75 -119 108l-8 2q-52 30 -57 97l1 32q11 67 69 92l10 4q-63 23 -77 78 q-4 14 -4 29q0 11 2 23q9 60 69 90q4 2 7 3q34 10 64 10q20 0 44 -4q62 -10 78 -54q4 -12 4 -24v-9zM177 444l-20 -3q-40 -14 -52 -68l-3 -31q1 -58 43 -74q10 -3 20 -4l22 2q42 11 49 69v33q-6 57 -41 72q-9 4 -18 4z" />
<glyph unicode="&#xa8;" horiz-adv-x="0" d="M250 605q26 0 35 -24q3 -7 3 -14q0 -26 -24 -35q-7 -3 -14 -3q-26 0 -35 24q-3 7 -3 14q0 26 24 35q7 3 14 3zM94 605q26 0 35 -24q3 -7 3 -14q0 -26 -24 -35q-7 -3 -14 -3q-26 0 -35 24q-3 7 -3 14q0 26 24 35q7 3 14 3z" />
<glyph unicode="&#xa9;" horiz-adv-x="539" d="M252 703q116 -1 171 -91q30 -50 30 -111q0 -96 -65 -154q-54 -49 -139 -49q-116 1 -171 91q-30 50 -30 111q0 96 65 154q54 49 139 49zM252 674l-40 -3q-86 -16 -120 -97q-15 -34 -15 -72q0 -23 5 -44q19 -83 93 -115q33 -15 74 -15l40 3q86 16 120 97q15 34 15 72 q0 23 -5 44q-19 83 -93 115q-33 15 -74 15zM343 465l-16 -85h-7q0 5 -2 8q-3 6 -10 6q-9 0 -39 -12q-13 -6 -23 -6l-30 2q-70 14 -77 122l2 34q12 69 64 93q21 9 46 9q24 0 46 -17q6 -5 11 -5l9 6l8 10l1 1h4l5 -84h-6q-1 9 -5 15q-29 69 -74 69q-43 0 -67 -60 q-11 -31 -12 -65l3 -42q13 -73 60 -80q4 -1 8 -1q39 0 72 36q5 6 9 12q12 17 16 34h4z" />
<glyph unicode="&#xaa;" horiz-adv-x="317" d="M286 233q0 -19 -23 -32q-6 -3 -12 -4l-24 1q-39 9 -44 51v5q-16 -35 -52 -51q-13 -6 -25 -6q-72 0 -89 49q-4 12 -4 30q2 52 65 79l89 34q9 4 16 9v74q0 29 -32 37q-8 2 -15 2q-12 0 -50 -11q-5 -1 -9 -2l-1 -16l-4 -13q-9 -45 -28 -49q-3 -1 -6 -1q-12 0 -13 14l4 18 q17 41 67 65q36 18 78 18q34 0 53 -25q10 -14 10 -33v-224q4 -24 22 -28q13 0 25 24l2 6v-21zM288 132h-288v38h288v-38zM183 280v102q-84 -20 -109 -62q-7 -11 -8 -23l1 -34q6 -35 45 -38q7 -1 16 -1q26 0 52 50l2 5z" />
<glyph unicode="&#xab;" horiz-adv-x="827" d="M38 312v38l415 215v-63l-330 -164v-16l330 -174v-64zM321 312v38l415 215v-63l-330 -164v-16l330 -174v-64z" />
<glyph unicode="&#xac;" horiz-adv-x="638" d="M575 40h-40v170h-500v40h540v-210z" />
<glyph unicode="&#xad;" horiz-adv-x="340" d="M266 209h-233v45h233v-45z" />
<glyph unicode="&#xae;" horiz-adv-x="529" d="M254 703q116 -1 171 -91q30 -50 30 -111q0 -96 -65 -154q-54 -49 -139 -49q-116 1 -171 91q-30 50 -30 111q0 96 65 154q54 49 139 49zM254 674l-39 -3q-86 -16 -120 -96q-15 -35 -15 -74q0 -22 4 -43q19 -83 93 -115q33 -15 74 -15l40 3q86 16 120 97q15 34 15 72 q0 23 -5 44q-19 83 -93 115q-33 15 -74 15zM372 387h-29q-13 0 -19 5t-11 15l-65 113h-32v-111q0 -6 4 -10t8 -4h19v-8h-93v8h19q5 0 9 4t4 10v195q0 5 -4 9q-3 5 -9 5h-19v9h53h64q49 0 53 -46l-2 -24q-8 -32 -46 -37l63 -107q7 -11 17 -16q2 -5 12 -5h4v-5zM296 580 q0 28 -32 35q-6 1 -12 1h-36v-87h36q42 4 44 51z" />
<glyph unicode="&#xaf;" horiz-adv-x="315" d="M250 585h-215v45h215v-45z" />
<glyph unicode="&#xb0;" horiz-adv-x="222" d="M83 705q52 -1 68 -46q5 -13 5 -26q-1 -46 -39 -66q-16 -8 -36 -9l-24 3q-41 11 -47 56v26q7 45 47 58q12 4 26 4zM83 676l-18 -3q-25 -10 -25 -40q0 -31 28 -40q6 -2 14 -2q34 0 41 31l1 19q-4 29 -33 34q-4 1 -8 1z" />
<glyph unicode="&#xb1;" horiz-adv-x="331" d="M312 213h-279v33h121v75h-121v33h121v102h33v-102h125v-33h-125v-75h125v-33z" />
<glyph unicode="&#xb2;" horiz-adv-x="272" d="M200 465l-11 -59h-143v20q0 33 43 85q46 55 56 80q6 18 7 35l-2 18q-10 30 -44 32l-18 -2q-31 -11 -38 -51h-6q3 48 42 67q15 7 34 7q65 -4 72 -52q1 -4 1 -8q0 -47 -64 -106q-46 -43 -53 -52q-4 -6 -6 -11l-10 -22h126l5 19h9z" />
<glyph unicode="&#xb3;" horiz-adv-x="267" d="M175 476l-2 20q-10 33 -45 52q-13 6 -22 6h-12v15q10 1 18 6q32 17 32 54v7q-3 32 -34 36l-18 -1q-30 -8 -32 -38h-7q0 41 42 55q13 4 27 4h5q43 -1 52 -37l2 -20q-3 -22 -20 -36l-15 -11l1 -6l6 -6q48 -18 57 -67l1 -26q-6 -52 -60 -70q-19 -7 -43 -8l-21 3 q-34 11 -38 41v8q1 24 22 28l13 -1q13 -5 14 -23q-1 -20 -17 -22l-7 1q5 -10 18 -20q7 -5 19 -5q33 0 53 29q10 14 11 32z" />
<glyph unicode="&#xb4;" horiz-adv-x="275" d="M227 737l-128 -109h-33l85 109h76z" />
<glyph unicode="&#xb5;" horiz-adv-x="671" d="M567 150q-39 -76 -53 -96q-40 -54 -90 -54q-10 0 -21 2q-50 9 -70 49q-4 7 -6 15q-36 -50 -65 -60q-14 -6 -31 -6q-65 0 -101 67q-2 3 -4 8l-27 -184q-5 -32 -32 -33l-16 3q-18 8 -18 26v4l80 525q6 40 30 42l13 -2q20 -10 20 -40q0 -5 -1 -10l-32 -215l-1 -51l3 -36 q13 -65 60 -81q11 -4 23 -4l24 3q37 12 74 73l47 330q5 32 29 34l15 -3q19 -10 19 -33q0 -3 -1 -7l-48 -299v-18q7 -27 46 -44l18 -4q40 1 83 93q8 18 9 20z" />
<glyph unicode="&#xb6;" horiz-adv-x="592" d="M473 631v-700h-56v700h-56v-700h-55v423h-119q-107 0 -155 66q-27 37 -27 91q0 8 1 16q7 101 106 127q27 7 59 7h349v-30h-47zM306 385v246h-30q-55 0 -88 -44q-23 -30 -23 -71v-6q3 -98 61 -118q20 -7 50 -7h30z" />
<glyph unicode="&#xb7;" horiz-adv-x="217" d="M147 302q25 -16 25 -43l-4 -20q-11 -31 -42 -36h-20q-9 3 -19 9q-24 16 -24 43l3 21q13 32 43 36l20 -1q9 -3 18 -9z" />
<glyph unicode="&#xb8;" horiz-adv-x="0" d="M361 -96l-2 -37q-10 -63 -84 -75q-19 -3 -47 -4l-52 -1v34l57 5q74 6 74 57q0 32 -40 42q-10 3 -21 3h-38v85h33v-38h28q49 0 77 -34q15 -17 15 -37z" />
<glyph unicode="&#xb9;" horiz-adv-x="227" d="M160 406h-100v8h23q10 0 13 14v243h-20v9l47 17v-269q0 -10 13 -14h24v-8z" />
<glyph unicode="&#xba;" horiz-adv-x="390" d="M165 197q-89 0 -129 80q-20 40 -20 89q0 86 55 134q38 34 94 34q87 0 127 -79q21 -41 21 -90q0 -28 -7 -55q-22 -81 -92 -105q-23 -8 -49 -8zM323 132h-311v38h311v-38zM165 208q56 0 80 77q12 36 11 80q0 93 -42 136q-21 21 -49 21q-56 0 -81 -77q-11 -36 -11 -80 q0 -93 43 -136q21 -21 49 -21z" />
<glyph unicode="&#xbb;" horiz-adv-x="827" d="M736 312l-415 -228v64l330 174v16l-330 164v63l415 -215v-38zM453 312l-415 -228v64l330 174v16l-330 164v63l415 -215v-38z" />
<glyph unicode="&#xbc;" horiz-adv-x="419" d="M141 406h-100v8h23q10 0 13 14v243h-20v9l47 17v-269q0 -10 13 -14h24v-8zM398 58h-29v-55h-29v55h-162l174 236h17v-206h29v-30zM340 88v162l-118 -162h118zM206 665h35l-100 -665h-30z" />
<glyph unicode="&#xbd;" horiz-adv-x="385" d="M141 406h-100v8h23q10 0 13 14v243h-20v9l47 17v-269q0 -10 13 -14h24v-8zM363 60l-11 -59h-143v20q0 33 44 85q45 55 56 81q6 17 7 33l-3 18q-10 31 -44 32l-18 -2q-31 -11 -38 -50h-6q3 46 41 66q15 7 35 7q57 -2 70 -42q3 -8 3 -17l-3 -25q-11 -37 -72 -92 q-42 -38 -48 -52q-8 -20 -9 -22h125l5 19h9zM206 665h35l-100 -665h-30z" />
<glyph unicode="&#xbe;" horiz-adv-x="488" d="M163 476l-2 20q-10 33 -45 52q-13 6 -22 6h-12v15q10 1 18 6q32 17 32 52q1 4 0 9q-2 32 -33 36l-20 -2q-30 -8 -31 -37h-7q0 41 42 55q13 4 27 4h5q43 -1 53 -37l1 -19q-2 -23 -20 -37l-15 -11l1 -6l6 -6q48 -18 57 -67l1 -26q-6 -52 -60 -70q-19 -7 -43 -8l-21 3 q-34 11 -38 41v8q1 24 22 28l13 -1q13 -5 14 -23q0 -20 -17 -22l-7 1q5 -10 18 -20q7 -5 19 -5q33 0 53 29q10 14 11 32zM454 58h-29v-55h-29v55h-162l174 236h17v-206h29v-30zM396 88v162l-118 -162h118zM259 665h35l-100 -665h-30z" />
<glyph unicode="&#xbf;" horiz-adv-x="419" d="M231 329q18 127 23 161q2 13 10 14l7 -2q5 -4 5 -13q5 -49 22 -196l4 -45q-1 -23 -18 -26q-104 -20 -120 -24q-86 -27 -86 -89q0 -52 55 -70q18 -5 37 -5q26 0 72 26q30 17 48 17q31 0 42 -28q3 -8 3 -17q0 -42 -49 -60q-19 -6 -39 -6q-84 0 -142 56q-48 45 -49 107 q0 104 142 164q3 2 6 3q23 9 27 33zM238 578q-25 16 -25 43l4 20q11 31 42 36h20q9 -3 19 -9q25 -16 25 -43l-4 -20q-11 -32 -42 -37l-20 1q-9 3 -19 9z" />
<glyph unicode="&#xc0;" horiz-adv-x="732" d="M451 719h-33l-128 109h76zM684 0h-202v25h41q17 0 21 17l-1 13l-92 265h-190l-88 -215q-4 -9 -4 -21q0 -35 28 -52q10 -7 23 -7h38v-25h-221v25h35q31 0 58 44q4 7 7 14l216 526l-14 38l43 39l222 -621q9 -26 44 -37q10 -3 19 -3h17v-25zM444 342l-79 233l-96 -233h175z " />
<glyph unicode="&#xc1;" horiz-adv-x="732" d="M451 828l-128 -109h-33l85 109h76zM684 0h-202v25h41q17 0 21 17l-1 13l-92 265h-190l-88 -215q-4 -9 -4 -21q0 -35 28 -52q10 -7 23 -7h38v-25h-221v25h35q31 0 58 44q4 7 7 14l216 526l-14 38l43 39l222 -621q9 -26 44 -37q10 -3 19 -3h17v-25zM444 342l-79 233 l-96 -233h175z" />
<glyph unicode="&#xc2;" horiz-adv-x="732" d="M276 719l87 112h15l86 -112h-20l-70 69h-6l-69 -69h-23zM684 0h-202v25h41q17 0 21 17l-1 13l-92 265h-190l-88 -215q-4 -9 -4 -21q0 -35 28 -52q10 -7 23 -7h38v-25h-221v25h35q31 0 58 44q4 7 7 14l216 526l-14 38l43 39l222 -621q9 -26 44 -37q10 -3 19 -3h17v-25z M444 342l-79 233l-96 -233h175z" />
<glyph unicode="&#xc3;" horiz-adv-x="732" d="M269 719q1 43 39 67q18 11 36 11l16 -3q4 -2 33 -23q11 -8 20 -8q34 3 54 30h5l-2 -23q-9 -40 -40 -49l-15 -2q-23 1 -48 22q-15 13 -26 13q-40 -1 -62 -35h-10zM684 0h-202v25h41q17 0 21 17l-1 13l-92 265h-190l-88 -215q-4 -9 -4 -21q0 -35 28 -52q10 -7 23 -7h38v-25 h-221v25h35q31 0 58 44q4 7 7 14l216 526l-14 38l43 39l222 -621q9 -26 44 -37q10 -3 19 -3h17v-25zM444 342l-79 233l-96 -233h175z" />
<glyph unicode="&#xc4;" horiz-adv-x="732" d="M448 795q26 0 35 -24q3 -7 3 -14q0 -26 -24 -35q-7 -3 -14 -3q-26 0 -35 24q-3 7 -3 14q0 26 24 35q7 3 14 3zM292 795q26 0 35 -24q3 -7 3 -14q0 -26 -24 -35q-7 -3 -14 -3q-26 0 -35 24q-3 7 -3 14q0 26 24 35q7 3 14 3zM684 0h-202v25h41q17 0 21 17l-1 13l-92 265 h-190l-88 -215q-4 -9 -4 -21q0 -35 28 -52q10 -7 23 -7h38v-25h-221v25h35q31 0 58 44q4 7 7 14l216 526l-14 38l43 39l222 -621q9 -26 44 -37q10 -3 19 -3h17v-25zM444 342l-79 233l-96 -233h175z" />
<glyph unicode="&#xc5;" horiz-adv-x="732" d="M684 0h-202v25h41q17 0 21 17l-1 13l-92 265h-190l-88 -215q-4 -9 -4 -20q0 -12 5 -25q14 -35 46 -35h38v-25h-221v25h35q31 0 58 44q4 7 7 14l216 526l-9 25q-39 15 -43 61l2 26q11 45 53 54l19 2q52 -1 68 -46q4 -12 4 -25q0 -47 -38 -67q-4 -2 -9 -4l204 -570 q9 -26 44 -37q10 -3 19 -3h17v-25zM374 748l-18 -3q-25 -10 -25 -40q0 -31 28 -40q6 -2 14 -2q34 0 41 31l1 19q-4 29 -33 34q-4 1 -8 1zM444 342l-79 233l-96 -233h175z" />
<glyph unicode="&#xc6;" horiz-adv-x="888" d="M834 196l-53 -196h-456v24h53q21 0 32 23q3 7 3 14v293h-132l-102 -236q-5 -11 -5 -26q0 -43 26 -61q9 -6 20 -6h38v-25h-221v25h38q22 0 51 42q6 9 9 16l244 554h-54v24h465l44 -200h-21l-13 30q-41 94 -92 123q-32 17 -74 17h-128q-28 0 -36 -35q-2 -7 -2 -15v-205h100 q46 0 79 40q20 26 20 54v18h18v-254h-18v18q0 48 -43 80q-27 20 -56 20h-100v-272q0 -36 24 -47q6 -3 14 -3h128q105 0 161 124q3 5 5 11l13 31h21zM413 370v230q0 15 -13 28l-112 -258h125z" />
<glyph unicode="&#xc7;" horiz-adv-x="601" d="M425 -99l-2 -37q-10 -63 -84 -75q-19 -3 -47 -4l-52 -1v34l57 5q74 6 74 57q0 32 -40 42q-10 3 -21 3h-38v85h33v-38h28q49 0 77 -34q15 -17 15 -37zM558 228l-43 -219h-20q0 29 -23 36q-4 1 -9 1q-25 0 -81 -26q-47 -22 -78 -22q-224 0 -257 242q-5 39 -5 83 q0 139 63 239q74 117 210 117q66 0 115 -39q23 -19 33 -19q27 0 44 35q2 4 4 9h12l11 -219h-14q-28 106 -95 170q-52 49 -113 49q-92 0 -152 -107q-54 -96 -54 -222q0 -154 59 -245q49 -74 126 -74q81 0 157 63q33 28 56 63q28 44 40 85h14z" />
<glyph unicode="&#xc8;" horiz-adv-x="584" d="M356 694h-33l-128 109h76zM530 196l-52 -196h-456v24h53q21 0 32 23q3 7 3 14v539q0 21 -21 33q-7 4 -14 4h-53v24h464l44 -200h-20l-13 30q-41 94 -92 123q-32 17 -74 17h-128q-28 0 -36 -35q-2 -7 -2 -15v-205h100q46 0 79 40q20 26 20 54v18h18v-254h-18v18 q0 48 -43 80q-27 20 -56 20h-100v-272q0 -36 24 -47q6 -3 14 -3h128q105 0 161 124q3 5 5 11l13 31h20z" />
<glyph unicode="&#xc9;" horiz-adv-x="584" d="M356 803l-128 -109h-33l85 109h76zM530 196l-52 -196h-456v24h53q21 0 32 23q3 7 3 14v539q0 21 -21 33q-7 4 -14 4h-53v24h464l44 -200h-20l-13 30q-41 94 -92 123q-32 17 -74 17h-128q-28 0 -36 -35q-2 -7 -2 -15v-205h100q46 0 79 40q20 26 20 54v18h18v-254h-18v18 q0 48 -43 80q-27 20 -56 20h-100v-272q0 -36 24 -47q6 -3 14 -3h128q105 0 161 124q3 5 5 11l13 31h20z" />
<glyph unicode="&#xca;" horiz-adv-x="584" d="M182 694l87 112h15l86 -112h-20l-70 69h-6l-69 -69h-23zM530 196l-52 -196h-456v24h53q21 0 32 23q3 7 3 14v539q0 21 -21 33q-7 4 -14 4h-53v24h464l44 -200h-20l-13 30q-41 94 -92 123q-32 17 -74 17h-128q-28 0 -36 -35q-2 -7 -2 -15v-205h100q46 0 79 40q20 26 20 54 v18h18v-254h-18v18q0 48 -43 80q-27 20 -56 20h-100v-272q0 -36 24 -47q6 -3 14 -3h128q105 0 161 124q3 5 5 11l13 31h20z" />
<glyph unicode="&#xcb;" horiz-adv-x="584" d="M353 770q26 0 35 -24q3 -7 3 -14q0 -26 -24 -35q-7 -3 -14 -3q-26 0 -35 24q-3 7 -3 14q0 26 24 35q7 3 14 3zM197 770q26 0 35 -24q3 -7 3 -14q0 -26 -24 -35q-7 -3 -14 -3q-26 0 -35 24q-3 7 -3 14q0 26 24 35q7 3 14 3zM530 196l-52 -196h-456v24h53q21 0 32 23 q3 7 3 14v539q0 21 -21 33q-7 4 -14 4h-53v24h464l44 -200h-20l-13 30q-41 94 -92 123q-32 17 -74 17h-128q-28 0 -36 -35q-2 -7 -2 -15v-205h100q46 0 79 40q20 26 20 54v18h18v-254h-18v18q0 48 -43 80q-27 20 -56 20h-100v-272q0 -36 24 -47q6 -3 14 -3h128 q105 0 161 124q3 5 5 11l13 31h20z" />
<glyph unicode="&#xcc;" horiz-adv-x="297" d="M240 694h-33l-128 109h76zM275 0h-230v24h53q21 0 32 23q3 7 3 14v539q0 21 -21 33q-7 4 -14 4h-53v24h230v-24h-52q-23 0 -32 -24q-3 -6 -3 -13v-539q0 -24 22 -34q6 -3 13 -3h52v-24z" />
<glyph unicode="&#xcd;" horiz-adv-x="297" d="M240 803l-128 -109h-33l85 109h76zM275 0h-230v24h53q21 0 32 23q3 7 3 14v539q0 21 -21 33q-7 4 -14 4h-53v24h230v-24h-52q-23 0 -32 -24q-3 -6 -3 -13v-539q0 -24 22 -34q6 -3 13 -3h52v-24z" />
<glyph unicode="&#xce;" horiz-adv-x="297" d="M66 694l87 112h15l86 -112h-20l-70 69h-6l-69 -69h-23zM275 0h-230v24h53q21 0 32 23q3 7 3 14v539q0 21 -21 33q-7 4 -14 4h-53v24h230v-24h-52q-23 0 -32 -24q-3 -6 -3 -13v-539q0 -24 22 -34q6 -3 13 -3h52v-24z" />
<glyph unicode="&#xcf;" horiz-adv-x="297" d="M238 770q26 0 35 -24q3 -7 3 -14q0 -26 -24 -35q-7 -3 -14 -3q-26 0 -35 24q-3 7 -3 14q0 26 24 35q7 3 14 3zM82 770q26 0 35 -24q3 -7 3 -14q0 -26 -24 -35q-7 -3 -14 -3q-26 0 -35 24q-3 7 -3 14q0 26 24 35q7 3 14 3zM275 0h-230v24h53q21 0 32 23q3 7 3 14v539 q0 21 -21 33q-7 4 -14 4h-53v24h230v-24h-52q-23 0 -32 -24q-3 -6 -3 -13v-539q0 -24 22 -34q6 -3 13 -3h52v-24z" />
<glyph unicode="&#xd0;" horiz-adv-x="650" d="M619 347q0 -145 -104 -245q-110 -100 -263 -102h-229v24h53q21 0 32 23q3 7 3 14v243h-79v39h79v257q0 21 -21 33q-7 4 -14 4h-53v24h329q176 0 239 -152q28 -69 28 -162zM557 359q0 116 -63 197q-60 75 -148 75h-143q-26 0 -35 -34q-2 -8 -2 -16v-238h83v-39h-83v-224 q0 -33 22 -46q7 -4 15 -4h94q122 0 197 112q63 93 63 217z" />
<glyph unicode="&#xd1;" horiz-adv-x="730" d="M289 695q1 43 39 67q18 11 36 11l16 -3q4 -2 33 -23q11 -8 20 -8q34 3 54 30h5l-2 -23q-9 -40 -40 -49l-15 -2q-23 1 -48 22q-15 13 -26 13q-40 -1 -62 -35h-10zM713 636h-48q-42 0 -59 -54q-6 -19 -6 -38v-544h-36l-388 598v-481q0 -45 28 -75q16 -17 37 -17h38v-25 h-236v25h49q39 0 58 52q7 21 7 40v483q0 22 -22 33q-7 4 -14 4h-52v24h128l383 -581v464q0 52 -29 79q-15 13 -35 13h-38v25h235v-25z" />
<glyph unicode="&#xd2;" horiz-adv-x="710" d="M439 704h-33l-128 109h76zM359 -21q-153 0 -238 128q-64 96 -64 222q0 145 81 242q84 100 220 100q154 0 239 -123q63 -92 63 -217q0 -152 -81 -252q-83 -100 -220 -100zM358 0q125 0 192 123q47 87 47 204q0 141 -69 234q-65 89 -169 89q-125 0 -191 -122 q-48 -87 -48 -203q0 -147 71 -240q65 -85 167 -85z" />
<glyph unicode="&#xd3;" horiz-adv-x="710" d="M439 813l-128 -109h-33l85 109h76zM359 -21q-153 0 -238 128q-64 96 -64 222q0 145 81 242q84 100 220 100q154 0 239 -123q63 -92 63 -217q0 -152 -81 -252q-83 -100 -220 -100zM358 0q125 0 192 123q47 87 47 204q0 141 -69 234q-65 89 -169 89q-125 0 -191 -122 q-48 -87 -48 -203q0 -147 71 -240q65 -85 167 -85z" />
<glyph unicode="&#xd4;" horiz-adv-x="710" d="M264 704l87 112h15l86 -112h-20l-70 69h-6l-69 -69h-23zM359 -21q-153 0 -238 128q-64 96 -64 222q0 145 81 242q84 100 220 100q154 0 239 -123q63 -92 63 -217q0 -152 -81 -252q-83 -100 -220 -100zM358 0q125 0 192 123q47 87 47 204q0 141 -69 234q-65 89 -169 89 q-125 0 -191 -122q-48 -87 -48 -203q0 -147 71 -240q65 -85 167 -85z" />
<glyph unicode="&#xd5;" horiz-adv-x="710" d="M257 705q1 43 39 67q18 11 36 11l16 -3q4 -2 33 -23q11 -8 20 -8q34 3 54 30h5l-2 -23q-9 -40 -40 -49l-15 -2q-23 1 -48 22q-15 13 -26 13q-40 -1 -62 -35h-10zM359 -21q-153 0 -238 128q-64 96 -64 222q0 145 81 242q84 100 220 100q154 0 239 -123q63 -92 63 -217 q0 -152 -81 -252q-83 -100 -220 -100zM358 0q125 0 192 123q47 87 47 204q0 141 -69 234q-65 89 -169 89q-125 0 -191 -122q-48 -87 -48 -203q0 -147 71 -240q65 -85 167 -85z" />
<glyph unicode="&#xd6;" horiz-adv-x="710" d="M436 780q26 0 35 -24q3 -7 3 -14q0 -26 -24 -35q-7 -3 -14 -3q-26 0 -35 24q-3 7 -3 14q0 26 24 35q7 3 14 3zM280 780q26 0 35 -24q3 -7 3 -14q0 -26 -24 -35q-7 -3 -14 -3q-26 0 -35 24q-3 7 -3 14q0 26 24 35q7 3 14 3zM359 -21q-153 0 -238 128q-64 96 -64 222 q0 145 81 242q84 100 220 100q154 0 239 -123q63 -92 63 -217q0 -152 -81 -252q-83 -100 -220 -100zM358 0q125 0 192 123q47 87 47 204q0 141 -69 234q-65 89 -169 89q-125 0 -191 -122q-48 -87 -48 -203q0 -147 71 -240q65 -85 167 -85z" />
<glyph unicode="&#xd7;" horiz-adv-x="296" d="M248 214l-32 -32l-67 66l-68 -67l-32 32l68 66l-68 67l32 32l68 -67l67 66l32 -31l-67 -67z" />
<glyph unicode="&#xd8;" horiz-adv-x="710" d="M581 695l-49 -80q98 -75 122 -218q6 -35 6 -71q0 -46 -9 -90q-30 -143 -133 -211q-69 -46 -159 -46q-106 0 -181 61l-50 -81h-45l66 108q-87 94 -92 246v16q0 145 81 242q83 100 220 100q78 0 142 -35l36 59h45zM512 582l-312 -506q63 -76 158 -76q126 0 193 124 q47 89 47 206q0 144 -74 238zM483 609q-54 41 -124 41q-127 0 -193 -127q-45 -89 -45 -206q0 -116 55 -207z" />
<glyph unicode="&#xd9;" horiz-adv-x="656" d="M419 694h-33l-128 109h76zM638 637h-53q-23 0 -32 -24q-3 -6 -3 -13v-380q0 -103 -61 -173q-52 -59 -127 -59q-139 0 -189 51q-45 45 -45 142v419q0 21 -21 33q-7 4 -14 4h-53v24h231v-24h-53q-23 0 -32 -24q-3 -6 -3 -13v-468q0 -65 75 -102q47 -23 101 -23q80 0 130 77 q37 56 37 125v391q0 22 -21 33q-8 4 -15 4h-52v24h200v-24z" />
<glyph unicode="&#xda;" horiz-adv-x="656" d="M419 803l-128 -109h-33l85 109h76zM638 637h-53q-23 0 -32 -24q-3 -6 -3 -13v-380q0 -103 -61 -173q-52 -59 -127 -59q-139 0 -189 51q-45 45 -45 142v419q0 21 -21 33q-7 4 -14 4h-53v24h231v-24h-53q-23 0 -32 -24q-3 -6 -3 -13v-468q0 -65 75 -102q47 -23 101 -23 q80 0 130 77q37 56 37 125v391q0 22 -21 33q-8 4 -15 4h-52v24h200v-24z" />
<glyph unicode="&#xdb;" horiz-adv-x="656" d="M245 694l87 112h15l86 -112h-20l-70 69h-6l-69 -69h-23zM638 637h-53q-23 0 -32 -24q-3 -6 -3 -13v-380q0 -103 -61 -173q-52 -59 -127 -59q-139 0 -189 51q-45 45 -45 142v419q0 21 -21 33q-7 4 -14 4h-53v24h231v-24h-53q-23 0 -32 -24q-3 -6 -3 -13v-468 q0 -65 75 -102q47 -23 101 -23q80 0 130 77q37 56 37 125v391q0 22 -21 33q-8 4 -15 4h-52v24h200v-24z" />
<glyph unicode="&#xdc;" horiz-adv-x="656" d="M416 770q26 0 35 -24q3 -7 3 -14q0 -26 -24 -35q-7 -3 -14 -3q-26 0 -35 24q-3 7 -3 14q0 26 24 35q7 3 14 3zM260 770q26 0 35 -24q3 -7 3 -14q0 -26 -24 -35q-7 -3 -14 -3q-26 0 -35 24q-3 7 -3 14q0 26 24 35q7 3 14 3zM638 637h-53q-23 0 -32 -24q-3 -6 -3 -13v-380 q0 -103 -61 -173q-52 -59 -127 -59q-139 0 -189 51q-45 45 -45 142v419q0 21 -21 33q-7 4 -14 4h-53v24h231v-24h-53q-23 0 -32 -24q-3 -6 -3 -13v-468q0 -65 75 -102q47 -23 101 -23q80 0 130 77q37 56 37 125v391q0 22 -21 33q-8 4 -15 4h-52v24h200v-24z" />
<glyph unicode="&#xdd;" horiz-adv-x="653" d="M415 803l-128 -109h-33l85 109h76zM621 636h-35q-41 0 -114 -95q-6 -7 -10 -13l-135 -189v-278q0 -24 21 -34q6 -3 13 -3h53v-24h-231v24h53q21 0 32 23q4 7 4 14v273l-149 257q-20 35 -54 43q-7 2 -13 2h-8v25h190v-25h-29q-34 0 -34 -20l3 -18q3 -5 6 -11l132 -230 l103 150q44 64 44 99q1 16 -10 23q-9 7 -26 7h-26v25h220v-25z" />
<glyph unicode="&#xde;" horiz-adv-x="471" d="M457 294l-1 -42q-11 -101 -110 -123q-24 -5 -51 -5h-122v-276q0 -24 22 -34q6 -3 13 -3h52v-24h-230v24h53q21 0 32 23q3 7 3 14v753q0 21 -21 33q-7 4 -14 4h-53v24h230v-24h-52q-23 0 -32 -24q-3 -6 -3 -13v-183h137q138 0 147 -124zM393 292q0 61 -63 86 q-26 10 -57 10h-100v-239h99q105 0 119 103z" />
<glyph unicode="&#xdf;" horiz-adv-x="534" d="M416 143q0 72 -57 121q-41 35 -92 35v29q70 15 101 80q15 31 15 66q0 132 -95 164q-27 9 -60 9q-46 0 -70 -38q-11 -18 -11 -39v-570h-126v18h45q16 0 23 18q2 5 2 9v371h-45v17h45v101q0 104 92 127q32 8 78 8q120 0 174 -80q26 -39 26 -85q0 -73 -52 -115 q-20 -15 -44 -22l1 -13q118 -59 129 -160q1 -9 1 -18q0 -82 -66 -133q-55 -43 -136 -43q-63 0 -98 42q-20 24 -20 55q0 47 33 61q9 4 19 4q44 -6 47 -49q0 -40 -34 -44l-16 1q27 -56 71 -56q79 0 108 66q12 27 12 63z" />
<glyph unicode="&#xe0;" horiz-adv-x="400" d="M257 506h-33l-128 109h76zM369 43q0 -26 -27 -44q-12 -8 -23 -8q-58 0 -71 44q-4 15 -5 37q-26 -50 -72 -72q-19 -9 -38 -9q-113 0 -113 113q0 72 80 113q7 4 92 38q32 13 51 25v104q0 38 -41 52q-12 4 -26 4q-45 0 -70 -15l1 -28q0 -7 -3 -18q-13 -55 -33 -66 q-7 -4 -17 -4q-20 0 -21 26l4 24q18 56 75 89q43 24 96 24q44 0 71 -30q20 -21 20 -53v-320q0 -33 25 -38q3 -1 6 -1q20 0 37 37q1 3 2 5v-29zM243 110v145q-108 -23 -149 -74q-18 -22 -18 -47q0 -81 38 -97q16 -7 50 -7q37 0 71 65z" />
<glyph unicode="&#xe1;" horiz-adv-x="400" d="M257 615l-128 -109h-33l85 109h76zM369 43q0 -26 -27 -44q-12 -8 -23 -8q-58 0 -71 44q-4 15 -5 37q-26 -50 -72 -72q-19 -9 -38 -9q-113 0 -113 113q0 72 80 113q7 4 92 38q32 13 51 25v104q0 38 -41 52q-12 4 -26 4q-45 0 -70 -15l1 -28q0 -7 -3 -18q-13 -55 -33 -66 q-7 -4 -17 -4q-20 0 -21 26l4 24q18 56 75 89q43 24 96 24q44 0 71 -30q20 -21 20 -53v-320q0 -33 25 -38q3 -1 6 -1q20 0 37 37q1 3 2 5v-29zM243 110v145q-108 -23 -149 -74q-18 -22 -18 -47q0 -81 38 -97q16 -7 50 -7q37 0 71 65z" />
<glyph unicode="&#xe2;" horiz-adv-x="400" d="M83 505l87 112h15l86 -112h-20l-70 69h-6l-69 -69h-23zM369 43q0 -26 -27 -44q-12 -8 -23 -8q-58 0 -71 44q-4 15 -5 37q-26 -50 -72 -72q-19 -9 -38 -9q-113 0 -113 113q0 72 80 113q7 4 92 38q32 13 51 25v104q0 38 -41 52q-12 4 -26 4q-45 0 -70 -15l1 -28 q0 -7 -3 -18q-13 -55 -33 -66q-7 -4 -17 -4q-20 0 -21 26l4 24q18 56 75 89q43 24 96 24q44 0 71 -30q20 -21 20 -53v-320q0 -33 25 -38q3 -1 6 -1q20 0 37 37q1 3 2 5v-29zM243 110v145q-108 -23 -149 -74q-18 -22 -18 -47q0 -81 38 -97q16 -7 50 -7q37 0 71 65z" />
<glyph unicode="&#xe3;" horiz-adv-x="400" d="M75 506q1 43 39 67q18 11 36 11l16 -3q4 -2 33 -23q11 -8 20 -8q34 3 54 30h5l-2 -23q-9 -40 -40 -49l-15 -2q-23 1 -48 22q-15 13 -26 13q-40 -1 -62 -35h-10zM369 43q0 -26 -27 -44q-12 -8 -23 -8q-58 0 -71 44q-4 15 -5 37q-26 -50 -72 -72q-19 -9 -38 -9 q-113 0 -113 113q0 72 80 113q7 4 92 38q32 13 51 25v104q0 38 -41 52q-12 4 -26 4q-45 0 -70 -15l1 -28q0 -7 -3 -18q-13 -55 -33 -66q-7 -4 -17 -4q-20 0 -21 26l4 24q18 56 75 89q43 24 96 24q44 0 71 -30q20 -21 20 -53v-320q0 -33 25 -38q3 -1 6 -1q20 0 37 37q1 3 2 5 v-29zM243 110v145q-108 -23 -149 -74q-18 -22 -18 -47q0 -81 38 -97q16 -7 50 -7q37 0 71 65z" />
<glyph unicode="&#xe4;" horiz-adv-x="400" d="M254 582q26 0 35 -24q3 -7 3 -14q0 -26 -24 -35q-7 -3 -14 -3q-26 0 -35 24q-3 7 -3 14q0 26 24 35q7 3 14 3zM98 582q26 0 35 -24q3 -7 3 -14q0 -26 -24 -35q-7 -3 -14 -3q-26 0 -35 24q-3 7 -3 14q0 26 24 35q7 3 14 3zM369 43q0 -26 -27 -44q-12 -8 -23 -8 q-58 0 -71 44q-4 15 -5 37q-26 -50 -72 -72q-19 -9 -38 -9q-113 0 -113 113q0 72 80 113q7 4 92 38q32 13 51 25v104q0 38 -41 52q-12 4 -26 4q-45 0 -70 -15l1 -28q0 -7 -3 -18q-13 -55 -33 -66q-7 -4 -17 -4q-20 0 -21 26l4 24q18 56 75 89q43 24 96 24q44 0 71 -30 q20 -21 20 -53v-320q0 -33 25 -38q3 -1 6 -1q20 0 37 37q1 3 2 5v-29zM243 110v145q-108 -23 -149 -74q-18 -22 -18 -47q0 -81 38 -97q16 -7 50 -7q37 0 71 65z" />
<glyph unicode="&#xe5;" horiz-adv-x="400" d="M201 658q52 -1 68 -46q5 -13 5 -26q-1 -46 -39 -66q-16 -8 -36 -9l-24 3q-41 11 -47 56v26q7 45 47 58q12 4 26 4zM201 629l-18 -3q-25 -10 -25 -40q0 -31 28 -40q6 -2 14 -2q34 0 41 31l1 19q-4 29 -33 34q-4 1 -8 1zM369 43q0 -26 -27 -44q-12 -8 -23 -8q-58 0 -71 44 q-4 15 -5 37q-26 -50 -72 -72q-19 -9 -38 -9q-113 0 -113 113q0 72 80 113q7 4 92 38q32 13 51 25v104q0 38 -41 52q-12 4 -26 4q-45 0 -70 -15l1 -28q0 -7 -3 -18q-13 -55 -33 -66q-7 -4 -17 -4q-20 0 -21 26l4 24q18 56 75 89q43 24 96 24q44 0 71 -30q20 -21 20 -53v-320 q0 -33 25 -38q3 -1 6 -1q20 0 37 37q1 3 2 5v-29zM243 110v145q-108 -23 -149 -74q-18 -22 -18 -47q0 -81 38 -97q16 -7 50 -7q37 0 71 65z" />
<glyph unicode="&#xe6;" horiz-adv-x="644" d="M580 290h-294q-3 -21 -3 -44q2 -101 53 -155q30 -31 68 -32l41 3q89 16 131 95v-63q-51 -103 -165 -103q-111 0 -160 96q-21 -51 -67 -80q-26 -16 -51 -16q-88 0 -108 74q-5 18 -5 39q0 79 82 114l97 33q14 7 21 14v118q0 40 -43 53q-12 3 -24 3q-46 0 -70 -15l1 -28 q0 -7 -3 -18q-13 -55 -32 -66q-7 -4 -18 -4q-20 0 -20 25q0 41 43 83q58 56 148 56q46 0 68 -36q8 -13 11 -30q58 66 143 66q72 0 121 -65q36 -47 36 -101q0 -8 -1 -16zM512 318l-3 35q-13 70 -54 94q-15 9 -31 9q-77 0 -116 -86q-11 -24 -17 -52h221zM239 114 q-18 51 -19 99v37q-6 -2 -30 -12q-65 -30 -84 -51q-20 -22 -20 -53q0 -78 49 -98q13 -6 29 -6l19 3q32 11 54 76q1 2 2 5z" />
<glyph unicode="&#xe7;" horiz-adv-x="424" d="M341 -109l-2 -37q-10 -63 -84 -75q-19 -3 -47 -4l-52 -1v34l57 5q74 6 74 57q0 32 -40 42q-10 3 -21 3h-38v85h33v-38h28q49 0 77 -34q15 -17 15 -37zM368 110q-33 -74 -95 -105q-29 -14 -60 -14q-121 0 -169 113q-23 54 -23 122q0 103 68 179q62 67 141 67t116 -62 q15 -26 15 -52q0 -42 -32 -47q-4 -1 -8 -1q-34 0 -46 43l-3 27q0 10 2 20q4 16 15 30q-20 20 -44 22h-15q-66 0 -110 -70q-30 -50 -30 -106q0 -139 61 -195q30 -28 73 -28q87 0 144 104v-47z" />
<glyph unicode="&#xe8;" horiz-adv-x="457" d="M294 505h-33l-128 109h76zM394 290h-294l-8 -43v-1q0 -105 53 -159q31 -31 73 -31q108 0 162 84q6 8 10 17v-63q-51 -103 -165 -103q-127 0 -173 119q-21 55 -21 132q0 107 66 174q54 56 134 56t129 -71q34 -50 34 -111zM331 318q0 66 -37 108q-26 30 -63 30 q-93 0 -124 -130l-2 -8h226z" />
<glyph unicode="&#xe9;" horiz-adv-x="457" d="M294 614l-128 -109h-33l85 109h76zM394 290h-294l-8 -43v-1q0 -105 53 -159q31 -31 73 -31q108 0 162 84q6 8 10 17v-63q-51 -103 -165 -103q-127 0 -173 119q-21 55 -21 132q0 107 66 174q54 56 134 56t129 -71q34 -50 34 -111zM331 318q0 66 -37 108q-26 30 -63 30 q-93 0 -124 -130l-2 -8h226z" />
<glyph unicode="&#xea;" horiz-adv-x="457" d="M120 505l87 112h15l86 -112h-20l-70 69h-6l-69 -69h-23zM394 290h-294l-8 -43v-1q0 -105 53 -159q31 -31 73 -31q108 0 162 84q6 8 10 17v-63q-51 -103 -165 -103q-127 0 -173 119q-21 55 -21 132q0 107 66 174q54 56 134 56t129 -71q34 -50 34 -111zM331 318 q0 66 -37 108q-26 30 -63 30q-93 0 -124 -130l-2 -8h226z" />
<glyph unicode="&#xeb;" horiz-adv-x="457" d="M291 581q26 0 35 -24q3 -7 3 -14q0 -26 -24 -35q-7 -3 -14 -3q-26 0 -35 24q-3 7 -3 14q0 26 24 35q7 3 14 3zM135 581q26 0 35 -24q3 -7 3 -14q0 -26 -24 -35q-7 -3 -14 -3q-26 0 -35 24q-3 7 -3 14q0 26 24 35q7 3 14 3zM394 290h-294l-8 -43v-1q0 -105 53 -159 q31 -31 73 -31q108 0 162 84q6 8 10 17v-63q-51 -103 -165 -103q-127 0 -173 119q-21 55 -21 132q0 107 66 174q54 56 134 56t129 -71q34 -50 34 -111zM331 318q0 66 -37 108q-26 30 -63 30q-93 0 -124 -130l-2 -8h226z" />
<glyph unicode="&#xec;" horiz-adv-x="262" d="M146 523h-33l-128 109h76zM228 0h-197v18h45q17 0 24 18q2 5 2 9v331l-53 18v13l108 67v-429q0 -17 17 -25q5 -2 9 -2h45v-18z" />
<glyph unicode="&#xed;" horiz-adv-x="262" d="M210 616l-128 -109h-33l85 109h76zM228 0h-197v18h45q17 0 24 18q2 5 2 9v331l-53 18v13l108 67v-429q0 -17 17 -25q5 -2 9 -2h45v-18z" />
<glyph unicode="&#xee;" horiz-adv-x="262" d="M36 507l87 112h15l86 -112h-20l-70 69h-6l-69 -69h-23zM228 0h-197v18h45q17 0 24 18q2 5 2 9v331l-53 18v13l108 67v-429q0 -17 17 -25q5 -2 9 -2h45v-18z" />
<glyph unicode="&#xef;" horiz-adv-x="262" d="M208 583q26 0 35 -24q3 -7 3 -14q0 -26 -24 -35q-7 -3 -14 -3q-26 0 -35 24q-3 7 -3 14q0 26 24 35q7 3 14 3zM52 583q26 0 35 -24q3 -7 3 -14q0 -26 -24 -35q-7 -3 -14 -3q-26 0 -35 24q-3 7 -3 14q0 26 24 35q7 3 14 3zM228 0h-197v18h45q17 0 24 18q2 5 2 9v331 l-53 18v13l108 67v-429q0 -17 17 -25q5 -2 9 -2h45v-18z" />
<glyph unicode="&#xf0;" horiz-adv-x="452" d="M406 493h-65q16 -56 16 -127q0 -107 -32 -199q-29 -80 -104 -132q-47 -32 -89 -32q-63 3 -73 106l-1 52q3 67 23 119q24 61 81 108q45 37 83 37q34 0 57 -30l-1 45q-2 15 -16 53h-78l1 43h59q-10 33 -55 63q-33 21 -59 21q-11 0 -19 -4l-24 -11l5 26l33 10q14 4 30 4 q61 0 111 -52q27 -27 35 -57h82v-43zM267 386l-19 1q-51 -9 -99 -113q-47 -101 -47 -182q0 -37 13 -50q5 -6 12 -7h18q48 10 101 100q57 98 59 178l-2 31q-8 35 -36 42z" />
<glyph unicode="&#xf1;" horiz-adv-x="510" d="M160 508q1 43 39 67q18 11 36 11l16 -3q4 -2 33 -23q11 -8 20 -8q34 3 54 30h5l-2 -23q-9 -40 -40 -49l-15 -2q-23 1 -48 22q-15 13 -26 13q-40 -1 -62 -35h-10zM488 0h-196v18h45q16 0 23 18q2 5 2 9v321q0 45 -39 68q-19 11 -41 11q-58 0 -121 -61q-3 -4 -7 -8v-331 q0 -17 17 -25q5 -2 9 -2h44v-18h-196v18h45q18 0 24 20q1 3 1 7v331l-54 15v16l110 67v-71q62 62 129 68q7 1 13 1q118 -5 122 -75v-352q0 -17 17 -25q4 -2 8 -2h45v-18z" />
<glyph unicode="&#xf2;" horiz-adv-x="482" d="M322 505h-33l-128 109h76zM242 -9q-106 0 -158 100q-33 61 -33 140q0 114 62 184q52 57 129 57q105 0 158 -100q33 -61 33 -139q0 -117 -64 -186q-50 -56 -127 -56zM242 6q74 0 110 97q21 57 21 129q0 120 -52 183q-33 40 -79 40q-74 0 -110 -97q-22 -57 -22 -128 q0 -120 52 -184q33 -40 80 -40z" />
<glyph unicode="&#xf3;" horiz-adv-x="482" d="M322 614l-128 -109h-33l85 109h76zM242 -9q-106 0 -158 100q-33 61 -33 140q0 114 62 184q52 57 129 57q105 0 158 -100q33 -61 33 -139q0 -117 -64 -186q-50 -56 -127 -56zM242 6q74 0 110 97q21 57 21 129q0 120 -52 183q-33 40 -79 40q-74 0 -110 -97 q-22 -57 -22 -128q0 -120 52 -184q33 -40 80 -40z" />
<glyph unicode="&#xf4;" horiz-adv-x="482" d="M148 505l87 112h15l86 -112h-20l-70 69h-6l-69 -69h-23zM242 -9q-106 0 -158 100q-33 61 -33 140q0 114 62 184q52 57 129 57q105 0 158 -100q33 -61 33 -139q0 -117 -64 -186q-50 -56 -127 -56zM242 6q74 0 110 97q21 57 21 129q0 120 -52 183q-33 40 -79 40 q-74 0 -110 -97q-22 -57 -22 -128q0 -120 52 -184q33 -40 80 -40z" />
<glyph unicode="&#xf5;" horiz-adv-x="482" d="M141 506q1 43 39 67q18 11 36 11l16 -3q4 -2 33 -23q11 -8 20 -8q34 3 54 30h5l-2 -23q-9 -40 -40 -49l-15 -2q-23 1 -48 22q-15 13 -26 13q-40 -1 -62 -35h-10zM242 -9q-106 0 -158 100q-33 61 -33 140q0 114 62 184q52 57 129 57q105 0 158 -100q33 -61 33 -139 q0 -117 -64 -186q-50 -56 -127 -56zM242 6q74 0 110 97q21 57 21 129q0 120 -52 183q-33 40 -79 40q-74 0 -110 -97q-22 -57 -22 -128q0 -120 52 -184q33 -40 80 -40z" />
<glyph unicode="&#xf6;" horiz-adv-x="482" d="M319 581q26 0 35 -24q3 -7 3 -14q0 -26 -24 -35q-7 -3 -14 -3q-26 0 -35 24q-3 7 -3 14q0 26 24 35q7 3 14 3zM163 581q26 0 35 -24q3 -7 3 -14q0 -26 -24 -35q-7 -3 -14 -3q-26 0 -35 24q-3 7 -3 14q0 26 24 35q7 3 14 3zM242 -9q-106 0 -158 100q-33 61 -33 140 q0 114 62 184q52 57 129 57q105 0 158 -100q33 -61 33 -139q0 -117 -64 -186q-50 -56 -127 -56zM242 6q74 0 110 97q21 57 21 129q0 120 -52 183q-33 40 -79 40q-74 0 -110 -97q-22 -57 -22 -128q0 -120 52 -184q33 -40 80 -40z" />
<glyph unicode="&#xf7;" horiz-adv-x="364" d="M172 441q27 0 36 -25q2 -6 2 -12q0 -27 -25 -36q-6 -2 -13 -2q-26 0 -35 25q-2 6 -2 13q0 26 25 35q6 2 12 2zM172 184q27 0 36 -25q2 -6 2 -13q0 -26 -25 -35q-6 -3 -13 -3q-26 0 -35 25q-2 6 -2 13q0 26 25 35q6 3 12 3zM312 260h-279v33h279v-33z" />
<glyph unicode="&#xf8;" horiz-adv-x="515" d="M406 477l-37 -60q64 -69 64 -186q0 -115 -63 -184q-51 -56 -128 -56q-67 0 -115 42l-33 -52h-47l52 83q-49 68 -49 171q0 114 64 182q51 55 128 55q56 0 96 -28l21 33h47zM320 416q-32 39 -78 39q-74 0 -110 -93q-22 -56 -22 -127q0 -72 18 -125zM344 378l-196 -311 q36 -61 94 -61q74 0 110 96q21 57 21 128q0 87 -29 148z" />
<glyph unicode="&#xf9;" horiz-adv-x="524" d="M297 496h-33l-128 109h76zM477 65l-114 -74v74q-60 -74 -152 -74q-83 0 -113 61q-13 26 -13 61v305q0 17 -17 25q-4 2 -8 2h-45v18h126v-355q0 -65 57 -80q13 -4 28 -4q67 0 128 63q5 4 9 9v322q0 17 -17 25q-4 2 -8 2h-45v18h126v-365l58 -16v-17z" />
<glyph unicode="&#xfa;" horiz-adv-x="524" d="M309 605l-128 -109h-33l85 109h76zM477 65l-114 -74v74q-60 -74 -152 -74q-83 0 -113 61q-13 26 -13 61v305q0 17 -17 25q-4 2 -8 2h-45v18h126v-355q0 -65 57 -80q13 -4 28 -4q67 0 128 63q5 4 9 9v322q0 17 -17 25q-4 2 -8 2h-45v18h126v-365l58 -16v-17z" />
<glyph unicode="&#xfb;" horiz-adv-x="524" d="M141 496l87 112h15l86 -112h-20l-70 69h-6l-69 -69h-23zM477 65l-114 -74v74q-60 -74 -152 -74q-83 0 -113 61q-13 26 -13 61v305q0 17 -17 25q-4 2 -8 2h-45v18h126v-355q0 -65 57 -80q13 -4 28 -4q67 0 128 63q5 4 9 9v322q0 17 -17 25q-4 2 -8 2h-45v18h126v-365 l58 -16v-17z" />
<glyph unicode="&#xfc;" horiz-adv-x="524" d="M328 572q26 0 35 -24q3 -7 3 -14q0 -26 -24 -35q-7 -3 -14 -3q-26 0 -35 24q-3 7 -3 14q0 26 24 35q7 3 14 3zM172 572q26 0 35 -24q3 -7 3 -14q0 -26 -24 -35q-7 -3 -14 -3q-26 0 -35 24q-3 7 -3 14q0 26 24 35q7 3 14 3zM477 65l-114 -74v74q-60 -74 -152 -74 q-83 0 -113 61q-13 26 -13 61v305q0 17 -17 25q-4 2 -8 2h-45v18h126v-355q0 -65 57 -80q13 -4 28 -4q67 0 128 63q5 4 9 9v322q0 17 -17 25q-4 2 -8 2h-45v18h126v-365l58 -16v-17z" />
<glyph unicode="&#xfd;" horiz-adv-x="440" d="M303 605l-128 -109h-33l85 109h76zM439 445h-19q-28 0 -56 -43q-4 -7 -7 -12l-210 -443q-20 -38 -61 -38q-35 0 -44 34q-2 8 -2 15q0 31 25 42q7 3 15 3q36 0 41 -31q1 -4 1 -7q0 -23 -23 -33q21 0 35 28l2 4l40 85l-4 2l-109 370q-4 15 -24 22q-4 2 -8 2h-25v18h159v-18 h-28q-19 0 -19 -20l1 -10l90 -293l110 238q8 18 8 40q0 45 -35 45h-23v18h170v-18z" />
<glyph unicode="&#xfe;" horiz-adv-x="524" d="M476 243q0 -107 -69 -186q-57 -66 -127 -66q-74 0 -120 37v-130q0 -18 17 -25q4 -2 8 -2h45v-18h-196v18h45q16 0 23 19q2 4 2 8v625q0 17 -17 25q-4 2 -8 2h-45v18h196v-18h-45q-16 0 -23 -18q-2 -5 -2 -9v-99q49 48 120 48q141 0 179 -110q17 -48 17 -119zM406 239 q0 156 -78 202q-23 13 -51 13q-57 0 -94 -53q-23 -34 -23 -70v-215q0 -74 65 -99q24 -9 55 -9q65 0 102 91q24 62 24 140z" />
<glyph unicode="&#xff;" horiz-adv-x="440" d="M300 572q26 0 35 -24q3 -7 3 -14q0 -26 -24 -35q-7 -3 -14 -3q-26 0 -35 24q-3 7 -3 14q0 26 24 35q7 3 14 3zM144 572q26 0 35 -24q3 -7 3 -14q0 -26 -24 -35q-7 -3 -14 -3q-26 0 -35 24q-3 7 -3 14q0 26 24 35q7 3 14 3zM439 445h-19q-28 0 -56 -43q-4 -7 -7 -12 l-210 -443q-20 -38 -61 -38q-35 0 -44 34q-2 8 -2 15q0 31 25 42q7 3 15 3q36 0 41 -31q1 -4 1 -7q0 -23 -23 -33q21 0 35 28l2 4l40 85l-4 2l-109 370q-4 15 -24 22q-4 2 -8 2h-25v18h159v-18h-28q-19 0 -19 -20l1 -10l90 -293l110 238q8 18 8 40q0 45 -35 45h-23v18h170 v-18z" />
<glyph unicode="&#x100;" horiz-adv-x="732" d="M478 719h-215v45h215v-45zM684 0h-202v25h41q17 0 21 17l-1 13l-92 265h-190l-88 -215q-4 -9 -4 -21q0 -35 28 -52q10 -7 23 -7h38v-25h-221v25h35q31 0 58 44q4 7 7 14l216 526l-14 38l43 39l222 -621q9 -26 44 -37q10 -3 19 -3h17v-25zM444 342l-79 233l-96 -233h175z " />
<glyph unicode="&#x101;" horiz-adv-x="400" d="M284 506h-215v45h215v-45zM369 43q0 -26 -27 -44q-12 -8 -23 -8q-58 0 -71 44q-4 15 -5 37q-26 -50 -72 -72q-19 -9 -38 -9q-113 0 -113 113q0 72 80 113q7 4 92 38q32 13 51 25v104q0 38 -41 52q-12 4 -26 4q-45 0 -70 -15l1 -28q0 -7 -3 -18q-13 -55 -33 -66 q-7 -4 -17 -4q-20 0 -21 26l4 24q18 56 75 89q43 24 96 24q44 0 71 -30q20 -21 20 -53v-320q0 -33 25 -38q3 -1 6 -1q20 0 37 37q1 3 2 5v-29zM243 110v145q-108 -23 -149 -74q-18 -22 -18 -47q0 -81 38 -97q16 -7 50 -7q37 0 71 65z" />
<glyph unicode="&#x102;" horiz-adv-x="732" d="M474 815q-8 -63 -59 -87q-21 -9 -44 -9q-60 0 -89 51q-12 20 -15 45h24q13 -44 80 -44q59 0 79 44h24zM684 0h-202v25h41q17 0 21 17l-1 13l-92 265h-190l-88 -215q-4 -9 -4 -21q0 -35 28 -52q10 -7 23 -7h38v-25h-221v25h35q31 0 58 44q4 7 7 14l216 526l-14 38l43 39 l222 -621q9 -26 44 -37q10 -3 19 -3h17v-25zM444 342l-79 233l-96 -233h175z" />
<glyph unicode="&#x103;" horiz-adv-x="400" d="M280 602q-8 -63 -59 -87q-21 -9 -44 -9q-60 0 -89 51q-12 20 -15 45h24q13 -44 80 -44q59 0 79 44h24zM369 43q0 -26 -27 -44q-12 -8 -23 -8q-58 0 -71 44q-4 15 -5 37q-26 -50 -72 -72q-19 -9 -38 -9q-113 0 -113 113q0 72 80 113q7 4 92 38q32 13 51 25v104 q0 38 -41 52q-12 4 -26 4q-45 0 -70 -15l1 -28q0 -7 -3 -18q-13 -55 -33 -66q-7 -4 -17 -4q-20 0 -21 26l4 24q18 56 75 89q43 24 96 24q44 0 71 -30q20 -21 20 -53v-320q0 -33 25 -38q3 -1 6 -1q20 0 37 37q1 3 2 5v-29zM243 110v145q-108 -23 -149 -74q-18 -22 -18 -47 q0 -81 38 -97q16 -7 50 -7q37 0 71 65z" />
<glyph unicode="&#x104;" horiz-adv-x="732" d="M586 0h42q-38 -6 -48 -49l-2 -26v-5q5 -35 65 -45l28 -1q34 4 57 36l20 -25q-34 -55 -96 -55h-4q-62 1 -93 42q-17 21 -17 48q0 54 48 80zM684 0h-202v25h41q17 0 21 17l-1 13l-92 265h-190l-88 -215q-4 -9 -4 -21q0 -35 28 -52q10 -7 23 -7h38v-25h-221v25h35 q31 0 58 44q4 7 7 14l216 526l-14 38l43 39l222 -621q9 -26 44 -37q10 -3 19 -3h17v-25zM444 342l-79 233l-96 -233h175z" />
<glyph unicode="&#x105;" horiz-adv-x="400" d="M274 -9h42q-38 -6 -48 -49l-2 -26v-5q5 -35 65 -45l28 -1q34 4 57 36l20 -25q-34 -55 -96 -55h-4q-62 1 -93 42q-17 21 -17 48q0 54 48 80zM369 43q0 -26 -27 -44q-12 -8 -23 -8q-58 0 -71 44q-4 15 -5 37q-26 -50 -72 -72q-19 -9 -38 -9q-113 0 -113 113q0 72 80 113 q7 4 92 38q32 13 51 25v104q0 38 -41 52q-12 4 -26 4q-45 0 -70 -15l1 -28q0 -7 -3 -18q-13 -55 -33 -66q-7 -4 -17 -4q-20 0 -21 26l4 24q18 56 75 89q43 24 96 24q44 0 71 -30q20 -21 20 -53v-320q0 -33 25 -38q3 -1 6 -1q20 0 37 37q1 3 2 5v-29zM243 110v145 q-108 -23 -149 -74q-18 -22 -18 -47q0 -81 38 -97q16 -7 50 -7q37 0 71 65z" />
<glyph unicode="&#x106;" horiz-adv-x="601" d="M368 821l-128 -109h-33l85 109h76zM558 228l-43 -219h-20q0 29 -23 36q-4 1 -9 1q-25 0 -81 -26q-47 -22 -78 -22q-224 0 -257 242q-5 39 -5 83q0 139 63 239q74 117 210 117q66 0 115 -39q23 -19 33 -19q27 0 44 35q2 4 4 9h12l11 -219h-14q-28 106 -95 170 q-52 49 -113 49q-92 0 -152 -107q-54 -96 -54 -222q0 -154 59 -245q49 -74 126 -74q81 0 157 63q33 28 56 63q28 44 40 85h14z" />
<glyph unicode="&#x107;" horiz-adv-x="424" d="M251 615l-128 -109h-33l85 109h76zM368 110q-33 -74 -95 -105q-29 -14 -60 -14q-121 0 -169 113q-23 54 -23 122q0 103 68 179q62 67 141 67t116 -62q15 -26 15 -52q0 -42 -32 -47q-4 -1 -8 -1q-34 0 -46 43l-3 27q0 10 2 20q4 16 15 30q-20 20 -44 22h-15 q-66 0 -110 -70q-30 -50 -30 -106q0 -139 61 -195q30 -28 73 -28q87 0 144 104v-47z" />
<glyph unicode="&#x108;" horiz-adv-x="601" d="M194 712l87 112h15l86 -112h-20l-70 69h-6l-69 -69h-23zM558 228l-43 -219h-20q0 29 -23 36q-4 1 -9 1q-25 0 -81 -26q-47 -22 -78 -22q-224 0 -257 242q-5 39 -5 83q0 139 63 239q74 117 210 117q66 0 115 -39q23 -19 33 -19q27 0 44 35q2 4 4 9h12l11 -219h-14 q-28 106 -95 170q-52 49 -113 49q-92 0 -152 -107q-54 -96 -54 -222q0 -154 59 -245q49 -74 126 -74q81 0 157 63q33 28 56 63q28 44 40 85h14z" />
<glyph unicode="&#x109;" horiz-adv-x="424" d="M77 505l87 112h15l86 -112h-20l-70 69h-6l-69 -69h-23zM368 110q-33 -74 -95 -105q-29 -14 -60 -14q-121 0 -169 113q-23 54 -23 122q0 103 68 179q62 67 141 67t116 -62q15 -26 15 -52q0 -42 -32 -47q-4 -1 -8 -1q-34 0 -46 43l-3 27q0 10 2 20q4 16 15 30 q-20 20 -44 22h-15q-66 0 -110 -70q-30 -50 -30 -106q0 -139 61 -195q30 -28 73 -28q87 0 144 104v-47z" />
<glyph unicode="&#x10a;" horiz-adv-x="601" d="M323 747q0 -29 -27 -34h-18q-26 6 -26 34q0 29 27 35h17q27 -6 27 -35zM558 228l-43 -219h-20q0 29 -23 36q-4 1 -9 1q-25 0 -81 -26q-47 -22 -78 -22q-224 0 -257 242q-5 39 -5 83q0 139 63 239q74 117 210 117q66 0 115 -39q23 -19 33 -19q27 0 44 35q2 4 4 9h12 l11 -219h-14q-28 106 -95 170q-52 49 -113 49q-92 0 -152 -107q-54 -96 -54 -222q0 -154 59 -245q49 -74 126 -74q81 0 157 63q33 28 56 63q28 44 40 85h14z" />
<glyph unicode="&#x10b;" horiz-adv-x="424" d="M206 541q0 -29 -27 -34h-18q-26 6 -26 34q0 29 27 35h17q27 -6 27 -35zM368 110q-33 -74 -95 -105q-29 -14 -60 -14q-121 0 -169 113q-23 54 -23 122q0 103 68 179q62 67 141 67t116 -62q15 -26 15 -52q0 -42 -32 -47q-4 -1 -8 -1q-34 0 -46 43l-3 27q0 10 2 20 q4 16 15 30q-20 20 -44 22h-15q-66 0 -110 -70q-30 -50 -30 -106q0 -139 61 -195q30 -28 73 -28q87 0 144 104v-47z" />
<glyph unicode="&#x10c;" horiz-adv-x="601" d="M184 806h25l76 -58h8l76 58h23l-95 -94h-17zM558 228l-43 -219h-20q0 29 -23 36q-4 1 -9 1q-25 0 -81 -26q-47 -22 -78 -22q-224 0 -257 242q-5 39 -5 83q0 139 63 239q74 117 210 117q66 0 115 -39q23 -19 33 -19q27 0 44 35q2 4 4 9h12l11 -219h-14q-28 106 -95 170 q-52 49 -113 49q-92 0 -152 -107q-54 -96 -54 -222q0 -154 59 -245q49 -74 126 -74q81 0 157 63q33 28 56 63q28 44 40 85h14z" />
<glyph unicode="&#x10d;" horiz-adv-x="424" d="M67 600h25l76 -58h8l76 58h23l-95 -94h-17zM368 110q-33 -74 -95 -105q-29 -14 -60 -14q-121 0 -169 113q-23 54 -23 122q0 103 68 179q62 67 141 67t116 -62q15 -26 15 -52q0 -42 -32 -47q-4 -1 -8 -1q-34 0 -46 43l-3 27q0 10 2 20q4 16 15 30q-20 20 -44 22h-15 q-66 0 -110 -70q-30 -50 -30 -106q0 -139 61 -195q30 -28 73 -28q87 0 144 104v-47z" />
<glyph unicode="&#x10e;" horiz-adv-x="650" d="M217 788h25l76 -58h8l76 58h23l-95 -94h-17zM619 347q0 -127 -87 -228q-92 -108 -228 -118q-12 -1 -25 -1h-256v24h53q21 0 32 23q3 7 3 14v539q0 21 -21 33q-7 4 -14 4h-53v24h356q145 0 207 -143q33 -76 33 -171zM346 631h-143q-26 0 -35 -34q-2 -8 -2 -16v-501 q0 -33 22 -46q7 -4 15 -4h94q119 0 195 103q66 89 66 210q0 136 -71 219q-56 65 -141 69z" />
<glyph unicode="&#x10f;" horiz-adv-x="487" d="M251 807h25l76 -58h8l76 58h23l-95 -94h-17zM430 45l-79 -54v30q-49 -30 -118 -30q-117 0 -169 101q-30 57 -30 136q0 101 61 175q57 69 138 69q72 0 118 -40v163l-48 10l3 16l101 59v-604l23 -10v-21zM351 121v177q0 103 -28 131q-23 25 -90 25q-87 0 -115 -118 q-11 -44 -11 -97q0 -170 74 -216q24 -15 54 -15q92 0 112 91q2 10 4 22z" />
<glyph unicode="&#x110;" horiz-adv-x="650" d="M619 347q0 -145 -104 -245q-110 -100 -263 -102h-229v24h53q21 0 32 23q3 7 3 14v243h-79v39h79v257q0 21 -21 33q-7 4 -14 4h-53v24h329q167 0 233 -141q34 -73 34 -173zM557 359q-9 136 -79 213q-55 59 -132 59h-143q-26 0 -35 -34q-2 -8 -2 -16v-238h83v-39h-83v-224 q0 -33 22 -46q7 -4 15 -4h94q116 0 193 101q67 89 68 206q0 11 -1 22z" />
<glyph unicode="&#x111;" horiz-adv-x="487" d="M468 506h-61v-430l23 -10v-21l-79 -54v30q-47 -28 -118 -30l-38 2q-95 16 -137 117q-22 52 -24 118l3 46q14 103 86 159q49 39 110 39l39 -3q45 -8 79 -37v74h-61v42h61v47l-48 10l3 16l101 59v-132h61v-42zM351 121v177q0 103 -28 131q-23 25 -90 25q-100 -1 -121 -154 q-4 -29 -5 -61l2 -63q13 -135 84 -163q15 -5 32 -5h10q77 6 101 56q10 22 15 57z" />
<glyph unicode="&#x112;" horiz-adv-x="584" d="M383 694h-215v45h215v-45zM530 196l-52 -196h-456v24h53q21 0 32 23q3 7 3 14v539q0 21 -21 33q-7 4 -14 4h-53v24h464l44 -200h-20l-13 30q-41 94 -92 123q-32 17 -74 17h-128q-28 0 -36 -35q-2 -7 -2 -15v-205h100q46 0 79 40q20 26 20 54v18h18v-254h-18v18 q0 48 -43 80q-27 20 -56 20h-100v-272q0 -36 24 -47q6 -3 14 -3h128q105 0 161 124q3 5 5 11l13 31h20z" />
<glyph unicode="&#x113;" horiz-adv-x="457" d="M321 505h-215v45h215v-45zM394 290h-294l-8 -43v-1q0 -105 53 -159q31 -31 73 -31q108 0 162 84q6 8 10 17v-63q-51 -103 -165 -103q-127 0 -173 119q-21 55 -21 132q0 107 66 174q54 56 134 56t129 -71q34 -50 34 -111zM331 318q0 66 -37 108q-26 30 -63 30 q-93 0 -124 -130l-2 -8h226z" />
<glyph unicode="&#x114;" horiz-adv-x="584" d="M379 790q-8 -63 -59 -87q-21 -9 -44 -9q-60 0 -89 51q-12 20 -15 45h24q13 -44 80 -44q59 0 79 44h24zM530 196l-52 -196h-456v24h53q21 0 32 23q3 7 3 14v539q0 21 -21 33q-7 4 -14 4h-53v24h464l44 -200h-20l-13 30q-41 94 -92 123q-32 17 -74 17h-128q-28 0 -36 -35 q-2 -7 -2 -15v-205h100q46 0 79 40q20 26 20 54v18h18v-254h-18v18q0 48 -43 80q-27 20 -56 20h-100v-272q0 -36 24 -47q6 -3 14 -3h128q105 0 161 124q3 5 5 11l13 31h20z" />
<glyph unicode="&#x115;" horiz-adv-x="457" d="M318 601q-8 -63 -59 -87q-21 -9 -44 -9q-60 0 -89 51q-12 20 -15 45h24q13 -44 80 -44q59 0 79 44h24zM394 290h-294l-8 -43v-1q0 -105 53 -159q31 -31 73 -31q108 0 162 84q6 8 10 17v-63q-51 -103 -165 -103q-127 0 -173 119q-21 55 -21 132q0 107 66 174q54 56 134 56 t129 -71q34 -50 34 -111zM331 318q0 66 -37 108q-26 30 -63 30q-93 0 -124 -130l-2 -8h226z" />
<glyph unicode="&#x116;" horiz-adv-x="584" d="M311 729q0 -29 -27 -34h-18q-26 6 -26 34q0 29 27 35h17q27 -6 27 -35zM530 196l-52 -196h-456v24h53q21 0 32 23q3 7 3 14v539q0 21 -21 33q-7 4 -14 4h-53v24h464l44 -200h-20l-13 30q-41 94 -92 123q-32 17 -74 17h-128q-28 0 -36 -35q-2 -7 -2 -15v-205h100 q46 0 79 40q20 26 20 54v18h18v-254h-18v18q0 48 -43 80q-27 20 -56 20h-100v-272q0 -36 24 -47q6 -3 14 -3h128q105 0 161 124q3 5 5 11l13 31h20z" />
<glyph unicode="&#x117;" horiz-adv-x="457" d="M249 541q0 -29 -27 -34h-18q-26 6 -26 34q0 29 27 35h17q27 -6 27 -35zM394 290h-294l-8 -43v-1q0 -105 53 -159q31 -31 73 -31q108 0 162 84q6 8 10 17v-63q-51 -103 -165 -103q-127 0 -173 119q-21 55 -21 132q0 107 66 174q54 56 134 56t129 -71q34 -50 34 -111z M331 318q0 66 -37 108q-26 30 -63 30q-93 0 -124 -130l-2 -8h226z" />
<glyph unicode="&#x118;" horiz-adv-x="584" d="M376 0h42q-38 -6 -48 -49l-2 -26v-5q5 -35 65 -45l28 -1q34 4 57 36l20 -25q-34 -55 -96 -55h-4q-62 1 -93 42q-17 21 -17 48q0 54 48 80zM530 196l-52 -196h-456v24h53q21 0 32 23q3 7 3 14v539q0 21 -21 33q-7 4 -14 4h-53v24h464l44 -200h-20l-13 30q-41 94 -92 123 q-32 17 -74 17h-128q-28 0 -36 -35q-2 -7 -2 -15v-205h100q46 0 79 40q20 26 20 54v18h18v-254h-18v18q0 48 -43 80q-27 20 -56 20h-100v-272q0 -36 24 -47q6 -3 14 -3h128q105 0 161 124q3 5 5 11l13 31h20z" />
<glyph unicode="&#x119;" horiz-adv-x="457" d="M215 -9h42q-38 -6 -48 -49l-2 -26v-5q5 -35 65 -45l28 -1q34 4 57 36l20 -25q-34 -55 -96 -55h-4q-62 1 -93 42q-17 21 -17 48q0 54 48 80zM394 290h-294l-8 -43v-1q0 -105 53 -159q31 -31 73 -31q108 0 162 84q6 8 10 17v-63q-51 -103 -165 -103q-127 0 -173 119 q-21 55 -21 132q0 107 66 174q54 56 134 56t129 -71q34 -50 34 -111zM331 318q0 66 -37 108q-26 30 -63 30q-93 0 -124 -130l-2 -8h226z" />
<glyph unicode="&#x11a;" horiz-adv-x="584" d="M172 788h25l76 -58h8l76 58h23l-95 -94h-17zM530 196l-52 -196h-456v24h53q21 0 32 23q3 7 3 14v539q0 21 -21 33q-7 4 -14 4h-53v24h464l44 -200h-20l-13 30q-41 94 -92 123q-32 17 -74 17h-128q-28 0 -36 -35q-2 -7 -2 -15v-205h100q46 0 79 40q20 26 20 54v18h18v-254 h-18v18q0 48 -43 80q-27 20 -56 20h-100v-272q0 -36 24 -47q6 -3 14 -3h128q105 0 161 124q3 5 5 11l13 31h20z" />
<glyph unicode="&#x11b;" horiz-adv-x="457" d="M110 599h25l76 -58h8l76 58h23l-95 -94h-17zM394 290h-294l-8 -43v-1q0 -105 53 -159q31 -31 73 -31q108 0 162 84q6 8 10 17v-63q-51 -103 -165 -103q-127 0 -173 119q-21 55 -21 132q0 107 66 174q54 56 134 56t129 -71q34 -50 34 -111zM331 318q0 66 -37 108 q-26 30 -63 30q-93 0 -124 -130l-2 -8h226z" />
<glyph unicode="&#x11c;" horiz-adv-x="610" d="M194 697l87 112h15l86 -112h-20l-70 69h-6l-69 -69h-23zM591 339h-45q-27 -6 -30 -44v-227l-25 14q-71 -88 -187 -88q-126 0 -202 116q-63 95 -63 222q0 132 74 231q75 101 183 101q79 0 134 -41q13 -11 29 -25l43 60h23l13 -218h-14q-27 99 -104 159q-60 46 -129 46 q-89 0 -147 -116q-48 -95 -48 -205q0 -129 63 -220q62 -91 161 -91q88 0 141 78v204q0 44 -33 44h-31v18h194v-18z" />
<glyph unicode="&#x11d;" horiz-adv-x="457" d="M184 524l87 112h15l86 -112h-20l-70 69h-6l-69 -69h-23zM441 -39q0 -90 -82 -140q-56 -33 -128 -33q-105 0 -163 51q-38 34 -38 85q0 46 53 93q21 20 43 30q-65 22 -65 59q0 56 94 66q-63 30 -76 111q-2 14 -2 29q0 73 49 119q38 35 92 35q66 0 106 -47v32q0 30 25 39 q6 3 14 3q30 0 38 -28q2 -7 2 -14q0 -27 -26 -36q-7 -3 -15 -3q-16 0 -30 16v-21q27 -40 27 -99q0 -75 -52 -119q-36 -31 -89 -31q-12 0 -18 1q-61 -5 -70 -8q-18 -6 -18 -20q0 -25 80 -43l128 -29q119 -32 121 -98zM218 176q53 0 76 65q11 31 11 67q0 78 -37 121 q-22 24 -50 24q-51 0 -74 -72q-10 -33 -10 -71q0 -81 41 -117q19 -17 43 -17zM387 -73q0 50 -101 80l-141 35q-69 -49 -69 -118q0 -67 72 -100q38 -17 83 -17q81 0 126 48q30 30 30 72z" />
<glyph unicode="&#x11e;" horiz-adv-x="610" d="M392 793q-8 -63 -59 -87q-21 -9 -44 -9q-60 0 -89 51q-12 20 -15 45h24q13 -44 80 -44q59 0 79 44h24zM591 339h-45q-27 -6 -30 -44v-227l-25 14q-71 -88 -187 -88q-126 0 -202 116q-63 95 -63 222q0 132 74 231q75 101 183 101q79 0 134 -41q13 -11 29 -25l43 60h23 l13 -218h-14q-27 99 -104 159q-60 46 -129 46q-89 0 -147 -116q-48 -95 -48 -205q0 -129 63 -220q62 -91 161 -91q88 0 141 78v204q0 44 -33 44h-31v18h194v-18z" />
<glyph unicode="&#x11f;" horiz-adv-x="457" d="M382 621q-8 -63 -59 -87q-21 -9 -44 -9q-60 0 -89 51q-12 20 -15 45h24q13 -44 80 -44q59 0 79 44h24zM441 -39q0 -90 -82 -140q-56 -33 -128 -33q-105 0 -163 51q-38 34 -38 85q0 46 53 93q21 20 43 30q-65 22 -65 59q0 56 94 66q-63 30 -76 111q-2 14 -2 29 q0 73 49 119q38 35 92 35q66 0 106 -47v32q0 30 25 39q6 3 14 3q30 0 38 -28q2 -7 2 -14q0 -27 -26 -36q-7 -3 -15 -3q-16 0 -30 16v-21q27 -40 27 -99q0 -75 -52 -119q-36 -31 -89 -31q-12 0 -18 1q-61 -5 -70 -8q-18 -6 -18 -20q0 -25 80 -43l128 -29q119 -32 121 -98z M218 176q53 0 76 65q11 31 11 67q0 78 -37 121q-22 24 -50 24q-51 0 -74 -72q-10 -33 -10 -71q0 -81 41 -117q19 -17 43 -17zM387 -73q0 50 -101 80l-141 35q-69 -49 -69 -118q0 -67 72 -100q38 -17 83 -17q81 0 126 48q30 30 30 72z" />
<glyph unicode="&#x120;" horiz-adv-x="610" d="M324 732q0 -29 -27 -34h-18q-26 6 -26 34q0 29 27 35h17q27 -6 27 -35zM591 339h-45q-27 -6 -30 -44v-227l-25 14q-71 -88 -187 -88q-126 0 -202 116q-63 95 -63 222q0 132 74 231q75 101 183 101q79 0 134 -41q13 -11 29 -25l43 60h23l13 -218h-14q-27 99 -104 159 q-60 46 -129 46q-89 0 -147 -116q-48 -95 -48 -205q0 -129 63 -220q62 -91 161 -91q88 0 141 78v204q0 44 -33 44h-31v18h194v-18z" />
<glyph unicode="&#x121;" horiz-adv-x="457" d="M314 560q0 -29 -27 -34h-18q-26 6 -26 34q0 29 27 35h17q27 -6 27 -35zM441 -39q0 -90 -82 -140q-56 -33 -128 -33q-105 0 -163 51q-38 34 -38 85q0 46 53 93q21 20 43 30q-65 22 -65 59q0 56 94 66q-63 30 -76 111q-2 14 -2 29q0 73 49 119q38 35 92 35q66 0 106 -47v32 q0 30 25 39q6 3 14 3q30 0 38 -28q2 -7 2 -14q0 -27 -26 -36q-7 -3 -15 -3q-16 0 -30 16v-21q27 -40 27 -99q0 -75 -52 -119q-36 -31 -89 -31q-12 0 -18 1q-61 -5 -70 -8q-18 -6 -18 -20q0 -25 80 -43l128 -29q119 -32 121 -98zM218 176q53 0 76 65q11 31 11 67 q0 78 -37 121q-22 24 -50 24q-51 0 -74 -72q-10 -33 -10 -71q0 -81 41 -117q19 -17 43 -17zM387 -73q0 50 -101 80l-141 35q-69 -49 -69 -118q0 -67 72 -100q38 -17 83 -17q81 0 126 48q30 30 30 72z" />
<glyph unicode="&#x122;" horiz-adv-x="610" d="M369 -115l-2 -37q-10 -63 -84 -75q-19 -3 -47 -4l-52 -1v34l57 5q74 6 74 57q0 32 -40 42q-10 3 -21 3h-38v85h33v-38h28q49 0 77 -34q15 -17 15 -37zM591 339h-45q-27 -6 -30 -44v-227l-25 14q-71 -88 -187 -88q-126 0 -202 116q-63 95 -63 222q0 132 74 231 q75 101 183 101q79 0 134 -41q13 -11 29 -25l43 60h23l13 -218h-14q-27 99 -104 159q-60 46 -129 46q-89 0 -147 -116q-48 -95 -48 -205q0 -129 63 -220q62 -91 161 -91q88 0 141 78v204q0 44 -33 44h-31v18h194v-18z" />
<glyph unicode="&#x123;" horiz-adv-x="457" d="M370 641l-2 -37q-10 -63 -84 -75q-19 -3 -47 -4l-52 -1v34l57 5q74 6 74 57q0 32 -40 42q-10 3 -21 3h-38v85h33v-38h28q49 0 77 -34q15 -17 15 -37zM441 -39q0 -90 -82 -140q-56 -33 -128 -33q-105 0 -163 51q-38 34 -38 85q0 46 53 93q21 20 43 30q-65 22 -65 59 q0 56 94 66q-63 30 -76 111q-2 14 -2 29q0 73 49 119q38 35 92 35q66 0 106 -47v32q0 30 25 39q6 3 14 3q30 0 38 -28q2 -7 2 -14q0 -27 -26 -36q-7 -3 -15 -3q-16 0 -30 16v-21q27 -40 27 -99q0 -75 -52 -119q-36 -31 -89 -31q-12 0 -18 1q-61 -5 -70 -8q-18 -6 -18 -20 q0 -25 80 -43l128 -29q119 -32 121 -98zM218 176q53 0 76 65q11 31 11 67q0 78 -37 121q-22 24 -50 24q-51 0 -74 -72q-10 -33 -10 -71q0 -81 41 -117q19 -17 43 -17zM387 -73q0 50 -101 80l-141 35q-69 -49 -69 -118q0 -67 72 -100q38 -17 83 -17q81 0 126 48q30 30 30 72z " />
<glyph unicode="&#x124;" horiz-adv-x="695" d="M252 694l87 112h15l86 -112h-20l-70 69h-6l-69 -69h-23zM648 0h-231v24h53q21 0 32 23q3 7 3 14v275h-317v-275q0 -24 22 -34q6 -3 13 -3h52v-24h-230v24h53q21 0 32 23q3 7 3 14v539q0 21 -21 33q-7 4 -14 4h-53v24h230v-24h-52q-23 0 -32 -24q-3 -6 -3 -13v-243h317 v243q0 21 -21 33q-7 4 -14 4h-53v24h231v-24h-53q-23 0 -32 -24q-3 -6 -3 -13v-539q0 -24 22 -34q6 -3 13 -3h53v-24z" />
<glyph unicode="&#x125;" horiz-adv-x="510" d="M5 698l87 112h15l86 -112h-20l-70 69h-6l-69 -69h-23zM488 0h-196v18h45q16 0 23 18q2 5 2 9v321q0 45 -39 68q-19 11 -41 11q-57 0 -116 -59q-7 -6 -12 -12v-329q0 -19 18 -26q3 -1 7 -1h45v-18h-196v18h44q17 0 24 18q2 5 2 9v522l-55 16v15l111 67v-263q52 55 116 67 q14 3 26 3q108 0 120 -57q2 -8 2 -18v-352q0 -17 17 -25q4 -2 8 -2h45v-18z" />
<glyph unicode="&#x126;" horiz-adv-x="695" d="M648 0h-231v24h53q21 0 32 23q3 7 3 14v275h-317v-275q0 -24 22 -34q6 -3 13 -3h52v-24h-230v24h53q21 0 32 23q3 7 3 14v439h-63v34h63v66q0 21 -21 33q-7 4 -14 4h-53v24h230v-24h-52q-23 0 -32 -24q-3 -6 -3 -13v-66h317v66q0 21 -21 33q-7 4 -14 4h-53v24h231v-24 h-53q-23 0 -32 -24q-3 -6 -3 -13v-66h70v-34h-70v-439q0 -24 22 -34q6 -3 13 -3h53v-24zM505 357v143h-317v-143h317z" />
<glyph unicode="&#x127;" horiz-adv-x="510" d="M488 0h-196v18h45q16 0 23 18q2 5 2 9v321q0 43 -37 67q-19 12 -43 12q-57 -2 -115 -57q-7 -7 -13 -14v-329q0 -19 18 -26q3 -1 7 -1h45v-18h-196v18h44q17 0 24 18q2 5 2 9v455h-63v34h63v33l-55 16v15l111 67v-131h62v-34h-62v-98q49 52 116 66q14 3 26 4l42 -1 q80 -9 80 -74v-352q0 -17 17 -25q4 -2 8 -2h45v-18z" />
<glyph unicode="&#x128;" horiz-adv-x="297" d="M59 695q1 43 39 67q18 11 36 11l16 -3q4 -2 33 -23q11 -8 20 -8q34 3 54 30h5l-2 -23q-9 -40 -40 -49l-15 -2q-23 1 -48 22q-15 13 -26 13q-40 -1 -62 -35h-10zM275 0h-230v24h53q21 0 32 23q3 7 3 14v539q0 21 -21 33q-7 4 -14 4h-53v24h230v-24h-52q-23 0 -32 -24 q-3 -6 -3 -13v-539q0 -24 22 -34q6 -3 13 -3h52v-24z" />
<glyph unicode="&#x129;" horiz-adv-x="262" d="M2 508q1 43 39 67q18 11 36 11l16 -3q4 -2 33 -23q11 -8 20 -8q34 3 54 30h5l-2 -23q-9 -40 -40 -49l-15 -2q-23 1 -48 22q-15 13 -26 13q-40 -1 -62 -35h-10zM228 0h-197v18h45q17 0 24 18q2 5 2 9v331l-53 18v13l108 67v-429q0 -17 17 -25q5 -2 9 -2h45v-18z" />
<glyph unicode="&#x12a;" horiz-adv-x="297" d="M267 694h-215v45h215v-45zM275 0h-230v24h53q21 0 32 23q3 7 3 14v539q0 21 -21 33q-7 4 -14 4h-53v24h230v-24h-52q-23 0 -32 -24q-3 -6 -3 -13v-539q0 -24 22 -34q6 -3 13 -3h52v-24z" />
<glyph unicode="&#x12b;" horiz-adv-x="262" d="M211 507h-215v45h215v-45zM228 0h-197v18h45q17 0 24 18q2 5 2 9v331l-53 18v13l108 67v-429q0 -17 17 -25q5 -2 9 -2h45v-18z" />
<glyph unicode="&#x12c;" horiz-adv-x="297" d="M264 790q-8 -63 -59 -87q-21 -9 -44 -9q-60 0 -89 51q-12 20 -15 45h24q13 -44 80 -44q59 0 79 44h24zM275 0h-230v24h53q21 0 32 23q3 7 3 14v539q0 21 -21 33q-7 4 -14 4h-53v24h230v-24h-52q-23 0 -32 -24q-3 -6 -3 -13v-539q0 -24 22 -34q6 -3 13 -3h52v-24z" />
<glyph unicode="&#x12d;" horiz-adv-x="262" d="M207 603q-8 -63 -59 -87q-21 -9 -44 -9q-60 0 -89 51q-12 20 -15 45h24q13 -44 80 -44q59 0 79 44h24zM228 0h-197v18h45q17 0 24 18q2 5 2 9v331l-53 18v13l108 67v-429q0 -17 17 -25q5 -2 9 -2h45v-18z" />
<glyph unicode="&#x12e;" horiz-adv-x="297" d="M103 0h42q-38 -6 -48 -49l-2 -26v-5q5 -35 65 -45l28 -1q34 4 57 36l20 -25q-34 -55 -96 -55h-4q-62 1 -93 42q-17 21 -17 48q0 54 48 80zM275 0h-230v24h53q21 0 32 23q3 7 3 14v539q0 21 -21 33q-7 4 -14 4h-53v24h230v-24h-52q-23 0 -32 -24q-3 -6 -3 -13v-539 q0 -24 22 -34q6 -3 13 -3h52v-24z" />
<glyph unicode="&#x12f;" horiz-adv-x="262" d="M73 0h42q-38 -6 -48 -49l-2 -26v-5q5 -35 65 -45l28 -1q34 4 57 36l20 -25q-34 -55 -96 -55h-4q-62 1 -93 42q-17 21 -17 48q0 54 48 80zM128 622q26 0 36 -24q2 -7 2 -14q0 -26 -23 -35q-7 -3 -15 -3q-25 0 -35 24q-3 7 -3 14q0 26 24 35q7 3 14 3zM228 0h-197v18h45 q17 0 24 18q2 5 2 9v331l-53 18v13l108 67v-429q0 -17 17 -25q5 -2 9 -2h45v-18z" />
<glyph unicode="&#x130;" horiz-adv-x="297" d="M195 729q0 -29 -27 -34h-18q-26 6 -26 34q0 29 27 35h17q27 -6 27 -35zM275 0h-230v24h53q21 0 32 23q3 7 3 14v539q0 21 -21 33q-7 4 -14 4h-53v24h230v-24h-52q-23 0 -32 -24q-3 -6 -3 -13v-539q0 -24 22 -34q6 -3 13 -3h52v-24z" />
<glyph unicode="&#x131;" horiz-adv-x="262" d="M228 0h-197v18h45q17 0 24 18q2 5 2 9v331l-53 18v13l108 67v-429q0 -17 17 -25q5 -2 9 -2h45v-18z" />
<glyph unicode="&#x132;" horiz-adv-x="624" d="M620 637h-53q-23 0 -32 -24q-3 -6 -3 -13v-467q0 -159 -69 -215q-30 -24 -72 -24q-73 0 -80 58q-1 6 -1 12q0 30 25 44q8 5 18 5q29 0 40 -28q3 -8 3 -15q0 -41 -36 -50q11 -9 42 -9q37 0 61 75q14 45 14 85v529q0 21 -21 33q-7 4 -14 4h-53v24h231v-24zM275 0h-230v24 h53q21 0 32 23q3 7 3 14v539q0 21 -21 33q-7 4 -14 4h-53v24h230v-24h-52q-23 0 -32 -24q-3 -6 -3 -13v-539q0 -24 22 -34q6 -3 13 -3h52v-24z" />
<glyph unicode="&#x133;" horiz-adv-x="549" d="M401 622q26 0 35 -24q3 -7 3 -14q0 -26 -24 -35q-7 -3 -14 -3q-26 0 -35 24q-3 7 -3 14q0 26 24 35q7 3 14 3zM435 -35q0 -57 -45 -91q-26 -20 -57 -20q-52 0 -59 39q-1 4 -1 8q0 29 23 39q6 3 13 3q30 0 38 -26q1 -5 1 -10q0 -25 -26 -39q13 0 27 7q30 16 30 56v466 l-40 13v7l96 57v-509zM128 622q26 0 36 -24q2 -7 2 -14q0 -26 -23 -35q-7 -3 -15 -3q-25 0 -35 24q-3 7 -3 14q0 26 24 35q7 3 14 3zM228 0h-197v18h45q17 0 24 18q2 5 2 9v331l-53 18v13l108 67v-429q0 -17 17 -25q5 -2 9 -2h45v-18z" />
<glyph unicode="&#x134;" horiz-adv-x="327" d="M113 694l87 112h15l86 -112h-20l-70 69h-6l-69 -69h-23zM323 637h-53q-23 0 -32 -24q-3 -6 -3 -13v-467q0 -159 -69 -215q-30 -24 -72 -24q-73 0 -80 58q-1 6 -1 12q0 30 25 44q8 5 18 5q29 0 40 -28q3 -8 3 -15q0 -41 -36 -50q11 -9 42 -9q37 0 61 75q14 45 14 85v529 q0 21 -21 33q-7 4 -14 4h-53v24h231v-24z" />
<glyph unicode="&#x135;" horiz-adv-x="287" d="M31 507l87 112h15l86 -112h-20l-70 69h-6l-69 -69h-23zM173 -35q0 -58 -47 -92q-26 -18 -55 -19l-24 3q-35 9 -35 43l3 18q10 24 36 25l16 -3q20 -8 20 -29l-3 -16q-3 -7 -8 -12q-10 -12 -16 -15q13 0 27 7q30 16 30 56v466l-40 13v7l96 57v-509z" />
<glyph unicode="&#x136;" horiz-adv-x="662" d="M291 -109l-2 -37q-10 -63 -84 -75q-19 -3 -47 -4l-52 -1v34l57 5q74 6 74 57q0 32 -40 42q-10 3 -21 3h-38v85h33v-38h28q49 0 77 -34q15 -17 15 -37zM619 0h-195v25h30q15 0 15 13l-4 17q-2 5 -5 10l-198 295l-80 -80v-219q0 -24 21 -34q6 -3 13 -3h53v-24h-230v24h52 q22 0 33 23q3 7 3 14v539q0 22 -21 33q-8 4 -15 4h-52v24h230v-24h-53q-22 0 -31 -24q-3 -6 -3 -13v-292l196 206q42 45 46 83l-2 16q-8 23 -49 23h-19v25h242v-25q-95 -21 -209 -141l-84 -93l227 -339q14 -21 38 -34q8 -4 14 -4h37v-25z" />
<glyph unicode="&#x137;" horiz-adv-x="526" d="M263 -109l-2 -37q-10 -63 -84 -75q-19 -3 -47 -4l-52 -1v34l57 5q74 6 74 57q0 32 -40 42q-10 3 -21 3h-38v85h33v-38h28q49 0 77 -34q15 -17 15 -37zM496 0h-205v18h45q9 0 9 6l-5 14l-131 216l-55 -50v-159q0 -19 18 -26q3 -1 7 -1h45v-18h-196v18h44q17 0 24 18 q2 5 2 9v527l-55 15v16l111 67v-453l130 123q30 29 32 68l-3 18q-7 21 -33 21h-29v16h225v-16q-62 -8 -119 -58l-101 -92l161 -259q5 -14 26 -19q4 -1 7 -1h46v-18z" />
<glyph unicode="&#x138;" horiz-adv-x="526" d="M496 0l-78 -1q-57 4 -78 39l-131 216l-55 -50v-159q0 -19 18 -26q3 -1 7 -1h45v-18h-196v18h44q17 0 24 18q2 5 2 9v372q0 17 -17 25q-5 2 -9 2h-44v18h196v-18h-45q-18 0 -24 -20q-1 -3 -1 -7v-200l130 123q30 29 32 68l-3 18q-7 21 -33 21h-29v16h225v-16 q-64 -8 -119 -58l-101 -92l161 -259q5 -14 26 -19q4 -1 7 -1h46v-18z" />
<glyph unicode="&#x139;" horiz-adv-x="567" d="M224 803l-128 -109h-33l85 109h76zM533 179l-50 -179h-455v24h53q33 5 36 52v524q0 22 -22 33q-7 4 -14 4h-53v24h231v-24h-53q-22 0 -31 -24q-3 -6 -3 -13v-527q0 -36 24 -47q6 -3 14 -3h120q79 0 141 71q34 39 47 85h15z" />
<glyph unicode="&#x13a;" horiz-adv-x="262" d="M182 812l-128 -109h-33l85 109h76zM227 0h-196v18h45q16 0 23 19q2 4 2 8v527l-55 15v16l111 67v-625q0 -18 17 -25q4 -2 8 -2h45v-18z" />
<glyph unicode="&#x13b;" horiz-adv-x="567" d="M417 -109l-2 -37q-10 -63 -84 -75q-19 -3 -47 -4l-52 -1v34l57 5q74 6 74 57q0 32 -40 42q-10 3 -21 3h-38v85h33v-38h28q49 0 77 -34q15 -17 15 -37zM533 179l-50 -179h-455v24h53q33 5 36 52v524q0 22 -22 33q-7 4 -14 4h-53v24h231v-24h-53q-22 0 -31 -24 q-3 -6 -3 -13v-527q0 -36 24 -47q6 -3 14 -3h120q79 0 141 71q34 39 47 85h15z" />
<glyph unicode="&#x13c;" horiz-adv-x="262" d="M266 -109l-2 -37q-10 -63 -84 -75q-19 -3 -47 -4l-52 -1v34l57 5q74 6 74 57q0 32 -40 42q-10 3 -21 3h-38v85h33v-38h28q49 0 77 -34q15 -17 15 -37zM227 0h-196v18h45q16 0 23 19q2 4 2 8v527l-55 15v16l111 67v-625q0 -18 17 -25q4 -2 8 -2h45v-18z" />
<glyph unicode="&#x13d;" horiz-adv-x="567" d="M39 788h25l76 -58h8l76 58h23l-95 -94h-17zM533 179l-50 -179h-455v24h53q33 5 36 52v524q0 22 -22 33q-7 4 -14 4h-53v24h231v-24h-53q-22 0 -31 -24q-3 -6 -3 -13v-527q0 -36 24 -47q6 -3 14 -3h120q79 0 141 71q34 39 47 85h15z" />
<glyph unicode="&#x13e;" horiz-adv-x="262" d="M-2 797h25l76 -58h8l76 58h23l-95 -94h-17zM227 0h-196v18h45q16 0 23 19q2 4 2 8v527l-55 15v16l111 67v-625q0 -18 17 -25q4 -2 8 -2h45v-18z" />
<glyph unicode="&#x13f;" horiz-adv-x="567" d="M310 375q25 -16 25 -43l-4 -20q-11 -31 -42 -36h-20q-9 3 -19 9q-24 16 -24 43l3 21q13 32 43 36l20 -1q9 -3 18 -9zM533 179l-50 -179h-455v24h53q33 5 36 52v524q0 22 -22 33q-7 4 -14 4h-53v24h231v-24h-53q-22 0 -31 -24q-3 -6 -3 -13v-527q0 -36 24 -47q6 -3 14 -3 h120q79 0 141 71q34 39 47 85h15z" />
<glyph unicode="&#x140;" horiz-adv-x="362" d="M296 379q25 -16 25 -43l-4 -20q-11 -31 -42 -36h-20q-9 3 -19 9q-24 16 -24 43l3 21q13 32 43 36l20 -1q9 -3 18 -9zM227 0h-196v18h45q16 0 23 19q2 4 2 8v527l-55 15v16l111 67v-625q0 -18 17 -25q4 -2 8 -2h45v-18z" />
<glyph unicode="&#x141;" horiz-adv-x="567" d="M533 179l-50 -179h-455v24h53q33 5 36 52v353l-72 -18v37l72 18v134q0 22 -22 33q-7 4 -14 4h-53v24h231v-24h-53q-22 0 -31 -24q-3 -6 -3 -13v-121l72 16v-37l-72 -16v-369q0 -36 24 -47q6 -3 14 -3h120q79 0 141 71q34 39 47 85h15z" />
<glyph unicode="&#x142;" horiz-adv-x="262" d="M228 464l-71 -19v-400q0 -18 17 -25q4 -2 8 -2h45v-18h-196v18h45q16 0 23 19q2 4 2 8v384l-70 -18v37l70 18v106l-55 15v16l111 67v-188l71 19v-37z" />
<glyph unicode="&#x143;" horiz-adv-x="730" d="M471 803l-128 -109h-33l85 109h76zM713 636h-48q-42 0 -59 -54q-6 -19 -6 -38v-544h-36l-388 598v-481q0 -45 28 -75q16 -17 37 -17h38v-25h-236v25h49q39 0 58 52q7 21 7 40v483q0 22 -22 33q-7 4 -14 4h-52v24h128l383 -581v464q0 52 -29 79q-15 13 -35 13h-38v25h235 v-25z" />
<glyph unicode="&#x144;" horiz-adv-x="510" d="M311 616l-128 -109h-33l85 109h76zM488 0h-196v18h45q16 0 23 18q2 5 2 9v321q0 45 -39 68q-19 11 -41 11q-58 0 -121 -61q-3 -4 -7 -8v-331q0 -17 17 -25q5 -2 9 -2h44v-18h-196v18h45q18 0 24 20q1 3 1 7v331l-54 15v16l110 67v-71q62 62 129 68q7 1 13 1 q118 -5 122 -75v-352q0 -17 17 -25q4 -2 8 -2h45v-18z" />
<glyph unicode="&#x145;" horiz-adv-x="730" d="M303 -109l-2 -37q-10 -63 -84 -75q-19 -3 -47 -4l-52 -1v34l57 5q74 6 74 57q0 32 -40 42q-10 3 -21 3h-38v85h33v-38h28q49 0 77 -34q15 -17 15 -37zM713 636h-48q-42 0 -59 -54q-6 -19 -6 -38v-544h-36l-388 598v-481q0 -45 28 -75q16 -17 37 -17h38v-25h-236v25h49 q39 0 58 52q7 21 7 40v483q0 22 -22 33q-7 4 -14 4h-52v24h128l383 -581v464q0 52 -29 79q-15 13 -35 13h-38v25h235v-25z" />
<glyph unicode="&#x146;" horiz-adv-x="510" d="M263 -109l-2 -37q-10 -63 -84 -75q-19 -3 -47 -4l-52 -1v34l57 5q74 6 74 57q0 32 -40 42q-10 3 -21 3h-38v85h33v-38h28q49 0 77 -34q15 -17 15 -37zM488 0h-196v18h45q16 0 23 18q2 5 2 9v321q0 45 -39 68q-19 11 -41 11q-58 0 -121 -61q-3 -4 -7 -8v-331q0 -17 17 -25 q5 -2 9 -2h44v-18h-196v18h45q18 0 24 20q1 3 1 7v331l-54 15v16l110 67v-71q62 62 129 68q7 1 13 1q118 -5 122 -75v-352q0 -17 17 -25q4 -2 8 -2h45v-18z" />
<glyph unicode="&#x147;" horiz-adv-x="730" d="M287 788h25l76 -58h8l76 58h23l-95 -94h-17zM713 636h-48q-42 0 -59 -54q-6 -19 -6 -38v-544h-36l-388 598v-481q0 -45 28 -75q16 -17 37 -17h38v-25h-236v25h49q39 0 58 52q7 21 7 40v483q0 22 -22 33q-7 4 -14 4h-52v24h128l383 -581v464q0 52 -29 79q-15 13 -35 13 h-38v25h235v-25z" />
<glyph unicode="&#x148;" horiz-adv-x="510" d="M127 601h25l76 -58h8l76 58h23l-95 -94h-17zM488 0h-196v18h45q16 0 23 18q2 5 2 9v321q0 45 -39 68q-19 11 -41 11q-58 0 -121 -61q-3 -4 -7 -8v-331q0 -17 17 -25q5 -2 9 -2h44v-18h-196v18h45q18 0 24 20q1 3 1 7v331l-54 15v16l110 67v-71q62 62 129 68q7 1 13 1 q118 -5 122 -75v-352q0 -17 17 -25q4 -2 8 -2h45v-18z" />
<glyph unicode="&#x149;" horiz-adv-x="510" d="M488 0h-196v18h45q16 0 23 18q2 5 2 9v321q0 43 -37 67q-19 12 -43 12q-59 -2 -119 -60q-5 -4 -9 -9v-331q0 -17 17 -25q5 -2 9 -2h44v-18h-196v18h45q18 0 24 20q1 3 1 7v331l-54 15v16l110 67v-71q55 55 125 67q8 2 17 2l42 -1q80 -9 80 -74v-352q0 -17 17 -25 q4 -2 8 -2h45v-18zM349 611q-7 -18 -16 -30q-17 -22 -40 -35q-17 -8 -31 -11l-11 13q12 4 22 12q13 10 16 23v14l-2 4q-20 12 -20 38q0 18 11 31q13 15 38 15q34 -2 41 -35v-20q-2 -11 -8 -19z" />
<glyph unicode="&#x14a;" horiz-adv-x="730" d="M723 636h-53q-23 0 -32 -24q-3 -6 -3 -13v-467q0 -113 -45 -182q-36 -57 -96 -57q-51 0 -79 37q-14 19 -14 45q1 35 31 52q11 6 24 6h4q34 -3 46 -36q2 -7 3 -15l-1 -21q-9 -35 -45 -42q21 -10 32 -10q5 0 10 1q30 6 52 49q9 17 11 34l-392 605v-481q0 -45 28 -75 q16 -17 37 -17h38v-25h-236v25h49q37 0 57 51q8 21 8 41v483q0 22 -22 33q-7 4 -14 4h-52v24h130l381 -580v518q0 22 -21 33q-7 4 -14 4h-53v24h231v-24z" />
<glyph unicode="&#x14b;" horiz-adv-x="510" d="M418 -35q0 -58 -47 -92q-26 -18 -55 -19l-24 3q-35 9 -35 43l3 18q10 24 36 25l16 -3q20 -8 20 -29l-3 -16q-3 -7 -8 -12q-11 -12 -16 -15q13 0 27 7q30 16 30 56v435q0 43 -37 67q-19 12 -43 12q-59 -2 -119 -60q-5 -4 -9 -9v-331q0 -17 17 -25q5 -2 9 -2h44v-18h-196 v18h45q18 0 24 20q1 3 1 7v331l-54 15v16l110 67v-71q55 55 125 67q8 2 17 2l42 -1q80 -9 80 -74v-432z" />
<glyph unicode="&#x14c;" horiz-adv-x="710" d="M466 704h-215v45h215v-45zM359 -21q-153 0 -238 128q-64 96 -64 222q0 145 81 242q84 100 220 100q154 0 239 -123q63 -92 63 -217q0 -152 -81 -252q-83 -100 -220 -100zM358 0q125 0 192 123q47 87 47 204q0 141 -69 234q-65 89 -169 89q-125 0 -191 -122 q-48 -87 -48 -203q0 -147 71 -240q65 -85 167 -85z" />
<glyph unicode="&#x14d;" horiz-adv-x="482" d="M349 505h-215v45h215v-45zM242 -9q-106 0 -158 100q-33 61 -33 140q0 114 62 184q52 57 129 57q105 0 158 -100q33 -61 33 -139q0 -117 -64 -186q-50 -56 -127 -56zM242 6q74 0 110 97q21 57 21 129q0 120 -52 183q-33 40 -79 40q-74 0 -110 -97q-22 -57 -22 -128 q0 -120 52 -184q33 -40 80 -40z" />
<glyph unicode="&#x14e;" horiz-adv-x="710" d="M462 800q-8 -63 -59 -87q-21 -9 -44 -9q-60 0 -89 51q-12 20 -15 45h24q13 -44 80 -44q59 0 79 44h24zM359 -21q-153 0 -238 128q-64 96 -64 222q0 145 81 242q84 100 220 100q154 0 239 -123q63 -92 63 -217q0 -152 -81 -252q-83 -100 -220 -100zM358 0q125 0 192 123 q47 87 47 204q0 141 -69 234q-65 89 -169 89q-125 0 -191 -122q-48 -87 -48 -203q0 -147 71 -240q65 -85 167 -85z" />
<glyph unicode="&#x14f;" horiz-adv-x="482" d="M346 601q-8 -63 -59 -87q-21 -9 -44 -9q-60 0 -89 51q-12 20 -15 45h24q13 -44 80 -44q59 0 79 44h24zM242 -9q-106 0 -158 100q-33 61 -33 140q0 114 62 184q52 57 129 57q105 0 158 -100q33 -61 33 -139q0 -117 -64 -186q-50 -56 -127 -56zM242 6q74 0 110 97 q21 57 21 129q0 120 -52 183q-33 40 -79 40q-74 0 -110 -97q-22 -57 -22 -128q0 -120 52 -184q33 -40 80 -40z" />
<glyph unicode="&#x150;" horiz-adv-x="710" d="M368 813l-128 -109h-33l85 109h76zM510 813l-128 -109h-33l85 109h76zM359 -21q-153 0 -238 128q-64 96 -64 222q0 145 81 242q84 100 220 100q154 0 239 -123q63 -92 63 -217q0 -152 -81 -252q-83 -100 -220 -100zM358 0q125 0 192 123q47 87 47 204q0 141 -69 234 q-65 89 -169 89q-125 0 -191 -122q-48 -87 -48 -203q0 -147 71 -240q65 -85 167 -85z" />
<glyph unicode="&#x151;" horiz-adv-x="482" d="M251 614l-128 -109h-33l85 109h76zM393 614l-128 -109h-33l85 109h76zM242 -9q-106 0 -158 100q-33 61 -33 140q0 114 62 184q52 57 129 57q105 0 158 -100q33 -61 33 -139q0 -117 -64 -186q-50 -56 -127 -56zM242 6q74 0 110 97q21 57 21 129q0 120 -52 183 q-33 40 -79 40q-74 0 -110 -97q-22 -57 -22 -128q0 -120 52 -184q33 -40 80 -40z" />
<glyph unicode="&#x152;" horiz-adv-x="1006" d="M942 196l-53 -196l-480 -2h-22q-172 0 -264 122q-67 90 -67 209q-1 61 19 118q43 128 161 183q67 31 151 31h511l44 -200h-20l-14 30q-39 85 -77 113q-35 27 -88 27h-128q-30 0 -35 -39q-1 -5 -1 -11v-205h98q46 0 78 41q20 25 20 53v18h22v-254h-22v18q0 47 -42 79 q-27 21 -56 21h-98v-280q1 -28 24 -39q6 -3 14 -3h126q89 0 140 86q12 20 25 49l14 31h20zM526 87v485q-50 66 -122 73q-7 1 -14 1q-135 0 -212 -117q-58 -90 -59 -209q0 -139 79 -225q72 -80 189 -80q19 0 57 9q47 17 82 63z" />
<glyph unicode="&#x153;" horiz-adv-x="798" d="M746 290h-306q-2 -28 -2 -44q1 -98 51 -153q30 -33 69 -34l42 3q88 15 130 95v-63q-51 -103 -165 -103q-116 0 -163 103q-52 -103 -160 -103q-106 0 -159 101q-32 61 -32 139q0 60 20 113q38 101 127 123q21 5 44 5q104 0 157 -97q4 -7 7 -14q57 111 169 111 q62 0 120 -60q51 -54 52 -110q0 -6 -1 -12zM678 318q0 59 -37 104q-28 34 -66 34q-83 0 -119 -101q-7 -17 -11 -37h233zM242 6q74 0 110 96q21 57 21 128q0 65 -18 119q-31 96 -100 105q-6 1 -13 1q-74 0 -111 -96q-21 -57 -21 -128q0 -65 18 -119q32 -96 101 -105 q6 -1 13 -1z" />
<glyph unicode="&#x154;" horiz-adv-x="627" d="M326 803l-128 -109h-33l85 109h76zM601 0h-64q-50 0 -80 49q-2 4 -5 8l-176 310h-107v-306q0 -24 22 -34q6 -3 13 -3h52v-24h-230v24h53q21 0 32 23q3 7 3 14v538q0 23 -21 34q-7 4 -14 4h-53v24h293q78 0 121 -56q27 -36 27 -83q0 -78 -61 -124q-32 -24 -72 -29 l173 -297q16 -26 51 -46q17 -10 30 -10h13v-16zM284 631h-115v-239h114q78 0 109 70q13 29 13 66q0 61 -59 89q-28 14 -62 14z" />
<glyph unicode="&#x155;" horiz-adv-x="345" d="M262 614l-128 -109h-33l85 109h76zM311 438q0 -30 -32 -40q-9 -3 -19 -3q-42 0 -45 27q0 3 3 6q-34 -7 -70 -51v-332q0 -17 17 -25q4 -2 8 -2h45v-18h-196v18h45q16 0 23 18q2 5 2 9v345l-40 16v6l96 57v-67q47 52 83 64q17 6 34 6q36 0 45 -24q1 -5 1 -10z" />
<glyph unicode="&#x156;" horiz-adv-x="627" d="M450 -109l-2 -37q-10 -63 -84 -75q-19 -3 -47 -4l-52 -1v34l57 5q74 6 74 57q0 32 -40 42q-10 3 -21 3h-38v85h33v-38h28q49 0 77 -34q15 -17 15 -37zM601 0h-64q-50 0 -80 49q-2 4 -5 8l-176 310h-107v-306q0 -24 22 -34q6 -3 13 -3h52v-24h-230v24h53q21 0 32 23 q3 7 3 14v538q0 23 -21 34q-7 4 -14 4h-53v24h293q78 0 121 -56q27 -36 27 -83q0 -78 -61 -124q-32 -24 -72 -29l173 -297q16 -26 51 -46q17 -10 30 -10h13v-16zM284 631h-115v-239h114q78 0 109 70q13 29 13 66q0 61 -59 89q-28 14 -62 14z" />
<glyph unicode="&#x157;" horiz-adv-x="345" d="M304 -109l-2 -37q-10 -63 -84 -75q-19 -3 -47 -4l-52 -1v34l57 5q74 6 74 57q0 32 -40 42q-10 3 -21 3h-38v85h33v-38h28q49 0 77 -34q15 -17 15 -37zM311 438q0 -30 -32 -40q-9 -3 -19 -3q-42 0 -45 27q0 3 3 6q-34 -7 -70 -51v-332q0 -17 17 -25q4 -2 8 -2h45v-18h-196 v18h45q16 0 23 18q2 5 2 9v345l-40 16v6l96 57v-67q47 52 83 64q17 6 34 6q36 0 45 -24q1 -5 1 -10z" />
<glyph unicode="&#x158;" horiz-adv-x="627" d="M142 788h25l76 -58h8l76 58h23l-95 -94h-17zM601 0h-64q-50 0 -80 49q-2 4 -5 8l-176 310h-107v-306q0 -24 22 -34q6 -3 13 -3h52v-24h-230v24h53q21 0 32 23q3 7 3 14v538q0 23 -21 34q-7 4 -14 4h-53v24h293q78 0 121 -56q27 -36 27 -83q0 -78 -61 -124 q-32 -24 -72 -29l173 -297q16 -26 51 -46q17 -10 30 -10h13v-16zM284 631h-115v-239h114q78 0 109 70q13 29 13 66q0 61 -59 89q-28 14 -62 14z" />
<glyph unicode="&#x159;" horiz-adv-x="345" d="M77 599h25l76 -58h8l76 58h23l-95 -94h-17zM311 438q0 -30 -32 -40q-9 -3 -19 -3q-42 0 -45 27q0 3 3 6q-34 -7 -70 -51v-332q0 -17 17 -25q4 -2 8 -2h45v-18h-196v18h45q16 0 23 18q2 5 2 9v345l-40 16v6l96 57v-67q47 52 83 64q17 6 34 6q36 0 45 -24q1 -5 1 -10z" />
<glyph unicode="&#x15a;" horiz-adv-x="502" d="M331 816l-128 -109h-33l85 109h76zM466 174q0 -76 -55 -130q-56 -54 -148 -54q-48 0 -97 31q-30 19 -46 19q-15 0 -48 -42h-11l-11 217h14q32 -116 104 -171q43 -32 93 -32q79 0 124 46q30 30 30 73q0 96 -98 150q-25 14 -129 54q-98 38 -129 80q-24 32 -24 75 q0 84 70 140q55 44 126 44q65 0 102 -29q22 -18 40 -18q16 0 45 39q2 2 3 4h11l12 -218h-14q-29 111 -98 168q-46 37 -99 37q-65 0 -109 -51q-30 -36 -30 -81q0 -73 89 -122q16 -9 121 -54t138 -95q24 -35 24 -80z" />
<glyph unicode="&#x15b;" horiz-adv-x="385" d="M268 614l-128 -109h-33l85 109h76zM332 119q0 -70 -61 -107q-35 -21 -78 -21q-47 0 -132 35v110h3q8 -59 58 -99q36 -28 78 -28q48 0 72 45q11 22 11 46q0 45 -63 79l-97 50q-79 46 -79 118q0 67 61 103q36 22 81 22q52 0 122 -32v-110h-2q-14 76 -63 107q-23 15 -50 15 q-60 0 -87 -35q-11 -15 -11 -34q0 -53 64 -91l99 -53q74 -47 74 -120z" />
<glyph unicode="&#x15c;" horiz-adv-x="502" d="M156 707l87 112h15l86 -112h-20l-70 69h-6l-69 -69h-23zM466 174q0 -76 -55 -130q-56 -54 -148 -54q-48 0 -97 31q-30 19 -46 19q-15 0 -48 -42h-11l-11 217h14q32 -116 104 -171q43 -32 93 -32q79 0 124 46q30 30 30 73q0 96 -98 150q-25 14 -129 54q-98 38 -129 80 q-24 32 -24 75q0 84 70 140q55 44 126 44q65 0 102 -29q22 -18 40 -18q16 0 45 39q2 2 3 4h11l12 -218h-14q-29 111 -98 168q-46 37 -99 37q-65 0 -109 -51q-30 -36 -30 -81q0 -73 89 -122q16 -9 121 -54t138 -95q24 -35 24 -80z" />
<glyph unicode="&#x15d;" horiz-adv-x="385" d="M94 505l87 112h15l86 -112h-20l-70 69h-6l-69 -69h-23zM332 119q0 -70 -61 -107q-35 -21 -78 -21q-47 0 -132 35v110h3q8 -59 58 -99q36 -28 78 -28q48 0 72 45q11 22 11 46q0 45 -63 79l-97 50q-79 46 -79 118q0 67 61 103q36 22 81 22q52 0 122 -32v-110h-2 q-14 76 -63 107q-23 15 -50 15q-60 0 -87 -35q-11 -15 -11 -34q0 -53 64 -91l99 -53q74 -47 74 -120z" />
<glyph unicode="&#x15e;" horiz-adv-x="502" d="M387 -119l-2 -37q-10 -63 -84 -75q-19 -3 -47 -4l-52 -1v34l57 5q74 6 74 57q0 32 -40 42q-10 3 -21 3h-38v85h33v-38h28q49 0 77 -34q15 -17 15 -37zM466 174q0 -76 -55 -130q-56 -54 -148 -54q-48 0 -97 31q-30 19 -46 19q-15 0 -48 -42h-11l-11 217h14 q32 -116 104 -171q43 -32 93 -32q79 0 124 46q30 30 30 73q0 96 -98 150q-25 14 -129 54q-98 38 -129 80q-24 32 -24 75q0 84 70 140q55 44 126 44q65 0 102 -29q22 -18 40 -18q16 0 45 39q2 2 3 4h11l12 -218h-14q-29 111 -98 168q-46 37 -99 37q-65 0 -109 -51 q-30 -36 -30 -81q0 -73 89 -122q16 -9 121 -54t138 -95q24 -35 24 -80z" />
<glyph unicode="&#x15f;" horiz-adv-x="385" d="M325 -118l-2 -37q-10 -63 -84 -75q-19 -3 -47 -4l-52 -1v34l57 5q74 6 74 57q0 32 -40 42q-10 3 -21 3h-38v85h33v-38h28q49 0 77 -34q15 -17 15 -37zM332 119q0 -70 -61 -107q-35 -21 -78 -21q-47 0 -132 35v110h3q8 -59 58 -99q36 -28 78 -28q48 0 72 45q11 22 11 46 q0 45 -63 79l-97 50q-79 46 -79 118q0 67 61 103q36 22 81 22q52 0 122 -32v-110h-2q-14 76 -63 107q-23 15 -50 15q-60 0 -87 -35q-11 -15 -11 -34q0 -53 64 -91l99 -53q74 -47 74 -120z" />
<glyph unicode="&#x160;" horiz-adv-x="502" d="M146 801h25l76 -58h8l76 58h23l-95 -94h-17zM466 174q0 -76 -55 -130q-56 -54 -148 -54q-48 0 -97 31q-30 19 -46 19q-15 0 -48 -42h-11l-11 217h14q32 -116 104 -171q43 -32 93 -32q79 0 124 46q30 30 30 73q0 96 -98 150q-25 14 -129 54q-98 38 -129 80q-24 32 -24 75 q0 84 70 140q55 44 126 44q65 0 102 -29q22 -18 40 -18q16 0 45 39q2 2 3 4h11l12 -218h-14q-29 111 -98 168q-46 37 -99 37q-65 0 -109 -51q-30 -36 -30 -81q0 -73 89 -122q16 -9 121 -54t138 -95q24 -35 24 -80z" />
<glyph unicode="&#x161;" horiz-adv-x="385" d="M84 599h25l76 -58h8l76 58h23l-95 -94h-17zM332 119q0 -70 -61 -107q-35 -21 -78 -21q-47 0 -132 35v110h3q8 -59 58 -99q36 -28 78 -28q48 0 72 45q11 22 11 46q0 45 -63 79l-97 50q-79 46 -79 118q0 67 61 103q36 22 81 22q52 0 122 -32v-110h-2q-14 76 -63 107 q-23 15 -50 15q-60 0 -87 -35q-11 -15 -11 -34q0 -53 64 -91l99 -53q74 -47 74 -120z" />
<glyph unicode="&#x162;" horiz-adv-x="741" d="M458 -109l-2 -37q-10 -63 -84 -75q-19 -3 -47 -4l-52 -1v34l57 5q74 6 74 57q0 32 -40 42q-10 3 -21 3h-38v85h33v-38h28q49 0 77 -34q15 -17 15 -37zM710 490l-20 -1q-20 77 -91 117q-42 24 -88 24h-80q-26 0 -35 -34q-2 -8 -2 -16v-519q0 -24 22 -34q6 -3 13 -3h53v-24 h-231v24h53q21 0 32 23q3 7 3 14v519q0 37 -24 48q-6 2 -13 2h-41q-106 0 -160 -69q-24 -31 -32 -72l-22 1l58 171h548z" />
<glyph unicode="&#x163;" horiz-adv-x="265" d="M246 -118l-2 -37q-10 -63 -84 -75q-19 -3 -47 -4l-52 -1v34l57 5q74 6 74 57q0 32 -40 42q-10 3 -21 3h-38v85h33v-38h28q49 0 77 -34q15 -17 15 -37zM223 64q-4 -35 -34 -57q-21 -16 -50 -16q-55 0 -55 82v340h-56v22l94 125l18 -14v-90h81l-16 -43h-65v-348 q0 -21 24 -28q5 -1 10 -1q23 0 41 33q5 8 6 14z" />
<glyph unicode="&#x164;" horiz-adv-x="741" d="M274 788h25l76 -58h8l76 58h23l-95 -94h-17zM710 490l-20 -1q-20 77 -91 117q-42 24 -88 24h-80q-26 0 -35 -34q-2 -8 -2 -16v-519q0 -24 22 -34q6 -3 13 -3h53v-24h-231v24h53q21 0 32 23q3 7 3 14v519q0 37 -24 48q-6 2 -13 2h-41q-106 0 -160 -69q-24 -31 -32 -72 l-22 1l58 171h548z" />
<glyph unicode="&#x165;" horiz-adv-x="265" d="M21 687h25l76 -58h8l76 58h23l-95 -94h-17zM223 64q-4 -35 -34 -57q-21 -16 -50 -16q-55 0 -55 82v340h-56v22l94 125l18 -14v-90h81l-16 -43h-65v-348q0 -21 24 -28q5 -1 10 -1q23 0 41 33q5 8 6 14z" />
<glyph unicode="&#x166;" horiz-adv-x="741" d="M710 490l-20 -1q-20 77 -91 117q-42 24 -88 24h-80q-26 0 -35 -34q-2 -8 -2 -16v-122h66v-35h-66v-362q0 -24 22 -34q6 -3 13 -3h53v-24h-231v24h53q21 0 32 23q3 7 3 14v362h-67v35h67v122q0 37 -24 48q-6 2 -13 2h-41q-106 0 -160 -69q-24 -31 -32 -72l-22 1l58 171 h548z" />
<glyph unicode="&#x167;" horiz-adv-x="265" d="M223 64l-3 -17q-14 -36 -51 -50q-14 -6 -30 -6q-55 0 -55 82v211h-63v37h63v92h-56v22l94 125l18 -14v-90h81l-16 -43h-65v-92h75v-37h-75v-219q0 -21 22 -28l12 -1q21 2 39 27q8 11 8 20z" />
<glyph unicode="&#x168;" horiz-adv-x="656" d="M238 695q1 43 39 67q18 11 36 11l16 -3q4 -2 33 -23q11 -8 20 -8q34 3 54 30h5l-2 -23q-9 -40 -40 -49l-15 -2q-23 1 -48 22q-15 13 -26 13q-40 -1 -62 -35h-10zM638 637h-53q-23 0 -32 -24q-3 -6 -3 -13v-380q0 -103 -61 -173q-52 -59 -127 -59q-139 0 -189 51 q-45 45 -45 142v419q0 21 -21 33q-7 4 -14 4h-53v24h231v-24h-53q-23 0 -32 -24q-3 -6 -3 -13v-468q0 -65 75 -102q47 -23 101 -23q80 0 130 77q37 56 37 125v391q0 22 -21 33q-8 4 -15 4h-52v24h200v-24z" />
<glyph unicode="&#x169;" horiz-adv-x="524" d="M116 497q1 43 39 67q18 11 36 11l16 -3q4 -2 33 -23q11 -8 20 -8q34 3 54 30h5l-2 -23q-9 -40 -40 -49l-15 -2q-23 1 -48 22q-15 13 -26 13q-40 -1 -62 -35h-10zM477 65l-114 -74v74q-60 -74 -152 -74q-83 0 -113 61q-13 26 -13 61v305q0 17 -17 25q-4 2 -8 2h-45v18h126 v-355q0 -65 57 -80q13 -4 28 -4q67 0 128 63q5 4 9 9v322q0 17 -17 25q-4 2 -8 2h-45v18h126v-365l58 -16v-17z" />
<glyph unicode="&#x16a;" horiz-adv-x="656" d="M446 694h-215v45h215v-45zM638 637h-53q-23 0 -32 -24q-3 -6 -3 -13v-380q0 -103 -61 -173q-52 -59 -127 -59q-139 0 -189 51q-45 45 -45 142v419q0 21 -21 33q-7 4 -14 4h-53v24h231v-24h-53q-23 0 -32 -24q-3 -6 -3 -13v-468q0 -65 75 -102q47 -23 101 -23q80 0 130 77 q37 56 37 125v391q0 22 -21 33q-8 4 -15 4h-52v24h200v-24z" />
<glyph unicode="&#x16b;" horiz-adv-x="524" d="M324 496h-215v45h215v-45zM477 65l-114 -74v74q-60 -74 -152 -74q-83 0 -113 61q-13 26 -13 61v305q0 17 -17 25q-4 2 -8 2h-45v18h126v-355q0 -65 57 -80q13 -4 28 -4q67 0 128 63q5 4 9 9v322q0 17 -17 25q-4 2 -8 2h-45v18h126v-365l58 -16v-17z" />
<glyph unicode="&#x16c;" horiz-adv-x="656" d="M442 790q-8 -63 -59 -87q-21 -9 -44 -9q-60 0 -89 51q-12 20 -15 45h24q13 -44 80 -44q59 0 79 44h24zM638 637h-53q-23 0 -32 -24q-3 -6 -3 -13v-380q0 -103 -61 -173q-52 -59 -127 -59q-139 0 -189 51q-45 45 -45 142v419q0 21 -21 33q-7 4 -14 4h-53v24h231v-24h-53 q-23 0 -32 -24q-3 -6 -3 -13v-468q0 -65 75 -102q47 -23 101 -23q80 0 130 77q37 56 37 125v391q0 22 -21 33q-8 4 -15 4h-52v24h200v-24z" />
<glyph unicode="&#x16d;" horiz-adv-x="524" d="M321 592q-8 -63 -59 -87q-21 -9 -44 -9q-60 0 -89 51q-12 20 -15 45h24q13 -44 80 -44q59 0 79 44h24zM477 65l-114 -74v74q-60 -74 -152 -74q-83 0 -113 61q-13 26 -13 61v305q0 17 -17 25q-4 2 -8 2h-45v18h126v-355q0 -65 57 -80q13 -4 28 -4q67 0 128 63q5 4 9 9v322 q0 17 -17 25q-4 2 -8 2h-45v18h126v-365l58 -16v-17z" />
<glyph unicode="&#x16e;" horiz-adv-x="656" d="M339 841q52 -1 68 -46q5 -13 5 -26q-1 -46 -39 -66q-16 -8 -36 -9l-24 3q-41 11 -47 56v26q7 45 47 58q12 4 26 4zM339 812l-18 -3q-25 -10 -25 -40q0 -31 28 -40q6 -2 14 -2q34 0 41 31l1 19q-4 29 -33 34q-4 1 -8 1zM638 637h-53q-23 0 -32 -24q-3 -6 -3 -13v-380 q0 -103 -61 -173q-52 -59 -127 -59q-139 0 -189 51q-45 45 -45 142v419q0 21 -21 33q-7 4 -14 4h-53v24h231v-24h-53q-23 0 -32 -24q-3 -6 -3 -13v-468q0 -65 75 -102q47 -23 101 -23q80 0 130 77q37 56 37 125v391q0 22 -21 33q-8 4 -15 4h-52v24h200v-24z" />
<glyph unicode="&#x16f;" horiz-adv-x="524" d="M217 643q52 -1 68 -46q5 -13 5 -26q-1 -46 -39 -66q-16 -8 -36 -9l-24 3q-41 11 -47 56v26q7 45 47 58q12 4 26 4zM217 614l-18 -3q-25 -10 -25 -40q0 -31 28 -40q6 -2 14 -2q34 0 41 31l1 19q-4 29 -33 34q-4 1 -8 1zM477 65l-114 -74v74q-60 -74 -152 -74 q-83 0 -113 61q-13 26 -13 61v305q0 17 -17 25q-4 2 -8 2h-45v18h126v-355q0 -65 57 -80q13 -4 28 -4q67 0 128 63q5 4 9 9v322q0 17 -17 25q-4 2 -8 2h-45v18h126v-365l58 -16v-17z" />
<glyph unicode="&#x170;" horiz-adv-x="656" d="M348 803l-128 -109h-33l85 109h76zM490 803l-128 -109h-33l85 109h76zM638 637h-53q-23 0 -32 -24q-3 -6 -3 -13v-380q0 -103 -61 -173q-52 -59 -127 -59q-139 0 -189 51q-45 45 -45 142v419q0 21 -21 33q-7 4 -14 4h-53v24h231v-24h-53q-23 0 -32 -24q-3 -6 -3 -13v-468 q0 -65 75 -102q47 -23 101 -23q80 0 130 77q37 56 37 125v391q0 22 -21 33q-8 4 -15 4h-52v24h200v-24z" />
<glyph unicode="&#x171;" horiz-adv-x="524" d="M227 605l-128 -109h-33l85 109h76zM368 605l-128 -109h-33l85 109h76zM477 65l-114 -74v74q-60 -74 -152 -74q-83 0 -113 61q-13 26 -13 61v305q0 17 -17 25q-4 2 -8 2h-45v18h126v-355q0 -65 57 -80q13 -4 28 -4q67 0 128 63q5 4 9 9v322q0 17 -17 25q-4 2 -8 2h-45v18 h126v-365l58 -16v-17z" />
<glyph unicode="&#x172;" horiz-adv-x="656" d="M342 -12h42q-38 -6 -48 -49l-2 -26v-5q5 -35 65 -45l28 -1q34 4 57 36l20 -25q-34 -55 -96 -55h-4q-62 1 -93 42q-17 21 -17 48q0 54 48 80zM638 637h-53q-23 0 -32 -24q-3 -6 -3 -13v-380q0 -103 -61 -173q-52 -59 -127 -59q-139 0 -189 51q-45 45 -45 142v419 q0 21 -21 33q-7 4 -14 4h-53v24h231v-24h-53q-23 0 -32 -24q-3 -6 -3 -13v-468q0 -65 75 -102q47 -23 101 -23q80 0 130 77q37 56 37 125v391q0 22 -21 33q-8 4 -15 4h-52v24h200v-24z" />
<glyph unicode="&#x173;" horiz-adv-x="524" d="M394 -9h42q-38 -6 -48 -49l-2 -26v-5q5 -35 65 -45l28 -1q34 4 57 36l20 -25q-34 -55 -96 -55h-4q-62 1 -93 42q-17 21 -17 48q0 54 48 80zM477 65l-114 -74v74q-60 -74 -152 -74q-83 0 -113 61q-13 26 -13 61v305q0 17 -17 25q-4 2 -8 2h-45v18h126v-355q0 -65 57 -80 q13 -4 28 -4q67 0 128 63q5 4 9 9v322q0 17 -17 25q-4 2 -8 2h-45v18h126v-365l58 -16v-17z" />
<glyph unicode="&#x174;" horiz-adv-x="1022" d="M421 694l87 112h15l86 -112h-20l-70 69h-6l-69 -69h-23zM989 636h-19q-71 0 -115 -117l-190 -519h-23l-152 419l-145 -419h-24l-212 589q-16 47 -55 47h-13v25h191v-25h-45q-21 0 -21 -22q0 -11 5 -27l182 -508l129 366l-52 144q-16 47 -56 47h-13v25h188v-25h-38 q-27 0 -27 -29q0 -10 4 -20l187 -505l155 424q11 32 11 65q0 65 -49 65h-25v25h222v-25z" />
<glyph unicode="&#x175;" horiz-adv-x="629" d="M227 496l87 112h15l86 -112h-20l-70 69h-6l-69 -69h-23zM638 445h-27q-32 0 -55 -36q-5 -8 -8 -15l-141 -394l-14 6l-80 251l-102 -257l-17 6l-133 415q-6 19 -26 23q-2 1 -5 1h-25v18h159v-18h-29q-19 0 -19 -20l1 -10l103 -328l83 201l-42 133q-4 13 -23 22q-5 2 -9 2 h-25v18h150v-18h-27q-18 0 -19 -19l1 -11l111 -337l98 282q9 23 9 44q0 41 -36 41h-23v18h170v-18z" />
<glyph unicode="&#x176;" horiz-adv-x="653" d="M240 694l87 112h15l86 -112h-20l-70 69h-6l-69 -69h-23zM621 636h-35q-41 0 -114 -95q-6 -7 -10 -13l-135 -189v-278q0 -24 21 -34q6 -3 13 -3h53v-24h-231v24h53q21 0 32 23q4 7 4 14v273l-149 257q-20 35 -54 43q-7 2 -13 2h-8v25h190v-25h-29q-34 0 -34 -20l3 -18 q3 -5 6 -11l132 -230l103 150q44 64 44 99q1 16 -10 23q-9 7 -26 7h-26v25h220v-25z" />
<glyph unicode="&#x177;" horiz-adv-x="440" d="M128 496l87 112h15l86 -112h-20l-70 69h-6l-69 -69h-23zM439 445h-19q-28 0 -56 -43q-4 -7 -7 -12l-210 -443q-20 -38 -61 -38q-35 0 -44 34q-2 8 -2 15q0 31 25 42q7 3 15 3q36 0 41 -31q1 -4 1 -7q0 -23 -23 -33q21 0 35 28l2 4l40 85l-4 2l-109 370q-4 15 -24 22 q-4 2 -8 2h-25v18h159v-18h-28q-19 0 -19 -20l1 -10l90 -293l110 238q8 18 8 40q0 45 -35 45h-23v18h170v-18z" />
<glyph unicode="&#x178;" horiz-adv-x="653" d="M412 770q26 0 35 -24q3 -7 3 -14q0 -26 -24 -35q-7 -3 -14 -3q-26 0 -35 24q-3 7 -3 14q0 26 24 35q7 3 14 3zM256 770q26 0 35 -24q3 -7 3 -14q0 -26 -24 -35q-7 -3 -14 -3q-26 0 -35 24q-3 7 -3 14q0 26 24 35q7 3 14 3zM621 636h-35q-41 0 -114 -95q-6 -7 -10 -13 l-135 -189v-278q0 -24 21 -34q6 -3 13 -3h53v-24h-231v24h53q21 0 32 23q4 7 4 14v273l-149 257q-20 35 -54 43q-7 2 -13 2h-8v25h190v-25h-29q-34 0 -34 -20l3 -18q3 -5 6 -11l132 -230l103 150q44 64 44 99q1 16 -10 23q-9 7 -26 7h-26v25h220v-25z" />
<glyph unicode="&#x179;" horiz-adv-x="582" d="M365 803l-128 -109h-33l85 109h76zM538 206l-59 -206h-430v21l399 615h-170q-60 0 -119 -48q-41 -34 -52 -73l-13 -46h-23l45 192h405v-22l-391 -614h184q71 0 137 67q30 31 46 65l22 47z" />
<glyph unicode="&#x17a;" horiz-adv-x="404" d="M268 605l-128 -109h-33l85 109h76zM364 463l-273 -445h112q51 0 98 64q18 25 27 50l15 -7l-38 -127h-293l270 447h-121q-46 0 -78 -68q-13 -29 -17 -56l-16 10l23 132h291z" />
<glyph unicode="&#x17b;" horiz-adv-x="582" d="M320 729q0 -29 -27 -34h-18q-26 6 -26 34q0 29 27 35h17q27 -6 27 -35zM538 206l-59 -206h-430v21l399 615h-170q-60 0 -119 -48q-41 -34 -52 -73l-13 -46h-23l45 192h405v-22l-391 -614h184q71 0 137 67q30 31 46 65l22 47z" />
<glyph unicode="&#x17c;" horiz-adv-x="404" d="M223 532q0 -29 -27 -34h-18q-26 6 -26 34q0 29 27 35h17q27 -6 27 -35zM364 463l-273 -445h112q51 0 98 64q18 25 27 50l15 -7l-38 -127h-293l270 447h-121q-46 0 -78 -68q-13 -29 -17 -56l-16 10l23 132h291z" />
<glyph unicode="&#x17d;" horiz-adv-x="582" d="M181 788h25l76 -58h8l76 58h23l-95 -94h-17zM538 206l-59 -206h-430v21l399 615h-170q-60 0 -119 -48q-41 -34 -52 -73l-13 -46h-23l45 192h405v-22l-391 -614h184q71 0 137 67q30 31 46 65l22 47z" />
<glyph unicode="&#x17e;" horiz-adv-x="404" d="M84 590h25l76 -58h8l76 58h23l-95 -94h-17zM364 463l-273 -445h112q51 0 98 64q18 25 27 50l15 -7l-38 -127h-293l270 447h-121q-46 0 -78 -68q-13 -29 -17 -56l-16 10l23 132h291z" />
<glyph unicode="&#x17f;" horiz-adv-x="238" d="M249 615l-3 -13q-7 -15 -28 -15q-30 1 -39 27q-2 6 -2 14q0 10 6 21l-16 3q-23 -2 -27 -26q-1 -4 -1 -7v-574q0 -19 18 -26q3 -1 7 -1h45v-18h-196v18h44q17 0 24 18q2 5 2 9v371h-45v17h45v137q0 53 48 81q24 14 52 14q56 0 65 -40q1 -5 1 -10z" />
<glyph unicode="&#x180;" horiz-adv-x="489" d="M443 243l-3 -45q-15 -101 -88 -163q-50 -43 -105 -44l-43 3q-51 8 -85 38l-49 -41v0v522h-56v21h56v64l-45 9v12l101 64v-149h50v-21h-50v-85q45 41 121 44l45 -2q147 -20 151 -227zM373 239q0 126 -74 189q-31 26 -56 26h-4q-112 -16 -113 -132v-202q16 -111 115 -112h6 q65 2 101 92q25 62 25 139z" />
<glyph unicode="&#x181;" horiz-adv-x="553" d="M484 220l-3 -41q-14 -91 -88 -143q-51 -36 -112 -36h-259v24h53q21 0 32 23q3 7 3 14v544q0 22 -21 33q-7 4 -14 4h-58q-37 0 -38 -24l1 -7l19 1h2q30 -8 31 -39l-3 -17q-7 -18 -24 -18q-4 0 -8 1q-38 10 -40 53l3 24q14 43 62 45h293q137 0 144 -111q1 -7 1 -15 q0 -104 -84 -153q105 -37 108 -162zM412 535q0 59 -52 85q-23 11 -50 11h-108q-28 0 -36 -36q-1 -7 -1 -14v-193h112q70 0 110 61q25 38 25 86zM432 206q0 69 -46 118q-34 37 -77 37h-144v-281q0 -50 37 -50h72q73 0 123 74q35 51 35 102z" />
<glyph unicode="&#x182;" horiz-adv-x="583" d="M129 585q-5 48 -36 52h-53v24h455l51 -191h-15q-22 76 -89 123q-48 33 -99 33h-122q-28 0 -36 -35q-2 -7 -2 -15v-218h119q79 0 131 -61q42 -50 42 -122q0 -8 -1 -17q-10 -129 -139 -152q-34 -6 -79 -6h-215v24h53q21 0 32 23q3 7 3 14v524zM183 34h100q53 0 97 48 q33 38 33 78l-3 45q-15 91 -81 119q-22 9 -47 9h-99v-299z" />
<glyph unicode="&#x183;" horiz-adv-x="583" d="M546 470h-15q-22 76 -89 123q-48 33 -99 33h-122q-28 0 -36 -35q-2 -7 -2 -15v-218h119q79 0 131 -61q42 -50 42 -122q0 -8 -1 -17q-10 -129 -139 -152q-34 -6 -79 -6h-127v661h366zM413 160l-3 45q-15 91 -81 119q-22 9 -47 9h-99v-299h100q53 0 97 48q33 38 33 78z" />
<glyph unicode="&#x184;" horiz-adv-x="489" d="M443 243l-3 -45q-15 -101 -88 -163q-50 -43 -105 -44l-43 3q-51 8 -85 38l-49 -41v0v561l-37 31q-19 15 -33 20q32 12 126 80v-255q45 41 121 44l45 -2q147 -20 151 -227zM373 239q0 126 -74 189q-31 26 -56 26h-4q-112 -16 -113 -132v-202q16 -111 115 -112h6 q65 2 101 92q25 62 25 139z" />
<glyph unicode="&#x185;" horiz-adv-x="489" d="M443 243l-3 -45q-15 -101 -88 -163q-50 -43 -105 -44l-45 3q-50 7 -109 52q-6 5 -23 18v534l-45 9v12l101 64v-255q45 41 121 44l45 -2q147 -20 151 -227zM373 239q0 126 -74 189q-31 26 -56 26h-4q-112 -16 -113 -132v-202q16 -111 115 -112h6q65 2 101 92q25 62 25 139 z" />
<glyph unicode="&#x186;" horiz-adv-x="601" d="M42 449l43 219h20l2 -15q8 -22 30 -22q27 0 83 26q46 21 76 22l49 -2q155 -18 199 -196q14 -58 14 -127q0 -138 -62 -238q-73 -118 -211 -118q-64 1 -113 40q-22 18 -35 18q-20 -3 -45 -40q-2 -3 -3 -4h-12l-11 219h14q28 -106 95 -170q52 -49 113 -49q92 0 152 110 q52 96 54 219l-3 68q-16 153 -90 217q-40 34 -92 34q-81 0 -157 -63q-33 -28 -56 -63q-28 -44 -40 -85h-14z" />
<glyph unicode="&#x187;" horiz-adv-x="601" d="M636 660l-3 -13q-7 -15 -28 -15q-30 1 -39 27q-2 6 -2 14q0 11 6 21l-14 2q-23 -1 -31 -22l-2 -9l11 -219h-14q-5 20 -13 38q-67 157 -162 178q-16 3 -33 3q-92 0 -152 -110q-52 -96 -54 -219l3 -68q16 -153 90 -217q40 -34 92 -34q81 0 157 63q33 28 56 63q28 44 40 85 h14l-43 -219h-20l-2 15q-8 22 -30 22q-26 0 -83 -26q-46 -21 -76 -22l-49 2q-155 18 -198 194q-15 59 -15 129q0 138 62 238q73 118 211 118q64 -1 113 -40q22 -18 35 -18q10 2 25 15q8 7 23 29l7 19q15 26 52 26q56 0 65 -40q1 -5 1 -10z" />
<glyph unicode="&#x188;" horiz-adv-x="424" d="M464 422l-3 -13q-7 -15 -28 -15q-30 1 -39 27q-2 6 -2 14q0 11 7 23q-3 1 -30 1q-19 0 -43 -25q33 -34 34 -76q0 -41 -33 -47q-3 -1 -6 -1l-17 3q-29 12 -32 58l2 28v1q4 16 15 30q-20 20 -44 21q-4 1 -15 1l-28 -3q-65 -14 -96 -94q-15 -38 -16 -79l1 -59 q14 -145 114 -162q9 -2 19 -2l30 2q66 14 114 102v-47q-33 -74 -95 -105q-29 -14 -60 -14q-116 0 -166 109q-25 56 -26 126l3 43q16 95 88 157q55 46 118 46q51 0 89 -31q24 31 64 31q52 0 74 -29q7 -10 7 -21z" />
<glyph unicode="&#x189;" horiz-adv-x="710" d="M619 347q0 -145 -104 -245q-110 -100 -263 -102h-229v24h53q21 0 32 23q3 7 3 14v243h-79v39h79v257q0 21 -21 33q-7 4 -14 4h-53v24h329q167 0 233 -141q34 -73 34 -173zM557 359q-9 136 -79 213q-55 59 -132 59h-143q-26 0 -35 -34q-2 -8 -2 -16v-238h83v-39h-83v-224 q0 -33 22 -46q7 -4 15 -4h94q116 0 193 101q67 89 68 206q0 11 -1 22z" />
<glyph unicode="&#x18a;" horiz-adv-x="650" d="M619 347l-4 -50q-18 -125 -115 -211q-95 -86 -221 -86h-256v24h53q21 0 32 23q3 7 3 14v544q0 22 -21 33q-7 4 -14 4h-58q-37 0 -38 -24l1 -7l19 1h2q30 -8 31 -39l-3 -17q-7 -18 -24 -18q-4 0 -8 1q-38 10 -40 53l3 24q14 43 62 45h356q146 0 207 -145q32 -75 33 -169z M557 359q-9 136 -79 213q-55 59 -132 59h-143q-26 0 -35 -34q-2 -8 -2 -16v-501q0 -33 22 -46q7 -4 15 -4h94q116 0 193 101q67 89 68 206q0 11 -1 22z" />
<glyph unicode="&#x18b;" horiz-adv-x="583" d="M457 585v-524q0 -21 21 -33q7 -4 14 -4h53v-24h-215q-147 0 -193 74q-21 34 -25 84l1 41q10 91 84 135q41 24 87 24h119v218q0 36 -24 47q-6 3 -14 3h-122q-79 0 -141 -71q-34 -39 -47 -85h-15l51 191h455v-24h-53q-33 -5 -36 -52zM403 34v299h-99q-78 0 -113 -77 q-18 -40 -18 -96q0 -53 52 -95q38 -31 78 -31h100z" />
<glyph unicode="&#x18c;" horiz-adv-x="487" d="M430 45l-79 -54v30q-47 -28 -118 -30l-38 2q-95 16 -137 117q-22 52 -24 118l3 46q14 103 86 159q49 39 110 39l39 -3q45 -8 79 -37v169q0 29 -21 34q-3 1 -6 1h-85q-59 0 -104 -56q-20 -25 -28 -53h-10l36 134h274v-585l23 -10v-21zM351 121v177q0 103 -28 131 q-23 25 -90 25q-100 -1 -121 -154q-4 -29 -5 -61l2 -63q13 -135 84 -163q15 -5 32 -5h10q77 6 101 56q10 22 15 57z" />
<glyph unicode="&#x18d;" horiz-adv-x="482" d="M252 -9v-58q0 -33 -41 -55q-24 -13 -50 -13q-58 0 -76 50q-2 4 -3 8l-2 25q2 42 39 52l13 1q20 -5 22 -31l-3 -18q-7 -19 -28 -25h-19l-2 1l1 -14q8 -27 50 -32q5 -1 10 -1q38 0 59 25q10 13 10 28v57q-102 5 -152 106q-29 60 -29 134q0 116 63 185q51 56 128 56 q106 0 159 -100q32 -61 32 -140q0 -116 -63 -186q-48 -52 -118 -55zM242 6q74 0 110 96q21 57 21 129q0 120 -52 184q-33 40 -79 40q-74 0 -111 -96q-21 -57 -21 -128q0 -121 53 -185q33 -40 79 -40z" />
<glyph unicode="&#x18e;" horiz-adv-x="584" d="M22 465l52 196h456v-24h-53q-21 0 -32 -23q-3 -7 -3 -14v-539q0 -21 21 -33q7 -4 14 -4h53v-24h-464l-44 200h20l13 -30q41 -94 92 -123q32 -17 74 -17h128q28 0 36 35q2 7 2 15v205h-100q-46 0 -79 -40q-20 -26 -20 -54v-18h-18v254h18v-18q0 -48 43 -80q27 -20 56 -20 h100v272q0 36 -24 47q-6 3 -14 3h-128q-105 0 -161 -124q-3 -5 -5 -11l-13 -31h-20z" />
<glyph unicode="&#x18f;" horiz-adv-x="579" d="M543 321q0 -142 -80 -236q-79 -93 -202 -93q-106 0 -175 89q-58 74 -58 171h443l14 58v5q0 126 -63 216q-58 83 -142 83q-146 0 -224 -109q-12 -16 -22 -35v63q66 135 212 146q12 1 24 1q149 0 222 -129q51 -92 51 -230zM468 224h-372q0 -70 47 -137q51 -72 118 -72 q90 0 155 90q38 54 52 119z" />
<glyph unicode="&#x190;" horiz-adv-x="539" d="M488 161q-40 -125 -171 -152q-32 -7 -68 -7q-126 0 -180 84q-29 44 -29 103q0 132 137 157l8 2q8 0 8 4q0 2 -7 2l-8 2q-116 20 -116 143q0 136 118 160q23 5 51 5q68 0 126 -26q19 -9 30 -9q21 0 26 36h24q1 -69 13 -205h-23q-40 142 -129 164q-18 4 -39 4 q-74 0 -112 -58q-20 -32 -20 -73q0 -90 83 -119q31 -11 71 -11h26l1 -36h-27q-70 0 -106 -20q-46 -25 -60 -88q-3 -16 -3 -33q0 -79 68 -120q42 -26 98 -26q102 0 158 82q13 20 22 44z" />
<glyph unicode="&#x191;" horiz-adv-x="556" d="M491 470h-15l-7 32q-21 97 -98 119q-19 6 -41 6h-125q-27 0 -36 -35q-2 -8 -2 -16v-203h97q46 0 79 42q20 26 20 55v18h18v-254h-18v18q0 46 -43 77q-26 19 -56 19h-97v-389q0 -53 -48 -81q-24 -14 -53 -14q-56 0 -65 40q-1 5 -1 10l3 13q7 15 28 15q30 -1 39 -27 q2 -6 2 -14q0 -11 -6 -21l16 -3q23 2 30 23q1 5 1 10v690q0 22 -22 33q-7 4 -14 4h-53v24h446z" />
<glyph unicode="&#x192;" horiz-adv-x="272" d="M249 615l-3 -13q-7 -15 -28 -15q-30 1 -39 27q-2 6 -2 14q0 10 6 21l-16 3q-23 -2 -27 -26q-1 -4 -1 -7v-186h53v-17h-53v-476q0 -53 -48 -81q-24 -14 -52 -14q-56 0 -65 40q-1 5 -1 10l3 13q7 15 28 15q30 -1 39 -27q2 -6 2 -14q0 -10 -6 -21l16 -3q23 2 27 26q1 4 1 7 v525h-45v17h45v137q0 53 48 81q24 14 52 14q56 0 65 -40q1 -5 1 -10z" />
<glyph unicode="&#x193;" horiz-adv-x="610" d="M636 660l-3 -13q-7 -15 -28 -15q-30 1 -39 27q-2 6 -2 14q0 11 6 21l-14 2q-23 -1 -31 -22l-2 -9l11 -219h-14q-7 26 -13 38q-81 161 -201 162q-7 0 -15 -1q-91 -7 -148 -120q-47 -92 -47 -201q2 -135 65 -225q59 -86 154 -86h5q91 3 141 78v204q0 44 -33 44h-31v18h194 v-18h-45q-27 -6 -30 -44v-227l-25 14q-67 -83 -187 -88l-42 2q-110 17 -174 134q-49 90 -49 202q0 128 71 227q75 105 181 105h5q72 -1 126 -35q15 -9 20 -10l21 2q21 3 48 44l7 19q15 26 52 26q56 0 65 -40q1 -5 1 -10z" />
<glyph unicode="&#x194;" horiz-adv-x="704" d="M666 636h-12q-48 0 -97 -72q-18 -26 -26 -50l-168 -467l31 -87q8 -21 8 -41l-3 -24q-13 -42 -66 -42q-38 0 -39 39l3 27q1 5 3 10l24 65l-215 595q-16 47 -55 47h-13v25h187v-25h-45q-21 0 -21 -22q0 -11 5 -27l186 -513l157 432q22 60 22 83l-3 20q-11 27 -57 27h-25v25 h219v-25zM347 -71l-13 37l-14 -37q-4 -13 -4 -25q0 -22 14 -23l12 2q10 6 10 23q-1 10 -5 23z" />
<glyph unicode="&#x195;" horiz-adv-x="683" d="M635 390q18 -36 18 -107q0 -98 -32 -178q-46 -112 -131 -113q-64 0 -104 75q-24 47 -24 94v205q0 43 -37 67q-19 12 -43 12q-57 -2 -115 -57q-7 -7 -13 -14v-329q0 -19 18 -26q3 -1 7 -1h45v-18h-196v18h44q17 0 24 18q2 5 2 9v522l-55 16v15l111 67v-263q49 52 116 66 q14 3 26 4l42 -1q80 -9 80 -74v-236q0 -91 40 -127q17 -16 40 -16q4 0 8 1q65 8 101 127q20 69 20 137v17q-3 26 -10 55l-20 4q-32 11 -43 38q-4 10 -4 19l3 14q6 13 22 13q8 0 17 -3q21 -6 32 -26z" />
<glyph unicode="&#x196;" horiz-adv-x="262" d="M269 -45q-1 -41 -48 -49q-8 -1 -18 -1q-55 0 -85 43q-16 24 -16 52v567l-53 18v13l108 67v-714q0 -25 23 -32h17l6 2q-6 11 -6 21q0 32 30 39l18 1q23 -4 24 -27z" />
<glyph unicode="&#x197;" horiz-adv-x="297" d="M275 0h-230v24h53q21 0 32 23q3 7 3 14v254h-83v45h83v240q0 21 -21 33q-7 4 -14 4h-53v24h230v-24h-52q-23 0 -32 -24q-3 -6 -3 -13v-240h81v-45h-81v-254q0 -24 22 -34q6 -3 13 -3h52v-24z" />
<glyph unicode="&#x198;" horiz-adv-x="662" d="M653 593l2 -25q-2 -42 -39 -52l-13 -1q-20 5 -22 31l3 18q7 19 28 25h19l2 -1l-2 10q-10 16 -30 20q-3 1 -5 1h-28q-68 0 -232 -180l-33 -37l227 -339q14 -21 38 -34q8 -4 14 -4h37v-25h-195v25h30q15 0 15 13l-4 17q-2 5 -5 10l-198 295l-80 -80v-219q0 -24 21 -34 q6 -3 13 -3h53v-24h-230v24h52q22 0 33 23q3 7 3 14v539q0 22 -21 33q-8 4 -15 4h-52v24h230v-24h-53q-22 0 -31 -24q-3 -6 -3 -13v-292l253 259q71 71 156 71l24 -5q31 -10 38 -40z" />
<glyph unicode="&#x199;" horiz-adv-x="526" d="M496 0h-205v18h45q9 0 9 6l-5 14l-131 216l-55 -50v-159q0 -19 18 -26q3 -1 7 -1h45v-18h-196v18h44q17 0 24 18q2 5 2 9q1 461 1 525q0 53 48 81q24 14 52 14q56 0 65 -40q1 -5 1 -10l-3 -13q-7 -15 -28 -15q-30 1 -39 27q-2 6 -2 14q0 10 6 21l-16 3q-23 -2 -28 -25 q-1 -4 -1 -8v-402l130 123q30 29 32 68l-3 18q-7 21 -33 21h-29v16h225v-16q-62 -8 -119 -58l-101 -92l161 -259q5 -14 26 -19q4 -1 7 -1h46v-18z" />
<glyph unicode="&#x19a;" horiz-adv-x="262" d="M240 317h-83v-272q0 -18 17 -25q4 -2 8 -2h45v-18h-196v18h45q16 0 23 19q2 4 2 8v272h-76v45h76v210l-55 15v16l111 67v-308h83v-45z" />
<glyph unicode="&#x19b;" horiz-adv-x="388" d="M327 91q-2 34 -23 102q-4 12 -7 23q-9 31 -53 133q-9 20 -15 36l-90 -340l1 -10q7 -16 24 -17h45v-18h-196v18h44q20 0 26 27l87 336q8 30 8 60q0 32 -10 62l-97 -97l-20 20l105 105q-28 51 -65 64q-5 2 -10 2l-14 -2l-35 -21q-9 -4 -18 -4q-14 0 -14 18l3 17 q12 30 50 31l23 -3q45 -14 96 -86l78 78l20 -20l-82 -82q55 -88 95 -200q71 -192 71 -264q0 -59 -41 -59q-17 0 -17 27q0 28 18 50q4 5 13 14z" />
<glyph unicode="&#x19c;" horiz-adv-x="785" d="M752 643h-45q-18 0 -24 -20q-1 -3 -1 -7v-518l54 -15v-16l-110 -67v71q-54 -54 -125 -67q-8 -1 -17 -2l-43 1q-74 9 -79 67q-56 -56 -125 -66q-8 -2 -15 -2l-41 1q-83 9 -83 74v539q0 18 -17 25q-4 2 -8 2h-45v18h198v-18h-44q-17 0 -24 -18q-2 -5 -2 -9v-508 q0 -43 37 -67q19 -12 43 -12q58 2 120 62l6 6v519q0 17 -17 25q-4 2 -8 2h-45v18h196v-18h-45q-16 0 -23 -18q-2 -5 -2 -9v-508q0 -43 37 -67q19 -12 43 -12q59 2 119 60q5 4 9 9v518q0 17 -17 25q-5 2 -9 2h-44v18h196v-18z" />
<glyph unicode="&#x19d;" horiz-adv-x="730" d="M713 636h-48q-42 0 -59 -54q-6 -19 -6 -38v-544h-36l-388 598v-624l-4 -24q-10 -30 -41 -38l-25 -2q-42 2 -52 39l-1 13q5 20 31 22l18 -3q19 -7 25 -28v-19l-1 -2l16 1q15 4 15 36v631q0 22 -22 33q-7 4 -14 4h-52v24h128l383 -581v464q0 52 -29 79q-15 13 -35 13h-38 v25h235v-25z" />
<glyph unicode="&#x19e;" horiz-adv-x="0" d="M-70 394l-152 -152l-31 32l152 152z" />
<glyph unicode="&#x19f;" horiz-adv-x="0" d="M-158 -121h-78v20h78v52h20v-124h-20v52z" />
<glyph unicode="&#x1a0;" horiz-adv-x="710" d="M775 583q-15 -53 -70 -80q-16 -7 -32 -10l-13 16q24 6 40 30q6 10 6 19q0 8 -4 14q-23 14 -23 43l3 21q12 34 49 34h5q40 -2 49 -39l1 -21q-2 -15 -11 -27zM359 -21q-153 0 -238 128q-64 96 -64 222q0 145 81 242q84 100 220 100q154 0 239 -123q63 -92 63 -217 q0 -152 -81 -252q-83 -100 -220 -100zM358 0q125 0 192 123q47 87 47 204q0 141 -69 234q-65 89 -169 89q-125 0 -191 -122q-48 -87 -48 -203q0 -147 71 -240q65 -85 167 -85z" />
<glyph unicode="&#x1a1;" horiz-adv-x="482" d="M548 384q-15 -53 -70 -80q-16 -7 -32 -10l-13 16q24 6 40 30q6 10 6 19q0 8 -4 14q-23 14 -23 43l3 21q12 34 49 34h5q40 -2 49 -39l1 -21q-2 -15 -11 -27zM242 -9q-106 0 -158 100q-33 61 -33 140q0 114 62 184q52 57 129 57q105 0 158 -100q33 -61 33 -139 q0 -117 -64 -186q-50 -56 -127 -56zM242 6q74 0 110 97q21 57 21 129q0 120 -52 183q-33 40 -79 40q-74 0 -110 -97q-22 -57 -22 -128q0 -120 52 -184q33 -40 80 -40z" />
<glyph unicode="&#x1a2;" horiz-adv-x="984" d="M927 -191h-231v24h53q21 0 32 23q3 7 3 14v639q0 70 -34 119q-26 37 -63 37q-43 0 -86 -38q-25 -23 -31 -46q85 -94 90 -241l-2 -59q-14 -146 -106 -230q-78 -72 -193 -72q-156 0 -240 127q-62 93 -62 219q0 93 35 172q59 129 183 163q39 11 83 11q105 0 182 -62 q28 42 92 64q25 9 44 9q102 0 138 -94q12 -29 19 -72q6 -32 6 -69v-577q0 -24 22 -34q6 -3 13 -3h53v-24zM358 0q126 0 193 122q47 86 47 202q0 65 -16 125q-37 134 -134 181q-41 20 -89 20q-125 0 -191 -122q-47 -86 -47 -202q0 -67 17 -127q37 -135 134 -180 q39 -19 86 -19z" />
<glyph unicode="&#x1a3;" horiz-adv-x="664" d="M682 -183h-231v24h53q21 0 32 23q3 7 3 14v483q0 95 -39 136q-19 20 -46 20q-42 0 -77 -40q-19 -22 -23 -45q70 -59 78 -175v-51q-8 -115 -78 -175q-47 -40 -112 -40q-106 0 -159 101q-32 61 -32 139q0 60 20 113q38 101 127 123q21 5 44 5q45 0 78 -18q23 46 78 70 q24 10 45 10q151 0 151 -235v-421q0 -24 22 -34q6 -3 13 -3h53v-24zM242 6q74 0 110 96q21 57 21 128q0 65 -18 119q-31 96 -100 105q-6 1 -13 1q-74 0 -111 -96q-21 -57 -21 -128q0 -65 18 -119q32 -96 101 -105q6 -1 13 -1z" />
<glyph unicode="&#x1a4;" horiz-adv-x="491" d="M443 537l-1 -42q-11 -101 -110 -123q-24 -5 -51 -5h-108v-306q0 -24 22 -34q6 -3 13 -3h52v-24h-230v24h53q21 0 32 23q3 7 3 14v544q0 22 -21 33q-7 4 -14 4h-58q-37 0 -38 -24l1 -7l19 1h2q30 -8 31 -39l-3 -17q-7 -18 -24 -18q-4 0 -8 1q-38 10 -40 53l3 24 q14 43 62 45h266q138 0 147 -124zM393 535q0 59 -58 88q-29 15 -62 15h-100v-253h99q121 0 121 150z" />
<glyph unicode="&#x1a5;" horiz-adv-x="524" d="M513 503q-2 -23 -28 -23q-28 0 -39 24q-3 8 -3 16v6q3 13 9 20q-7 4 -15 4l-15 -3q-24 -10 -36 -40l-19 -47q106 -41 109 -217l-3 -45q-15 -101 -88 -163q-50 -43 -105 -44l-41 3q-46 7 -79 34v-130q0 -18 17 -25q4 -2 8 -2h45v-18h-196v18h45q16 0 23 19q2 4 2 8v468 l-43 23v16l99 60v-41q46 45 120 48l45 -2q14 -2 26 -5l20 50q23 52 71 52q6 0 13 -1q46 -6 56 -41l2 -20v-2zM406 239q0 126 -74 189q-30 26 -55 26h-4q-113 -16 -113 -123v-215q18 -107 114 -108h6q65 2 101 92q25 62 25 139z" />
<glyph unicode="&#x1a6;" horiz-adv-x="627" d="M601 0h-64q-50 0 -80 49q-2 4 -5 8l-176 310h-107v-306q0 -24 22 -34q6 -3 13 -3h52v-24h-230v24h53q21 0 32 23q3 7 3 14v642q0 21 -21 33q-7 4 -14 4h-53v24h230v-24h-52q-23 0 -32 -24q-3 -6 -3 -13v-42h150q138 0 147 -124l-1 -42q-10 -99 -107 -122q-12 -3 -24 -4 l173 -297q16 -26 51 -46q17 -10 30 -10h13v-16zM405 535q0 60 -63 85q-27 11 -58 11h-115v-239h114q109 0 121 110z" />
<glyph unicode="&#x1a7;" horiz-adv-x="502" d="M35 174q0 87 98 143q22 13 127 57q99 43 128 87q19 28 19 64q-1 64 -58 105q-37 27 -81 27q-98 0 -162 -115q-23 -42 -35 -90h-14l12 218h11q19 -29 40 -40q5 -3 8 -3l19 1q6 2 30 21q32 25 93 25q90 0 149 -65q47 -50 47 -119q0 -80 -90 -128q-20 -11 -123 -52 q-105 -41 -140 -90q-27 -37 -27 -89q0 -70 75 -103q37 -16 79 -16q100 0 164 118q21 40 33 85h14l-11 -217h-11q-27 35 -44 41l-4 1q-23 -2 -58 -25q-39 -25 -85 -25q-123 0 -177 92q-26 44 -26 92z" />
<glyph unicode="&#x1a8;" horiz-adv-x="385" d="M44 119q0 73 78 121l106 57q53 34 53 79v7q-3 47 -59 63q-18 6 -39 6q-62 0 -97 -72q-11 -24 -16 -50h-2v110q70 32 113 32h9q82 -5 121 -59q21 -29 21 -66q-1 -73 -81 -119l-106 -54q-51 -32 -52 -74l3 -25q14 -47 66 -63q7 -2 14 -3l25 -1q54 7 89 68q18 30 22 60h3 v-110q-87 -36 -123 -35h-9q-84 8 -120 64q-19 28 -19 64z" />
<glyph unicode="&#x1a9;" horiz-adv-x="678" d="M537 0h-475v20h26q20 0 52 51l139 231v54l-139 231q-24 38 -38 46q-8 5 -17 5h-23v20h505l21 -187h-15l-7 31q-20 87 -80 121q-27 15 -58 15h-178q-26 0 -38 -21q-4 -7 -4 -14q0 -8 5 -16l142 -227l-175 -289q-5 -8 -5 -16q0 -23 26 -32q8 -3 17 -3h173q71 0 132 86 q21 29 33 59l13 32h22z" />
<glyph unicode="&#x1aa;" horiz-adv-x="283" d="M348 -125q-1 -41 -48 -49q-8 -1 -18 -1q-55 0 -85 44q-15 23 -15 51v601q-27 -32 -70 -32q-51 0 -78 44q-14 22 -14 48q0 51 44 78q22 14 48 14q67 0 104 -43q22 -26 22 -60v-699q0 -27 24 -32h15q2 1 5 2q-6 11 -6 21q0 32 30 39l18 1q23 -4 24 -27zM182 609 q-15 37 -56 45q-7 1 -14 1q-42 0 -63 -37q-10 -17 -10 -37q0 -44 39 -65q16 -9 34 -9q44 0 66 40q2 4 4 9v53z" />
<glyph unicode="&#x1ab;" horiz-adv-x="265" d="M223 64l-3 -18q-6 -15 -18 -28l-1 -81v-1q0 -56 -40 -65q-5 -1 -10 -1l-13 3q-15 7 -15 28q1 30 27 39q6 2 14 2q10 0 21 -6q4 10 4 30q0 3 -2 40q-22 -15 -48 -15q-55 0 -55 82v340h-56v22l94 125l18 -14v-90h81l-16 -43h-65v-348q0 -21 22 -28l12 -1q21 2 39 27 q8 11 8 20z" />
<glyph unicode="&#x1ac;" horiz-adv-x="741" d="M710 490l-20 -1q-20 77 -91 117q-42 24 -88 24h-80q-26 0 -35 -34q-2 -8 -2 -16v-519q0 -24 22 -34q6 -3 13 -3h53v-24h-231v24h53q21 0 32 23q3 7 3 14v519q0 37 -24 48q-6 2 -13 2h-202q-37 0 -38 -23q0 -4 1 -8l19 1h2q30 -8 31 -39l-3 -17q-7 -18 -24 -18q-4 0 -8 1 q-38 10 -40 53l3 24q11 43 53 55q6 2 9 2h548z" />
<glyph unicode="&#x1ad;" horiz-adv-x="265" d="M253 637l-3 -13q-7 -15 -28 -15q-30 1 -39 27q-2 6 -2 14q0 10 6 21l-16 3q-23 -2 -30 -23q-1 -5 -1 -10v-185h81l-16 -43h-65v-348q0 -21 22 -28l12 -1q21 2 39 27q8 11 8 20l2 -19l-3 -17q-14 -36 -51 -50q-14 -6 -30 -6q-55 0 -55 82v340h-56v22l56 74v83q0 52 49 80 q25 15 54 15q56 0 65 -40q1 -5 1 -10z" />
<glyph unicode="&#x1ae;" horiz-adv-x="741" d="M710 490l-20 -1q-20 77 -91 117q-42 24 -88 24h-80q-26 0 -35 -34q-2 -8 -2 -16q0 -495 -1 -647q0 -24 23 -31l16 -1q4 0 8 2q-6 11 -6 21q0 32 30 39l18 1q23 -4 24 -27q-1 -41 -48 -49q-8 -1 -18 -1q-97 7 -101 95v598q0 37 -24 48q-6 2 -13 2h-41q-106 0 -160 -69 q-24 -31 -32 -72l-22 1l58 171h548z" />
<glyph unicode="&#x1af;" horiz-adv-x="656" d="M753 573q-15 -53 -70 -80q-16 -7 -32 -10l-13 16q24 6 40 30q6 10 6 19q0 8 -4 14q-23 14 -23 43l3 21q12 34 49 34h5q40 -2 49 -39l1 -21q-2 -15 -11 -27zM638 637h-53q-23 0 -32 -24q-3 -6 -3 -13v-380q0 -103 -61 -173q-52 -59 -127 -59q-139 0 -189 51 q-45 45 -45 142v419q0 21 -21 33q-7 4 -14 4h-53v24h231v-24h-53q-23 0 -32 -24q-3 -6 -3 -13v-468q0 -65 75 -102q47 -23 101 -23q80 0 130 77q37 56 37 125v391q0 22 -21 33q-8 4 -15 4h-52v24h200v-24z" />
<glyph unicode="&#x1b0;" horiz-adv-x="524" d="M534 375q-15 -53 -70 -80q-16 -7 -32 -10l-13 16q24 6 40 30q6 10 6 19q0 8 -4 14q-23 14 -23 43l3 21q12 34 49 34h5q40 -2 49 -39l1 -21q-2 -15 -11 -27zM477 65l-114 -74v74q-60 -74 -152 -74q-83 0 -113 61q-13 26 -13 61v305q0 17 -17 25q-4 2 -8 2h-45v18h126v-355 q0 -65 57 -80q13 -4 28 -4q67 0 128 63q5 4 9 9v322q0 17 -17 25q-4 2 -8 2h-45v18h126v-365l58 -16v-17z" />
<glyph unicode="&#x1b1;" horiz-adv-x="680" d="M46 655l37 104h147v-90q0 -75 -60 -165l-58 -86q-38 -64 -38 -122q0 -108 71 -190q72 -84 170 -84h5q108 2 177 105q51 77 57 174l-1 38q-8 53 -62 133t-68 119t-14 78v90h146l27 -107l-32 -8l-11 63h-83v-19q0 -78 61 -163l64 -87q47 -71 47 -142l-3 -50 q-19 -129 -128 -198q-78 -48 -176 -48q-137 0 -230 84q-91 82 -91 212q1 78 65 161l70 87q52 71 52 144v19h-83l-24 -57z" />
<glyph unicode="&#x1b2;" horiz-adv-x="671" d="M584 635q22 -57 25 -192l-2 -92q-16 -251 -137 -328q-47 -30 -108 -30q-134 0 -184 43t-50 145v419q0 21 -21 33q-7 4 -14 4h-53v24h231v-24h-53q-23 0 -32 -24q-3 -6 -3 -13v-468q0 -65 75 -102q47 -23 101 -23q151 0 203 194q23 87 23 198q0 119 -22 201l-19 3 q-32 11 -41 39l-2 18q2 26 27 28l19 -3q20 -7 28 -26z" />
<glyph unicode="&#x1b3;" horiz-adv-x="653" d="M621 636h-35q-42 0 -116 -97q-4 -6 -8 -11l-135 -189v-278q0 -24 21 -34q6 -3 13 -3h53v-24h-231v24h53q21 0 32 23q4 7 4 14v273l-149 257q-9 15 -30 34q-17 14 -37 14q-35 -2 -39 -3q-12 -5 -12 -19q0 -3 1 -6l19 1h2q30 -8 31 -39l-3 -17q-7 -18 -24 -18q-4 0 -8 1 q-38 10 -40 53l3 24q18 45 79 45q66 0 104 -51q8 -11 15 -23l132 -230l103 150q44 65 44 99q1 14 -8 22t-28 8h-26v25h220v-25z" />
<glyph unicode="&#x1b4;" horiz-adv-x="479" d="M439 445h-19q-28 0 -56 -43q-4 -7 -7 -12l-210 -443q-16 -34 -51 -38l-21 1q-31 7 -35 42l2 20q9 31 38 31q33 0 41 -29v-17q-2 -8 -7 -14q-6 -7 -15 -11q21 0 35 28l2 4l40 85l-4 2l-109 370q-7 24 -43 24t-38 -22l1 -10l20 1h2q30 -8 30 -39l-3 -17q-7 -18 -24 -18 q-4 0 -8 1q-38 10 -40 53l3 24q10 39 53 44q10 1 29 1q56 0 72 -42l2 -6l90 -293q0 1 110 238q8 18 8 40q0 45 -35 45h-23v18h170v-18z" />
<glyph unicode="&#x1b5;" horiz-adv-x="582" d="M538 206l-59 -206h-430v21l210 324h-51v45h81l159 246h-170q-60 0 -119 -48q-41 -34 -52 -73l-13 -46h-23l45 192h405v-22l-158 -249h60v-45h-89l-204 -320h184q71 0 137 67q30 31 46 65l22 47z" />
<glyph unicode="&#x1b6;" horiz-adv-x="404" d="M364 463l-109 -178h66v-45h-94l-136 -222h112q51 0 98 64q18 25 27 50l15 -7l-38 -127h-293l146 242h-52v45h79l97 160h-121q-46 0 -78 -68q-13 -29 -17 -56l-16 10l23 132h291z" />
<glyph unicode="&#x1b7;" horiz-adv-x="490" d="M448 672l-190 -247q139 -30 179 -130q13 -33 13 -69q0 -90 -71 -157q-71 -69 -176 -69q-61 0 -97 42q-21 25 -21 56v6q3 45 40 56l19 2q32 -4 39 -34l1 -15q-1 -44 -38 -44q-5 0 -11 1q6 -25 36 -38q11 -4 20 -4q56 0 116 34q84 49 84 134q0 105 -107 151q-56 24 -124 24 v29l206 254h-156q-46 0 -78 -68q-13 -29 -17 -56l-16 10l23 132h326z" />
<glyph unicode="&#x1b8;" horiz-adv-x="465" d="M60 672h326l23 -132l-16 -10q-7 56 -43 96q-24 28 -52 28h-156l206 -254v-29q-115 0 -180 -59q-51 -46 -51 -116q0 -96 106 -145q51 -23 94 -23q27 0 47 25q7 8 9 17h-20q-27 6 -29 43l2 19q10 29 42 30l19 -4q33 -12 36 -54l-2 -25q-12 -48 -66 -69q-24 -10 -50 -10 q-118 0 -192 85q-55 64 -55 142q0 100 90 158q43 27 102 40z" />
<glyph unicode="&#x1b9;" horiz-adv-x="465" d="M423 -116l-2 -25q-11 -48 -64 -69q-23 -10 -48 -10h-4q-119 4 -181 96q-39 59 -39 130q0 104 75 167q35 30 83 44l-148 247h291l23 -132l-16 -10q-7 56 -43 96q-24 28 -52 28h-121l155 -254v-29h-23q-67 0 -118 -68q-39 -54 -39 -111v-8q6 -82 83 -136q45 -32 82 -32 q27 0 47 25q7 8 9 17h-20q-27 6 -29 43l2 19q10 29 42 30l19 -4q33 -12 36 -54z" />
<glyph unicode="&#x1ba;" horiz-adv-x="465" d="M417 464l-152 -186q113 -24 140 -80q11 -22 11 -51q0 -69 -79 -114q-7 -4 -97 -46q-3 -2 -6 -3q-41 -20 -55 -61q-3 -10 -3 -19q0 -41 44 -62q20 -10 46 -11l26 2q54 12 79 75q5 14 8 28h11q-6 -78 -64 -121q-36 -26 -82 -26h-6q-90 3 -127 57q-18 26 -18 62q0 68 53 96 q15 8 38 15q124 38 150 77q8 13 9 26l-2 24q-16 60 -156 60h-23v29l173 211h-121q-46 0 -78 -68q-13 -29 -17 -56l-16 10l23 132h291z" />
<glyph unicode="&#x1bb;" horiz-adv-x="409" d="M362 118l-23 -118h-285v40q0 62 69 149l57 69h-65v45h99q50 71 53 136l-3 28q-12 50 -61 67q-14 4 -29 5l-26 -2q-47 -10 -75 -66q-8 -15 -12 -37h-11q1 17 7 37q23 78 90 102q23 8 49 8h6q94 -3 129 -60q16 -25 16 -59l-3 -35q-12 -58 -70 -124h60v-45h-105l-92 -86 q-27 -28 -35 -48l-19 -44h251l10 38h18z" />
<glyph unicode="&#x1bc;" horiz-adv-x="441" d="M413 239q0 -95 -66 -173q-66 -76 -149 -77q-7 0 -14 1q-78 7 -112 55q-15 21 -15 48q0 48 41 58l23 2h2q27 -3 33 -34l1 -17q-4 -33 -38 -41q-6 -1 -13 -1q13 -16 28 -24q20 -11 47 -14l29 1q68 10 113 84q34 58 34 125q0 73 -69 128q-57 44 -121 44q-34 0 -83 -22v229 q0 22 -22 33q-7 4 -14 4h-53v24h383l7 -87h-7l-5 9q-8 14 -43 14h-212v-159q37 19 44 21l24 2q117 -3 182 -92q45 -62 45 -141z" />
<glyph unicode="&#x1bd;" horiz-adv-x="355" d="M314 151q0 -75 -54 -127q-41 -38 -91 -39q-8 0 -15 1q-53 6 -78 41q-11 15 -11 31q1 37 33 42h13q22 -3 24 -26v-9q-1 -23 -26 -29q-5 -1 -9 -1q19 -23 52 -26l25 1q53 8 81 66q15 33 15 70q0 58 -56 93q-33 21 -71 21q-31 0 -62 -15v175q0 18 -18 25q-3 1 -7 1h-37v17 h268l5 -71h-5l-4 6q-4 10 -30 10h-148v-110q34 16 57 16q75 0 119 -66q30 -44 30 -97z" />
<glyph unicode="&#x1be;" horiz-adv-x="441" d="M407 227q0 -84 -63 -156q-64 -73 -144 -73q-8 0 -16 1q-67 7 -106 50q-21 25 -21 53q1 48 41 58l22 2h3q27 -3 33 -34l1 -17q-2 -32 -37 -40q-7 -2 -14 -2q27 -33 75 -38l30 1q66 11 109 82q31 51 31 106q0 95 -83 145q-48 28 -101 28q-45 0 -84 -22v119h-61v32h61v153 l48 -1v-152h62v-32h-62v-47l22 12q16 6 33 6q120 -4 181 -92q40 -59 40 -142z" />
<glyph unicode="&#x1bf;" horiz-adv-x="524" d="M476 243q0 -134 -199 -256q-53 -33 -117 -62v-27q0 -18 17 -25q4 -2 8 -2h45v-18h-196v18h45q16 0 23 19q2 4 2 8v468l-43 23v16l99 60v-41q53 45 120 48l45 -2q151 -20 151 -227zM406 239q0 126 -74 189q-30 26 -55 26h-4q-113 -16 -113 -123v-378q133 61 189 128 q57 69 57 158z" />
<glyph unicode="&#x1c0;" horiz-adv-x="155" d="M94 0h-47v723h47v-723z" />
<glyph unicode="&#x1c1;" horiz-adv-x="269" d="M214 0h-47v723h47v-723zM94 0h-47v723h47v-723z" />
<glyph unicode="&#x1c2;" horiz-adv-x="365" d="M312 283h-114v-302h-47v302h-118v33h118v75h-118v33h118v299h47v-299h114v-33h-114v-75h114v-33z" />
<glyph unicode="&#x1c3;" horiz-adv-x="319" d="M99 668q4 9 12 9l8 -2q3 -2 5 -7q39 -75 43 -85q10 -28 10 -64q0 -67 -29 -176q-26 -99 -26 -166q0 -21 -9 -23l-5 2q-6 5 -6 21q0 67 -29 176q-26 99 -26 166q0 46 28 101q19 37 24 48zM148 89q25 -16 25 -43l-4 -20q-11 -31 -42 -36h-20q-9 3 -19 9q-25 16 -25 43l4 20 q11 32 42 37l20 -1q9 -3 19 -9z" />
<glyph unicode="&#x1c4;" horiz-adv-x="1232" d="M831 788h25l76 -58h8l76 58h23l-95 -94h-17zM1188 206l-59 -206h-430v21l399 615h-170q-60 0 -119 -48q-41 -34 -52 -73l-13 -46h-23l45 192h405v-22l-391 -614h184q71 0 137 67q30 31 46 65l22 47zM619 347q0 -127 -87 -228q-92 -108 -228 -118q-12 -1 -25 -1h-256v24 h53q21 0 32 23q3 7 3 14v539q0 21 -21 33q-7 4 -14 4h-53v24h356q145 0 207 -143q33 -76 33 -171zM346 631h-143q-26 0 -35 -34q-2 -8 -2 -16v-501q0 -33 22 -46q7 -4 15 -4h94q119 0 195 103q66 89 66 210q0 136 -71 219q-56 65 -141 69z" />
<glyph unicode="&#x1c5;" horiz-adv-x="1054" d="M734 590h25l76 -58h8l76 58h23l-95 -94h-17zM1014 463l-273 -445h112q51 0 98 64q18 25 27 50l15 -7l-38 -127h-293l270 447h-121q-46 0 -78 -68q-13 -29 -17 -56l-16 10l23 132h291zM619 347q0 -127 -87 -228q-92 -108 -228 -118q-12 -1 -25 -1h-256v24h53q21 0 32 23 q3 7 3 14v539q0 21 -21 33q-7 4 -14 4h-53v24h356q145 0 207 -143q33 -76 33 -171zM346 631h-143q-26 0 -35 -34q-2 -8 -2 -16v-501q0 -33 22 -46q7 -4 15 -4h94q119 0 195 103q66 89 66 210q0 136 -71 219q-56 65 -141 69z" />
<glyph unicode="&#x1c6;" horiz-adv-x="891" d="M571 590h25l76 -58h8l76 58h23l-95 -94h-17zM851 463l-273 -445h112q51 0 98 64q18 25 27 50l15 -7l-38 -127h-293l270 447h-121q-46 0 -78 -68q-13 -29 -17 -56l-16 10l23 132h291zM430 45l-79 -54v30q-49 -30 -118 -30q-117 0 -169 101q-30 57 -30 136q0 101 61 175 q57 69 138 69q72 0 118 -40v163l-48 10l3 16l101 59v-604l23 -10v-21zM351 121v177q0 103 -28 131q-23 25 -90 25q-87 0 -115 -118q-11 -44 -11 -97q0 -170 74 -216q24 -15 54 -15q92 0 112 91q2 10 4 22z" />
<glyph unicode="&#x1c7;" horiz-adv-x="894" d="M890 637h-53q-23 0 -32 -24q-3 -6 -3 -13v-467q0 -159 -69 -215q-30 -24 -72 -24q-73 0 -80 58q-1 6 -1 12q0 30 25 44q8 5 18 5q29 0 40 -28q3 -8 3 -15q0 -41 -36 -50q11 -9 42 -9q37 0 61 75q14 45 14 85v529q0 21 -21 33q-7 4 -14 4h-53v24h231v-24zM533 179 l-50 -179h-455v24h53q33 5 36 52v524q0 22 -22 33q-7 4 -14 4h-53v24h231v-24h-53q-22 0 -31 -24q-3 -6 -3 -13v-527q0 -36 24 -47q6 -3 14 -3h120q79 0 141 71q34 39 47 85h15z" />
<glyph unicode="&#x1c8;" horiz-adv-x="854" d="M706 622q26 0 35 -24q3 -7 3 -14q0 -26 -24 -35q-7 -3 -14 -3q-26 0 -35 24q-3 7 -3 14q0 26 24 35q7 3 14 3zM740 -35q0 -57 -45 -91q-26 -20 -57 -20q-52 0 -59 39q-1 4 -1 8q0 29 23 39q6 3 13 3q30 0 38 -26q1 -5 1 -10q0 -25 -26 -39q13 0 27 7q30 16 30 56v466 l-40 13v7l96 57v-509zM533 179l-50 -179h-455v24h53q33 5 36 52v524q0 22 -22 33q-7 4 -14 4h-53v24h231v-24h-53q-22 0 -31 -24q-3 -6 -3 -13v-527q0 -36 24 -47q6 -3 14 -3h120q79 0 141 71q34 39 47 85h15z" />
<glyph unicode="&#x1c9;" horiz-adv-x="549" d="M401 622q26 0 35 -24q3 -7 3 -14q0 -26 -24 -35q-7 -3 -14 -3q-26 0 -35 24q-3 7 -3 14q0 26 24 35q7 3 14 3zM435 -35q0 -57 -45 -91q-26 -20 -57 -20q-52 0 -59 39q-1 4 -1 8q0 29 23 39q6 3 13 3q30 0 38 -26q1 -5 1 -10q0 -25 -26 -39q13 0 27 7q30 16 30 56v466 l-40 13v7l96 57v-509zM227 0h-196v18h45q16 0 23 19q2 4 2 8v527l-55 15v16l111 67v-625q0 -18 17 -25q4 -2 8 -2h45v-18z" />
<glyph unicode="&#x1ca;" horiz-adv-x="1057" d="M1053 637h-53q-23 0 -32 -24q-3 -6 -3 -13v-467q0 -159 -69 -215q-30 -24 -72 -24q-73 0 -80 58q-1 6 -1 12q0 30 25 44q8 5 18 5q29 0 40 -28q3 -8 3 -15q0 -41 -36 -50q11 -9 42 -9q37 0 61 75q14 45 14 85v529q0 21 -21 33q-7 4 -14 4h-53v24h231v-24zM713 636h-48 q-42 0 -59 -54q-6 -19 -6 -38v-544h-36l-388 598v-481q0 -45 28 -75q16 -17 37 -17h38v-25h-236v25h49q39 0 58 52q7 21 7 40v483q0 22 -22 33q-7 4 -14 4h-52v24h128l383 -581v464q0 52 -29 79q-15 13 -35 13h-38v25h235v-25z" />
<glyph unicode="&#x1cb;" horiz-adv-x="1017" d="M869 622q26 0 35 -24q3 -7 3 -14q0 -26 -24 -35q-7 -3 -14 -3q-26 0 -35 24q-3 7 -3 14q0 26 24 35q7 3 14 3zM903 -35q0 -57 -45 -91q-26 -20 -57 -20q-52 0 -59 39q-1 4 -1 8q0 29 23 39q6 3 13 3q30 0 38 -26q1 -5 1 -10q0 -25 -26 -39q13 0 27 7q30 16 30 56v466 l-40 13v7l96 57v-509zM713 636h-48q-42 0 -59 -54q-6 -19 -6 -38v-544h-36l-388 598v-481q0 -45 28 -75q16 -17 37 -17h38v-25h-236v25h49q39 0 58 52q7 21 7 40v483q0 22 -22 33q-7 4 -14 4h-52v24h128l383 -581v464q0 52 -29 79q-15 13 -35 13h-38v25h235v-25z" />
<glyph unicode="&#x1cc;" horiz-adv-x="797" d="M649 622q26 0 35 -24q3 -7 3 -14q0 -26 -24 -35q-7 -3 -14 -3q-26 0 -35 24q-3 7 -3 14q0 26 24 35q7 3 14 3zM683 -35q0 -57 -45 -91q-26 -20 -57 -20q-52 0 -59 39q-1 4 -1 8q0 29 23 39q6 3 13 3q30 0 38 -26q1 -5 1 -10q0 -25 -26 -39q13 0 27 7q30 16 30 56v466 l-40 13v7l96 57v-509zM488 0h-196v18h45q16 0 23 18q2 5 2 9v321q0 45 -39 68q-19 11 -41 11q-58 0 -121 -61q-3 -4 -7 -8v-331q0 -17 17 -25q5 -2 9 -2h44v-18h-196v18h45q18 0 24 20q1 3 1 7v331l-54 15v16l110 67v-71q62 62 129 68q7 1 13 1q118 -5 122 -75v-352 q0 -17 17 -25q4 -2 8 -2h45v-18z" />
<glyph unicode="&#x1cd;" horiz-adv-x="732" d="M266 813h25l76 -58h8l76 58h23l-95 -94h-17zM684 0h-202v25h41q17 0 21 17l-1 13l-92 265h-190l-88 -215q-4 -9 -4 -21q0 -35 28 -52q10 -7 23 -7h38v-25h-221v25h35q31 0 58 44q4 7 7 14l216 526l-14 38l43 39l222 -621q9 -26 44 -37q10 -3 19 -3h17v-25zM444 342 l-79 233l-96 -233h175z" />
<glyph unicode="&#x1ce;" horiz-adv-x="400" d="M72 600h25l76 -58h8l76 58h23l-95 -94h-17zM369 43q0 -26 -27 -44q-12 -8 -23 -8q-58 0 -71 44q-4 15 -5 37q-26 -50 -72 -72q-19 -9 -38 -9q-113 0 -113 113q0 72 80 113q7 4 92 38q32 13 51 25v104q0 38 -41 52q-12 4 -26 4q-45 0 -70 -15l1 -28q0 -7 -3 -18 q-13 -55 -33 -66q-7 -4 -17 -4q-20 0 -21 26l4 24q18 56 75 89q43 24 96 24q44 0 71 -30q20 -21 20 -53v-320q0 -33 25 -38q3 -1 6 -1q20 0 37 37q1 3 2 5v-29zM243 110v145q-108 -23 -149 -74q-18 -22 -18 -47q0 -81 38 -97q16 -7 50 -7q37 0 71 65z" />
<glyph unicode="&#x1cf;" horiz-adv-x="297" d="M56 788h25l76 -58h8l76 58h23l-95 -94h-17zM275 0h-230v24h53q21 0 32 23q3 7 3 14v539q0 21 -21 33q-7 4 -14 4h-53v24h230v-24h-52q-23 0 -32 -24q-3 -6 -3 -13v-539q0 -24 22 -34q6 -3 13 -3h52v-24z" />
<glyph unicode="&#x1d0;" horiz-adv-x="262" d="M-1 601h25l76 -58h8l76 58h23l-95 -94h-17zM228 0h-197v18h45q17 0 24 18q2 5 2 9v331l-53 18v13l108 67v-429q0 -17 17 -25q5 -2 9 -2h45v-18z" />
<glyph unicode="&#x1d1;" horiz-adv-x="710" d="M254 798h25l76 -58h8l76 58h23l-95 -94h-17zM359 -21q-153 0 -238 128q-64 96 -64 222q0 145 81 242q84 100 220 100q154 0 239 -123q63 -92 63 -217q0 -152 -81 -252q-83 -100 -220 -100zM358 0q125 0 192 123q47 87 47 204q0 141 -69 234q-65 89 -169 89 q-125 0 -191 -122q-48 -87 -48 -203q0 -147 71 -240q65 -85 167 -85z" />
<glyph unicode="&#x1d2;" horiz-adv-x="482" d="M138 599h25l76 -58h8l76 58h23l-95 -94h-17zM242 -9q-106 0 -158 100q-33 61 -33 140q0 114 62 184q52 57 129 57q105 0 158 -100q33 -61 33 -139q0 -117 -64 -186q-50 -56 -127 -56zM242 6q74 0 110 97q21 57 21 129q0 120 -52 183q-33 40 -79 40q-74 0 -110 -97 q-22 -57 -22 -128q0 -120 52 -184q33 -40 80 -40z" />
<glyph unicode="&#x1d3;" horiz-adv-x="656" d="M235 788h25l76 -58h8l76 58h23l-95 -94h-17zM638 637h-53q-23 0 -32 -24q-3 -6 -3 -13v-380q0 -103 -61 -173q-52 -59 -127 -59q-139 0 -189 51q-45 45 -45 142v419q0 21 -21 33q-7 4 -14 4h-53v24h231v-24h-53q-23 0 -32 -24q-3 -6 -3 -13v-468q0 -65 75 -102 q47 -23 101 -23q80 0 130 77q37 56 37 125v391q0 22 -21 33q-8 4 -15 4h-52v24h200v-24z" />
<glyph unicode="&#x1d4;" horiz-adv-x="524" d="M113 590h25l76 -58h8l76 58h23l-95 -94h-17zM477 65l-114 -74v74q-60 -74 -152 -74q-83 0 -113 61q-13 26 -13 61v305q0 17 -17 25q-4 2 -8 2h-45v18h126v-355q0 -65 57 -80q13 -4 28 -4q67 0 128 63q5 4 9 9v322q0 17 -17 25q-4 2 -8 2h-45v18h126v-365l58 -16v-17z" />
<glyph unicode="&#x1d5;" horiz-adv-x="656" d="M446 803h-215v45h215v-45zM416 770q26 0 35 -24q3 -7 3 -14q0 -26 -24 -35q-7 -3 -14 -3q-26 0 -35 24q-3 7 -3 14q0 26 24 35q7 3 14 3zM260 770q26 0 35 -24q3 -7 3 -14q0 -26 -24 -35q-7 -3 -14 -3q-26 0 -35 24q-3 7 -3 14q0 26 24 35q7 3 14 3zM638 637h-53 q-23 0 -32 -24q-3 -6 -3 -13v-380q0 -103 -61 -173q-52 -59 -127 -59q-139 0 -189 51q-45 45 -45 142v419q0 21 -21 33q-7 4 -14 4h-53v24h231v-24h-53q-23 0 -32 -24q-3 -6 -3 -13v-468q0 -65 75 -102q47 -23 101 -23q80 0 130 77q37 56 37 125v391q0 22 -21 33q-8 4 -15 4 h-52v24h200v-24z" />
<glyph unicode="&#x1d6;" horiz-adv-x="524" d="M324 605h-215v45h215v-45zM328 572q26 0 35 -24q3 -7 3 -14q0 -26 -24 -35q-7 -3 -14 -3q-26 0 -35 24q-3 7 -3 14q0 26 24 35q7 3 14 3zM172 572q26 0 35 -24q3 -7 3 -14q0 -26 -24 -35q-7 -3 -14 -3q-26 0 -35 24q-3 7 -3 14q0 26 24 35q7 3 14 3zM477 65l-114 -74v74 q-60 -74 -152 -74q-83 0 -113 61q-13 26 -13 61v305q0 17 -17 25q-4 2 -8 2h-45v18h126v-355q0 -65 57 -80q13 -4 28 -4q67 0 128 63q5 4 9 9v322q0 17 -17 25q-4 2 -8 2h-45v18h126v-365l58 -16v-17z" />
<glyph unicode="&#x1d7;" horiz-adv-x="656" d="M419 912l-128 -109h-33l85 109h76zM416 770q26 0 35 -24q3 -7 3 -14q0 -26 -24 -35q-7 -3 -14 -3q-26 0 -35 24q-3 7 -3 14q0 26 24 35q7 3 14 3zM260 770q26 0 35 -24q3 -7 3 -14q0 -26 -24 -35q-7 -3 -14 -3q-26 0 -35 24q-3 7 -3 14q0 26 24 35q7 3 14 3zM638 637h-53 q-23 0 -32 -24q-3 -6 -3 -13v-380q0 -103 -61 -173q-52 -59 -127 -59q-139 0 -189 51q-45 45 -45 142v419q0 21 -21 33q-7 4 -14 4h-53v24h231v-24h-53q-23 0 -32 -24q-3 -6 -3 -13v-468q0 -65 75 -102q47 -23 101 -23q80 0 130 77q37 56 37 125v391q0 22 -21 33q-8 4 -15 4 h-52v24h200v-24z" />
<glyph unicode="&#x1d8;" horiz-adv-x="524" d="M297 714l-128 -109h-33l85 109h76zM328 572q26 0 35 -24q3 -7 3 -14q0 -26 -24 -35q-7 -3 -14 -3q-26 0 -35 24q-3 7 -3 14q0 26 24 35q7 3 14 3zM172 572q26 0 35 -24q3 -7 3 -14q0 -26 -24 -35q-7 -3 -14 -3q-26 0 -35 24q-3 7 -3 14q0 26 24 35q7 3 14 3zM477 65 l-114 -74v74q-60 -74 -152 -74q-83 0 -113 61q-13 26 -13 61v305q0 17 -17 25q-4 2 -8 2h-45v18h126v-355q0 -65 57 -80q13 -4 28 -4q67 0 128 63q5 4 9 9v322q0 17 -17 25q-4 2 -8 2h-45v18h126v-365l58 -16v-17z" />
<glyph unicode="&#x1d9;" horiz-adv-x="656" d="M235 897h25l76 -58h8l76 58h23l-95 -94h-17zM416 770q26 0 35 -24q3 -7 3 -14q0 -26 -24 -35q-7 -3 -14 -3q-26 0 -35 24q-3 7 -3 14q0 26 24 35q7 3 14 3zM260 770q26 0 35 -24q3 -7 3 -14q0 -26 -24 -35q-7 -3 -14 -3q-26 0 -35 24q-3 7 -3 14q0 26 24 35q7 3 14 3z M638 637h-53q-23 0 -32 -24q-3 -6 -3 -13v-380q0 -103 -61 -173q-52 -59 -127 -59q-139 0 -189 51q-45 45 -45 142v419q0 21 -21 33q-7 4 -14 4h-53v24h231v-24h-53q-23 0 -32 -24q-3 -6 -3 -13v-468q0 -65 75 -102q47 -23 101 -23q80 0 130 77q37 56 37 125v391 q0 22 -21 33q-8 4 -15 4h-52v24h200v-24z" />
<glyph unicode="&#x1da;" horiz-adv-x="524" d="M113 699h25l76 -58h8l76 58h23l-95 -94h-17zM328 572q26 0 35 -24q3 -7 3 -14q0 -26 -24 -35q-7 -3 -14 -3q-26 0 -35 24q-3 7 -3 14q0 26 24 35q7 3 14 3zM172 572q26 0 35 -24q3 -7 3 -14q0 -26 -24 -35q-7 -3 -14 -3q-26 0 -35 24q-3 7 -3 14q0 26 24 35q7 3 14 3z M477 65l-114 -74v74q-60 -74 -152 -74q-83 0 -113 61q-13 26 -13 61v305q0 17 -17 25q-4 2 -8 2h-45v18h126v-355q0 -65 57 -80q13 -4 28 -4q67 0 128 63q5 4 9 9v322q0 17 -17 25q-4 2 -8 2h-45v18h126v-365l58 -16v-17z" />
<glyph unicode="&#x1db;" horiz-adv-x="656" d="M419 803h-33l-128 109h76zM416 770q26 0 35 -24q3 -7 3 -14q0 -26 -24 -35q-7 -3 -14 -3q-26 0 -35 24q-3 7 -3 14q0 26 24 35q7 3 14 3zM260 770q26 0 35 -24q3 -7 3 -14q0 -26 -24 -35q-7 -3 -14 -3q-26 0 -35 24q-3 7 -3 14q0 26 24 35q7 3 14 3zM638 637h-53 q-23 0 -32 -24q-3 -6 -3 -13v-380q0 -103 -61 -173q-52 -59 -127 -59q-139 0 -189 51q-45 45 -45 142v419q0 21 -21 33q-7 4 -14 4h-53v24h231v-24h-53q-23 0 -32 -24q-3 -6 -3 -13v-468q0 -65 75 -102q47 -23 101 -23q80 0 130 77q37 56 37 125v391q0 22 -21 33q-8 4 -15 4 h-52v24h200v-24z" />
<glyph unicode="&#x1dc;" horiz-adv-x="524" d="M297 605h-33l-128 109h76zM328 572q26 0 35 -24q3 -7 3 -14q0 -26 -24 -35q-7 -3 -14 -3q-26 0 -35 24q-3 7 -3 14q0 26 24 35q7 3 14 3zM172 572q26 0 35 -24q3 -7 3 -14q0 -26 -24 -35q-7 -3 -14 -3q-26 0 -35 24q-3 7 -3 14q0 26 24 35q7 3 14 3zM477 65l-114 -74v74 q-60 -74 -152 -74q-83 0 -113 61q-13 26 -13 61v305q0 17 -17 25q-4 2 -8 2h-45v18h126v-355q0 -65 57 -80q13 -4 28 -4q67 0 128 63q5 4 9 9v322q0 17 -17 25q-4 2 -8 2h-45v18h126v-365l58 -16v-17z" />
<glyph unicode="&#x1dd;" horiz-adv-x="457" d="M37 173h294l8 43v1q0 105 -53 159q-31 31 -73 31q-112 0 -167 -92q-3 -4 -5 -9v63q51 103 165 103q115 0 164 -99q27 -56 27 -135v-17q-4 -116 -72 -181q-51 -49 -125 -49q-80 0 -129 71q-34 50 -34 111zM100 145q0 -66 37 -108q26 -30 63 -30q93 0 124 130l2 8h-226z " />
<glyph unicode="&#x1de;" horiz-adv-x="732" d="M478 828h-215v45h215v-45zM448 795q26 0 35 -24q3 -7 3 -14q0 -26 -24 -35q-7 -3 -14 -3q-26 0 -35 24q-3 7 -3 14q0 26 24 35q7 3 14 3zM292 795q26 0 35 -24q3 -7 3 -14q0 -26 -24 -35q-7 -3 -14 -3q-26 0 -35 24q-3 7 -3 14q0 26 24 35q7 3 14 3zM684 0h-202v25h41 q17 0 21 17l-1 13l-92 265h-190l-88 -215q-4 -9 -4 -21q0 -35 28 -52q10 -7 23 -7h38v-25h-221v25h35q31 0 58 44q4 7 7 14l216 526l-14 38l43 39l222 -621q9 -26 44 -37q10 -3 19 -3h17v-25zM444 342l-79 233l-96 -233h175z" />
<glyph unicode="&#x1df;" horiz-adv-x="400" d="M284 614h-215v45h215v-45zM254 582q26 0 35 -24q3 -7 3 -14q0 -26 -24 -35q-7 -3 -14 -3q-26 0 -35 24q-3 7 -3 14q0 26 24 35q7 3 14 3zM98 582q26 0 35 -24q3 -7 3 -14q0 -26 -24 -35q-7 -3 -14 -3q-26 0 -35 24q-3 7 -3 14q0 26 24 35q7 3 14 3zM369 43q0 -26 -27 -44 q-12 -8 -23 -8q-58 0 -71 44q-4 15 -5 37q-26 -50 -72 -72q-19 -9 -38 -9q-113 0 -113 113q0 72 80 113q7 4 92 38q32 13 51 25v104q0 38 -41 52q-12 4 -26 4q-45 0 -70 -15l1 -28q0 -7 -3 -18q-13 -55 -33 -66q-7 -4 -17 -4q-20 0 -21 26l4 24q18 56 75 89q43 24 96 24 q44 0 71 -30q20 -21 20 -53v-320q0 -33 25 -38q3 -1 6 -1q20 0 37 37q1 3 2 5v-29zM243 110v145q-108 -23 -149 -74q-18 -22 -18 -47q0 -81 38 -97q16 -7 50 -7q37 0 71 65z" />
<glyph unicode="&#x1e0;" horiz-adv-x="732" d="M478 823h-215v45h215v-45zM406 754q0 -29 -27 -34h-18q-26 6 -26 34q0 29 27 35h17q27 -6 27 -35zM684 0h-202v25h41q17 0 21 17l-1 13l-92 265h-190l-88 -215q-4 -9 -4 -21q0 -35 28 -52q10 -7 23 -7h38v-25h-221v25h35q31 0 58 44q4 7 7 14l216 526l-14 38l43 39 l222 -621q9 -26 44 -37q10 -3 19 -3h17v-25zM444 342l-79 233l-96 -233h175z" />
<glyph unicode="&#x1e1;" horiz-adv-x="400" d="M284 609h-215v45h215v-45zM212 541q0 -29 -27 -34h-18q-26 6 -26 34q0 29 27 35h17q27 -6 27 -35zM369 43q0 -26 -27 -44q-12 -8 -23 -8q-58 0 -71 44q-4 15 -5 37q-26 -50 -72 -72q-19 -9 -38 -9q-113 0 -113 113q0 72 80 113q7 4 92 38q32 13 51 25v104q0 38 -41 52 q-12 4 -26 4q-45 0 -70 -15l1 -28q0 -7 -3 -18q-13 -55 -33 -66q-7 -4 -17 -4q-20 0 -21 26l4 24q18 56 75 89q43 24 96 24q44 0 71 -30q20 -21 20 -53v-320q0 -33 25 -38q3 -1 6 -1q20 0 37 37q1 3 2 5v-29zM243 110v145q-108 -23 -149 -74q-18 -22 -18 -47q0 -81 38 -97 q16 -7 50 -7q37 0 71 65z" />
<glyph unicode="&#x1e2;" horiz-adv-x="888" d="M592 694h-215v45h215v-45zM834 196l-53 -196h-456v24h53q21 0 32 23q3 7 3 14v293h-132l-102 -236q-5 -11 -5 -26q0 -43 26 -61q9 -6 20 -6h38v-25h-221v25h38q22 0 51 42q6 9 9 16l244 554h-54v24h465l44 -200h-21l-13 30q-41 94 -92 123q-32 17 -74 17h-128 q-28 0 -36 -35q-2 -7 -2 -15v-205h100q46 0 79 40q20 26 20 54v18h18v-254h-18v18q0 48 -43 80q-27 20 -56 20h-100v-272q0 -36 24 -47q6 -3 14 -3h128q105 0 161 124q3 5 5 11l13 31h21zM413 370v230q0 15 -13 28l-112 -258h125z" />
<glyph unicode="&#x1e3;" horiz-adv-x="644" d="M413 505h-215v45h215v-45zM580 290h-294q-3 -21 -3 -44q2 -101 53 -155q30 -31 68 -32l41 3q89 16 131 95v-63q-51 -103 -165 -103q-111 0 -160 96q-21 -51 -67 -80q-26 -16 -51 -16q-88 0 -108 74q-5 18 -5 39q0 79 82 114l97 33q14 7 21 14v118q0 40 -43 53 q-12 3 -24 3q-46 0 -70 -15l1 -28q0 -7 -3 -18q-13 -55 -32 -66q-7 -4 -18 -4q-20 0 -20 25q0 41 43 83q58 56 148 56q46 0 68 -36q8 -13 11 -30q58 66 143 66q72 0 121 -65q36 -47 36 -101q0 -8 -1 -16zM512 318l-3 35q-13 70 -54 94q-15 9 -31 9q-77 0 -116 -86 q-11 -24 -17 -52h221zM239 114q-18 51 -19 99v37q-6 -2 -30 -12q-65 -30 -84 -51q-20 -22 -20 -53q0 -78 49 -98q13 -6 29 -6l19 3q32 11 54 76q1 2 2 5z" />
<glyph unicode="&#x1e4;" horiz-adv-x="610" d="M602 189h-86v-121l-25 14q-67 -83 -187 -88l-42 2q-110 17 -174 134q-49 90 -49 202q0 128 71 227q75 105 181 105h5q80 -1 134 -42q14 -10 29 -24l43 60h23l13 -218h-14q-7 25 -18 46q-81 159 -199 160q-8 0 -16 -1q-91 -7 -148 -120q-47 -92 -47 -201q2 -135 65 -225 q59 -86 154 -86h5q91 3 141 78v98h-81v45h81v61q0 44 -33 44h-31v18h194v-18h-45q-27 -6 -30 -44v-61h86v-45z" />
<glyph unicode="&#x1e5;" horiz-adv-x="457" d="M523 -95h-92q-27 -74 -116 -104q-40 -13 -84 -13q-105 0 -162 50q-39 34 -39 86q1 50 56 97q20 17 40 26q-65 22 -65 59q0 56 94 66q-63 30 -76 109l-2 38q3 80 58 121q35 26 83 26q66 0 106 -47v21q0 10 1 16q4 30 32 35l17 -1q25 -6 28 -32l-2 -18q-8 -28 -34 -28 q-5 0 -9 1q-16 5 -25 19v-25q27 -41 28 -95q0 -63 -36 -106q-39 -48 -106 -48q-12 0 -18 1q-61 -5 -70 -8q-18 -6 -18 -20q0 -25 80 -44l129 -29q118 -33 120 -97v-11h82v-45zM218 176q53 0 75 70q10 32 10 69q0 84 -41 121q-19 17 -44 17q-53 0 -75 -70q-10 -32 -10 -69 q0 -84 41 -121q19 -17 44 -17zM382 -50q-18 41 -125 66l-112 26q-69 -49 -69 -118q1 -68 73 -100q38 -17 82 -17q80 0 126 47q22 23 28 51h-85v45h82z" />
<glyph unicode="&#x1e6;" horiz-adv-x="610" d="M184 791h25l76 -58h8l76 58h23l-95 -94h-17zM591 339h-45q-27 -6 -30 -44v-227l-25 14q-71 -88 -187 -88q-126 0 -202 116q-63 95 -63 222q0 132 74 231q75 101 183 101q79 0 134 -41q13 -11 29 -25l43 60h23l13 -218h-14q-27 99 -104 159q-60 46 -129 46 q-89 0 -147 -116q-48 -95 -48 -205q0 -129 63 -220q62 -91 161 -91q88 0 141 78v204q0 44 -33 44h-31v18h194v-18z" />
<glyph unicode="&#x1e7;" horiz-adv-x="457" d="M174 619h25l76 -58h8l76 58h23l-95 -94h-17zM441 -39q0 -90 -82 -140q-56 -33 -128 -33q-105 0 -163 51q-38 34 -38 85q0 46 53 93q21 20 43 30q-65 22 -65 59q0 56 94 66q-63 30 -76 111q-2 14 -2 29q0 73 49 119q38 35 92 35q66 0 106 -47v32q0 30 25 39q6 3 14 3 q30 0 38 -28q2 -7 2 -14q0 -27 -26 -36q-7 -3 -15 -3q-16 0 -30 16v-21q27 -40 27 -99q0 -75 -52 -119q-36 -31 -89 -31q-12 0 -18 1q-61 -5 -70 -8q-18 -6 -18 -20q0 -25 80 -43l128 -29q119 -32 121 -98zM218 176q53 0 76 65q11 31 11 67q0 78 -37 121q-22 24 -50 24 q-51 0 -74 -72q-10 -33 -10 -71q0 -81 41 -117q19 -17 43 -17zM387 -73q0 50 -101 80l-141 35q-69 -49 -69 -118q0 -67 72 -100q38 -17 83 -17q81 0 126 48q30 30 30 72z" />
<glyph unicode="&#x1e8;" horiz-adv-x="662" d="M213 788h25l76 -58h8l76 58h23l-95 -94h-17zM619 0h-195v25h30q15 0 15 13l-4 17q-2 5 -5 10l-198 295l-80 -80v-219q0 -24 21 -34q6 -3 13 -3h53v-24h-230v24h52q22 0 33 23q3 7 3 14v539q0 22 -21 33q-8 4 -15 4h-52v24h230v-24h-53q-22 0 -31 -24q-3 -6 -3 -13v-292 l196 206q42 45 46 83l-2 16q-8 23 -49 23h-19v25h242v-25q-95 -21 -209 -141l-84 -93l227 -339q14 -21 38 -34q8 -4 14 -4h37v-25z" />
<glyph unicode="&#x1e9;" horiz-adv-x="526" d="M-5 797h25l76 -58h8l76 58h23l-95 -94h-17zM496 0h-205v18h45q9 0 9 6l-5 14l-131 216l-55 -50v-159q0 -19 18 -26q3 -1 7 -1h45v-18h-196v18h44q17 0 24 18q2 5 2 9v527l-55 15v16l111 67v-453l130 123q30 29 32 68l-3 18q-7 21 -33 21h-29v16h225v-16q-62 -8 -119 -58 l-101 -92l161 -259q5 -14 26 -19q4 -1 7 -1h46v-18z" />
<glyph unicode="&#x1ea;" horiz-adv-x="710" d="M301 -21h42q-38 -6 -48 -49l-2 -26v-5q5 -35 65 -45l28 -1q34 4 57 36l20 -25q-34 -55 -96 -55h-4q-62 1 -93 42q-17 21 -17 48q0 54 48 80zM359 -21q-153 0 -238 128q-64 96 -64 222q0 145 81 242q84 100 220 100q154 0 239 -123q63 -92 63 -217q0 -152 -81 -252 q-83 -100 -220 -100zM358 0q125 0 192 123q47 87 47 204q0 141 -69 234q-65 89 -169 89q-125 0 -191 -122q-48 -87 -48 -203q0 -147 71 -240q65 -85 167 -85z" />
<glyph unicode="&#x1eb;" horiz-adv-x="482" d="M185 -9h42q-38 -6 -48 -49l-2 -26v-5q5 -35 65 -45l28 -1q34 4 57 36l20 -25q-34 -55 -96 -55h-4q-62 1 -93 42q-17 21 -17 48q0 54 48 80zM242 -9q-106 0 -158 100q-33 61 -33 140q0 114 62 184q52 57 129 57q105 0 158 -100q33 -61 33 -139q0 -117 -64 -186 q-50 -56 -127 -56zM242 6q74 0 110 97q21 57 21 129q0 120 -52 183q-33 40 -79 40q-74 0 -110 -97q-22 -57 -22 -128q0 -120 52 -184q33 -40 80 -40z" />
<glyph unicode="&#x1ec;" horiz-adv-x="710" d="M466 704h-215v45h215v-45zM301 -21h42q-38 -6 -48 -49l-2 -26v-5q5 -35 65 -45l28 -1q34 4 57 36l20 -25q-34 -55 -96 -55h-4q-62 1 -93 42q-17 21 -17 48q0 54 48 80zM359 -21q-153 0 -238 128q-64 96 -64 222q0 145 81 242q84 100 220 100q154 0 239 -123 q63 -92 63 -217q0 -152 -81 -252q-83 -100 -220 -100zM358 0q125 0 192 123q47 87 47 204q0 141 -69 234q-65 89 -169 89q-125 0 -191 -122q-48 -87 -48 -203q0 -147 71 -240q65 -85 167 -85z" />
<glyph unicode="&#x1ed;" horiz-adv-x="482" d="M349 505h-215v45h215v-45zM185 -9h42q-38 -6 -48 -49l-2 -26v-5q5 -35 65 -45l28 -1q34 4 57 36l20 -25q-34 -55 -96 -55h-4q-62 1 -93 42q-17 21 -17 48q0 54 48 80zM242 -9q-106 0 -158 100q-33 61 -33 140q0 114 62 184q52 57 129 57q105 0 158 -100q33 -61 33 -139 q0 -117 -64 -186q-50 -56 -127 -56zM242 6q74 0 110 97q21 57 21 129q0 120 -52 183q-33 40 -79 40q-74 0 -110 -97q-22 -57 -22 -128q0 -120 52 -184q33 -40 80 -40z" />
<glyph unicode="&#x1ee;" horiz-adv-x="490" d="M169 799h25l76 -58h8l76 58h23l-95 -94h-17zM448 672l-190 -247q139 -30 179 -130q13 -33 13 -69q0 -90 -71 -157q-71 -69 -176 -69q-61 0 -97 42q-21 25 -21 56v6q3 45 40 56l19 2q32 -4 39 -34l1 -15q-1 -44 -38 -44q-5 0 -11 1q6 -25 36 -38q11 -4 20 -4q56 0 116 34 q84 49 84 134q0 105 -107 151q-56 24 -124 24v29l206 254h-156q-46 0 -78 -68q-13 -29 -17 -56l-16 10l23 132h326z" />
<glyph unicode="&#x1ef;" horiz-adv-x="465" d="M152 591h25l76 -58h8l76 58h23l-95 -94h-17zM85 -116q3 45 40 56l19 2q32 -4 39 -34l1 -15q-1 -44 -38 -44q-5 0 -11 1q6 -25 36 -38q11 -4 20 -4q45 0 97 43q63 52 68 125l-2 34q-12 71 -68 118q-41 35 -87 35h-23v29l155 254h-121q-46 0 -78 -68q-13 -29 -17 -56 l-16 10l23 132h291l-148 -247q107 -32 144 -130q14 -38 14 -81q0 -99 -68 -165q-60 -58 -152 -61l-31 3q-56 12 -78 58q-9 18 -9 38v5z" />
<glyph unicode="&#x1f0;" horiz-adv-x="287" d="M21 601h25l76 -58h8l76 58h23l-95 -94h-17zM173 -35q0 -58 -47 -92q-26 -18 -55 -19l-24 3q-35 9 -35 43l3 18q10 24 36 25l16 -3q20 -8 20 -29l-3 -16q-3 -7 -8 -12q-10 -12 -16 -15q13 0 27 7q30 16 30 56v466l-40 13v7l96 57v-509z" />
<glyph unicode="&#x1f1;" horiz-adv-x="1232" d="M1188 206l-59 -206h-430v21l399 615h-170q-60 0 -119 -48q-41 -34 -52 -73l-13 -46h-23l45 192h405v-22l-391 -614h184q71 0 137 67q30 31 46 65l22 47zM619 347q0 -127 -87 -228q-92 -108 -228 -118q-12 -1 -25 -1h-256v24h53q21 0 32 23q3 7 3 14v539q0 21 -21 33 q-7 4 -14 4h-53v24h356q145 0 207 -143q33 -76 33 -171zM346 631h-143q-26 0 -35 -34q-2 -8 -2 -16v-501q0 -33 22 -46q7 -4 15 -4h94q119 0 195 103q66 89 66 210q0 136 -71 219q-56 65 -141 69z" />
<glyph unicode="&#x1f2;" horiz-adv-x="1054" d="M1014 463l-273 -445h112q51 0 98 64q18 25 27 50l15 -7l-38 -127h-293l270 447h-121q-46 0 -78 -68q-13 -29 -17 -56l-16 10l23 132h291zM619 347q0 -127 -87 -228q-92 -108 -228 -118q-12 -1 -25 -1h-256v24h53q21 0 32 23q3 7 3 14v539q0 21 -21 33q-7 4 -14 4h-53v24 h356q145 0 207 -143q33 -76 33 -171zM346 631h-143q-26 0 -35 -34q-2 -8 -2 -16v-501q0 -33 22 -46q7 -4 15 -4h94q119 0 195 103q66 89 66 210q0 136 -71 219q-56 65 -141 69z" />
<glyph unicode="&#x1f3;" horiz-adv-x="891" d="M851 463l-273 -445h112q51 0 98 64q18 25 27 50l15 -7l-38 -127h-293l270 447h-121q-46 0 -78 -68q-13 -29 -17 -56l-16 10l23 132h291zM430 45l-79 -54v30q-49 -30 -118 -30q-117 0 -169 101q-30 57 -30 136q0 101 61 175q57 69 138 69q72 0 118 -40v163l-48 10l3 16 l101 59v-604l23 -10v-21zM351 121v177q0 103 -28 131q-23 25 -90 25q-87 0 -115 -118q-11 -44 -11 -97q0 -170 74 -216q24 -15 54 -15q92 0 112 91q2 10 4 22z" />
<glyph unicode="&#x1f4;" horiz-adv-x="610" d="M369 806l-128 -109h-33l85 109h76zM591 339h-45q-27 -6 -30 -44v-227l-25 14q-71 -88 -187 -88q-126 0 -202 116q-63 95 -63 222q0 132 74 231q75 101 183 101q79 0 134 -41q13 -11 29 -25l43 60h23l13 -218h-14q-27 99 -104 159q-60 46 -129 46q-89 0 -147 -116 q-48 -95 -48 -205q0 -129 63 -220q62 -91 161 -91q88 0 141 78v204q0 44 -33 44h-31v18h194v-18z" />
<glyph unicode="&#x1f5;" horiz-adv-x="457" d="M359 634l-128 -109h-33l85 109h76zM441 -39q0 -90 -82 -140q-56 -33 -128 -33q-105 0 -163 51q-38 34 -38 85q0 46 53 93q21 20 43 30q-65 22 -65 59q0 56 94 66q-63 30 -76 111q-2 14 -2 29q0 73 49 119q38 35 92 35q66 0 106 -47v32q0 30 25 39q6 3 14 3q30 0 38 -28 q2 -7 2 -14q0 -27 -26 -36q-7 -3 -15 -3q-16 0 -30 16v-21q27 -40 27 -99q0 -75 -52 -119q-36 -31 -89 -31q-12 0 -18 1q-61 -5 -70 -8q-18 -6 -18 -20q0 -25 80 -43l128 -29q119 -32 121 -98zM218 176q53 0 76 65q11 31 11 67q0 78 -37 121q-22 24 -50 24q-51 0 -74 -72 q-10 -33 -10 -71q0 -81 41 -117q19 -17 43 -17zM387 -73q0 50 -101 80l-141 35q-69 -49 -69 -118q0 -67 72 -100q38 -17 83 -17q81 0 126 48q30 30 30 72z" />
<glyph unicode="&#x1f6;" horiz-adv-x="869" d="M560 600v-495q0 -46 49 -68q23 -11 51 -11q51 0 78 40q16 22 16 51v300q0 17 -17 25q-4 2 -8 2h-45v18h126v-303q0 -133 -111 -155q-19 -4 -39 -4q-72 0 -118 42q-37 33 -37 85v209h-317v-275q0 -24 22 -34q6 -3 13 -3h52v-24h-230v24h53q21 0 32 23q3 7 3 14v539 q0 21 -21 33q-7 4 -14 4h-53v24h230v-24h-52q-23 0 -32 -24q-3 -6 -3 -13v-243h317v243q0 21 -21 33q-7 4 -14 4h-53v24h231v-24h-53q-23 0 -32 -24q-3 -6 -3 -13z" />
<glyph unicode="&#x1f7;" horiz-adv-x="524" d="M476 243q0 -109 -170 -246l-146 -110v-69l-127 -31v18l48 23q18 9 22 30q1 2 1 5v503l-43 23v16l99 60v-58q44 58 107 64q7 1 13 1q157 0 188 -142q8 -38 8 -87zM406 239q0 131 -79 192q-30 23 -54 23q-63 0 -97 -73q-16 -35 -16 -67v-395q17 16 106 84q85 65 114 121 q26 51 26 115z" />
<glyph unicode="&#x1f8;" horiz-adv-x="730" d="M471 694h-33l-128 109h76zM713 636h-48q-42 0 -59 -54q-6 -19 -6 -38v-544h-36l-388 598v-481q0 -45 28 -75q16 -17 37 -17h38v-25h-236v25h49q39 0 58 52q7 21 7 40v483q0 22 -22 33q-7 4 -14 4h-52v24h128l383 -581v464q0 52 -29 79q-15 13 -35 13h-38v25h235v-25z" />
<glyph unicode="&#x1f9;" horiz-adv-x="510" d="M311 507h-33l-128 109h76zM488 0h-196v18h45q16 0 23 18q2 5 2 9v321q0 45 -39 68q-19 11 -41 11q-58 0 -121 -61q-3 -4 -7 -8v-331q0 -17 17 -25q5 -2 9 -2h44v-18h-196v18h45q18 0 24 20q1 3 1 7v331l-54 15v16l110 67v-71q62 62 129 68q7 1 13 1q118 -5 122 -75v-352 q0 -17 17 -25q4 -2 8 -2h45v-18z" />
<glyph unicode="&#x1fa;" horiz-adv-x="732" d="M451 919l-128 -109h-33l85 109h76zM684 0h-202v25h41q17 0 21 17l-1 13l-92 265h-190l-88 -215q-4 -9 -4 -20q0 -12 5 -25q14 -35 46 -35h38v-25h-221v25h35q31 0 58 44q4 7 7 14l216 526l-9 25q-39 15 -43 61l2 26q11 45 53 54l19 2q52 -1 68 -46q4 -12 4 -25 q0 -47 -38 -67q-4 -2 -9 -4l204 -570q9 -26 44 -37q10 -3 19 -3h17v-25zM374 748l-18 -3q-25 -10 -25 -40q0 -31 28 -40q6 -2 14 -2q34 0 41 31l1 19q-4 29 -33 34q-4 1 -8 1zM444 342l-79 233l-96 -233h175z" />
<glyph unicode="&#x1fb;" horiz-adv-x="400" d="M280 800l-128 -109h-33l85 109h76zM201 658q52 -1 68 -46q5 -13 5 -26q-1 -46 -39 -66q-16 -8 -36 -9l-24 3q-41 11 -47 56v26q7 45 47 58q12 4 26 4zM201 629l-18 -3q-25 -10 -25 -40q0 -31 28 -40q6 -2 14 -2q34 0 41 31l1 19q-4 29 -33 34q-4 1 -8 1zM369 43 q0 -26 -27 -44q-12 -8 -23 -8q-58 0 -71 44q-4 15 -5 37q-26 -50 -72 -72q-19 -9 -38 -9q-113 0 -113 113q0 72 80 113q7 4 92 38q32 13 51 25v104q0 38 -41 52q-12 4 -26 4q-45 0 -70 -15l1 -28q0 -7 -3 -18q-13 -55 -33 -66q-7 -4 -17 -4q-20 0 -21 26l4 24q18 56 75 89 q43 24 96 24q44 0 71 -30q20 -21 20 -53v-320q0 -33 25 -38q3 -1 6 -1q20 0 37 37q1 3 2 5v-29zM243 110v145q-108 -23 -149 -74q-18 -22 -18 -47q0 -81 38 -97q16 -7 50 -7q37 0 71 65z" />
<glyph unicode="&#x1fc;" horiz-adv-x="888" d="M565 803l-128 -109h-33l85 109h76zM834 196l-53 -196h-456v24h53q21 0 32 23q3 7 3 14v293h-132l-102 -236q-5 -11 -5 -26q0 -43 26 -61q9 -6 20 -6h38v-25h-221v25h38q22 0 51 42q6 9 9 16l244 554h-54v24h465l44 -200h-21l-13 30q-41 94 -92 123q-32 17 -74 17h-128 q-28 0 -36 -35q-2 -7 -2 -15v-205h100q46 0 79 40q20 26 20 54v18h18v-254h-18v18q0 48 -43 80q-27 20 -56 20h-100v-272q0 -36 24 -47q6 -3 14 -3h128q105 0 161 124q3 5 5 11l13 31h21zM413 370v230q0 15 -13 28l-112 -258h125z" />
<glyph unicode="&#x1fd;" horiz-adv-x="644" d="M386 614l-128 -109h-33l85 109h76zM580 290h-294q-3 -21 -3 -44q2 -101 53 -155q30 -31 68 -32l41 3q89 16 131 95v-63q-51 -103 -165 -103q-111 0 -160 96q-21 -51 -67 -80q-26 -16 -51 -16q-88 0 -108 74q-5 18 -5 39q0 79 82 114l97 33q14 7 21 14v118q0 40 -43 53 q-12 3 -24 3q-46 0 -70 -15l1 -28q0 -7 -3 -18q-13 -55 -32 -66q-7 -4 -18 -4q-20 0 -20 25q0 41 43 83q58 56 148 56q46 0 68 -36q8 -13 11 -30q58 66 143 66q72 0 121 -65q36 -47 36 -101q0 -8 -1 -16zM512 318l-3 35q-13 70 -54 94q-15 9 -31 9q-77 0 -116 -86 q-11 -24 -17 -52h221zM239 114q-18 51 -19 99v37q-6 -2 -30 -12q-65 -30 -84 -51q-20 -22 -20 -53q0 -78 49 -98q13 -6 29 -6l19 3q32 11 54 76q1 2 2 5z" />
<glyph unicode="&#x1fe;" horiz-adv-x="710" d="M439 837l-128 -109h-33l85 109h76zM581 695l-49 -80q98 -75 122 -218q6 -35 6 -71q0 -46 -9 -90q-30 -143 -133 -211q-69 -46 -159 -46q-106 0 -181 61l-50 -81h-45l66 108q-87 94 -92 246v16q0 145 81 242q83 100 220 100q78 0 142 -35l36 59h45zM512 582l-312 -506 q63 -76 158 -76q126 0 193 124q47 89 47 206q0 144 -74 238zM483 609q-54 41 -124 41q-127 0 -193 -127q-45 -89 -45 -206q0 -116 55 -207z" />
<glyph unicode="&#x1ff;" horiz-adv-x="515" d="M322 619l-128 -109h-33l85 109h76zM406 477l-37 -60q64 -69 64 -186q0 -115 -63 -184q-51 -56 -128 -56q-67 0 -115 42l-33 -52h-47l52 83q-49 68 -49 171q0 114 64 182q51 55 128 55q56 0 96 -28l21 33h47zM320 416q-32 39 -78 39q-74 0 -110 -93q-22 -56 -22 -127 q0 -72 18 -125zM344 378l-196 -311q36 -61 94 -61q74 0 110 96q21 57 21 128q0 87 -29 148z" />
<glyph unicode="&#x200;" horiz-adv-x="732" d="M505 719h-28l-109 93h64zM373 719h-28l-109 93h65zM684 0h-202v25h41q17 0 21 17l-1 13l-92 265h-190l-88 -215q-4 -9 -4 -21q0 -35 28 -52q10 -7 23 -7h38v-25h-221v25h35q31 0 58 44q4 7 7 14l216 526l-14 38l43 39l222 -621q9 -26 44 -37q10 -3 19 -3h17v-25zM444 342 l-79 233l-96 -233h175z" />
<glyph unicode="&#x201;" horiz-adv-x="400" d="M311 506h-28l-109 93h64zM179 506h-28l-109 93h65zM369 43q0 -26 -27 -44q-12 -8 -23 -8q-58 0 -71 44q-4 15 -5 37q-26 -50 -72 -72q-19 -9 -38 -9q-113 0 -113 113q0 72 80 113q7 4 92 38q32 13 51 25v104q0 38 -41 52q-12 4 -26 4q-45 0 -70 -15l1 -28q0 -7 -3 -18 q-13 -55 -33 -66q-7 -4 -17 -4q-20 0 -21 26l4 24q18 56 75 89q43 24 96 24q44 0 71 -30q20 -21 20 -53v-320q0 -33 25 -38q3 -1 6 -1q20 0 37 37q1 3 2 5v-29zM243 110v145q-108 -23 -149 -74q-18 -22 -18 -47q0 -81 38 -97q16 -7 50 -7q37 0 71 65z" />
<glyph unicode="&#x202;" horiz-adv-x="732" d="M474 719h-24q-20 44 -80 44q-66 0 -79 -44h-24q6 60 57 85q22 11 47 11q60 0 89 -53q11 -19 14 -43zM684 0h-202v25h41q17 0 21 17l-1 13l-92 265h-190l-88 -215q-4 -9 -4 -21q0 -35 28 -52q10 -7 23 -7h38v-25h-221v25h35q31 0 58 44q4 7 7 14l216 526l-14 38l43 39 l222 -621q9 -26 44 -37q10 -3 19 -3h17v-25zM444 342l-79 233l-96 -233h175z" />
<glyph unicode="&#x203;" horiz-adv-x="400" d="M280 506h-24q-20 44 -80 44q-66 0 -79 -44h-24q6 60 57 85q22 11 47 11q60 0 89 -53q11 -19 14 -43zM369 43q0 -26 -27 -44q-12 -8 -23 -8q-58 0 -71 44q-4 15 -5 37q-26 -50 -72 -72q-19 -9 -38 -9q-113 0 -113 113q0 72 80 113q7 4 92 38q32 13 51 25v104q0 38 -41 52 q-12 4 -26 4q-45 0 -70 -15l1 -28q0 -7 -3 -18q-13 -55 -33 -66q-7 -4 -17 -4q-20 0 -21 26l4 24q18 56 75 89q43 24 96 24q44 0 71 -30q20 -21 20 -53v-320q0 -33 25 -38q3 -1 6 -1q20 0 37 37q1 3 2 5v-29zM243 110v145q-108 -23 -149 -74q-18 -22 -18 -47q0 -81 38 -97 q16 -7 50 -7q37 0 71 65z" />
<glyph unicode="&#x204;" horiz-adv-x="584" d="M410 694h-28l-109 93h64zM278 694h-28l-109 93h65zM530 196l-52 -196h-456v24h53q21 0 32 23q3 7 3 14v539q0 21 -21 33q-7 4 -14 4h-53v24h464l44 -200h-20l-13 30q-41 94 -92 123q-32 17 -74 17h-128q-28 0 -36 -35q-2 -7 -2 -15v-205h100q46 0 79 40q20 26 20 54v18 h18v-254h-18v18q0 48 -43 80q-27 20 -56 20h-100v-272q0 -36 24 -47q6 -3 14 -3h128q105 0 161 124q3 5 5 11l13 31h20z" />
<glyph unicode="&#x205;" horiz-adv-x="457" d="M348 505h-28l-109 93h64zM216 505h-28l-109 93h65zM394 290h-294l-8 -43v-1q0 -105 53 -159q31 -31 73 -31q108 0 162 84q6 8 10 17v-63q-51 -103 -165 -103q-127 0 -173 119q-21 55 -21 132q0 107 66 174q54 56 134 56t129 -71q34 -50 34 -111zM331 318q0 66 -37 108 q-26 30 -63 30q-93 0 -124 -130l-2 -8h226z" />
<glyph unicode="&#x206;" horiz-adv-x="584" d="M379 694h-24q-20 44 -80 44q-66 0 -79 -44h-24q6 60 57 85q22 11 47 11q60 0 89 -53q11 -19 14 -43zM530 196l-52 -196h-456v24h53q21 0 32 23q3 7 3 14v539q0 21 -21 33q-7 4 -14 4h-53v24h464l44 -200h-20l-13 30q-41 94 -92 123q-32 17 -74 17h-128q-28 0 -36 -35 q-2 -7 -2 -15v-205h100q46 0 79 40q20 26 20 54v18h18v-254h-18v18q0 48 -43 80q-27 20 -56 20h-100v-272q0 -36 24 -47q6 -3 14 -3h128q105 0 161 124q3 5 5 11l13 31h20z" />
<glyph unicode="&#x207;" horiz-adv-x="457" d="M317 505h-24q-20 44 -80 44q-66 0 -79 -44h-24q6 60 57 85q22 11 47 11q60 0 89 -53q11 -19 14 -43zM394 290h-294l-8 -43v-1q0 -105 53 -159q31 -31 73 -31q108 0 162 84q6 8 10 17v-63q-51 -103 -165 -103q-127 0 -173 119q-21 55 -21 132q0 107 66 174q54 56 134 56 t129 -71q34 -50 34 -111zM331 318q0 66 -37 108q-26 30 -63 30q-93 0 -124 -130l-2 -8h226z" />
<glyph unicode="&#x208;" horiz-adv-x="297" d="M294 694h-28l-109 93h64zM162 694h-28l-109 93h65zM275 0h-230v24h53q21 0 32 23q3 7 3 14v539q0 21 -21 33q-7 4 -14 4h-53v24h230v-24h-52q-23 0 -32 -24q-3 -6 -3 -13v-539q0 -24 22 -34q6 -3 13 -3h52v-24z" />
<glyph unicode="&#x209;" horiz-adv-x="262" d="M237 507h-28l-109 93h64zM105 507h-28l-109 93h65zM228 0h-197v18h45q17 0 24 18q2 5 2 9v331l-53 18v13l108 67v-429q0 -17 17 -25q5 -2 9 -2h45v-18z" />
<glyph unicode="&#x20a;" horiz-adv-x="297" d="M263 694h-24q-20 44 -80 44q-66 0 -79 -44h-24q6 60 57 85q22 11 47 11q60 0 89 -53q11 -19 14 -43zM275 0h-230v24h53q21 0 32 23q3 7 3 14v539q0 21 -21 33q-7 4 -14 4h-53v24h230v-24h-52q-23 0 -32 -24q-3 -6 -3 -13v-539q0 -24 22 -34q6 -3 13 -3h52v-24z" />
<glyph unicode="&#x20b;" horiz-adv-x="262" d="M206 507h-24q-20 44 -80 44q-66 0 -79 -44h-24q6 60 57 85q22 11 47 11q60 0 89 -53q11 -19 14 -43zM228 0h-197v18h45q17 0 24 18q2 5 2 9v331l-53 18v13l108 67v-429q0 -17 17 -25q5 -2 9 -2h45v-18z" />
<glyph unicode="&#x20c;" horiz-adv-x="710" d="M493 704h-28l-109 93h64zM361 704h-28l-109 93h65zM359 -21q-153 0 -238 128q-64 96 -64 222q0 145 81 242q84 100 220 100q154 0 239 -123q63 -92 63 -217q0 -152 -81 -252q-83 -100 -220 -100zM358 0q125 0 192 123q47 87 47 204q0 141 -69 234q-65 89 -169 89 q-125 0 -191 -122q-48 -87 -48 -203q0 -147 71 -240q65 -85 167 -85z" />
<glyph unicode="&#x20d;" horiz-adv-x="482" d="M376 505h-28l-109 93h64zM244 505h-28l-109 93h65zM242 -9q-106 0 -158 100q-33 61 -33 140q0 114 62 184q52 57 129 57q105 0 158 -100q33 -61 33 -139q0 -117 -64 -186q-50 -56 -127 -56zM242 6q74 0 110 97q21 57 21 129q0 120 -52 183q-33 40 -79 40q-74 0 -110 -97 q-22 -57 -22 -128q0 -120 52 -184q33 -40 80 -40z" />
<glyph unicode="&#x20e;" horiz-adv-x="710" d="M462 704h-24q-20 44 -80 44q-66 0 -79 -44h-24q6 60 57 85q22 11 47 11q60 0 89 -53q11 -19 14 -43zM359 -21q-153 0 -238 128q-64 96 -64 222q0 145 81 242q84 100 220 100q154 0 239 -123q63 -92 63 -217q0 -152 -81 -252q-83 -100 -220 -100zM358 0q125 0 192 123 q47 87 47 204q0 141 -69 234q-65 89 -169 89q-125 0 -191 -122q-48 -87 -48 -203q0 -147 71 -240q65 -85 167 -85z" />
<glyph unicode="&#x20f;" horiz-adv-x="482" d="M345 505h-24q-20 44 -80 44q-66 0 -79 -44h-24q6 60 57 85q22 11 47 11q60 0 89 -53q11 -19 14 -43zM242 -9q-106 0 -158 100q-33 61 -33 140q0 114 62 184q52 57 129 57q105 0 158 -100q33 -61 33 -139q0 -117 -64 -186q-50 -56 -127 -56zM242 6q74 0 110 97 q21 57 21 129q0 120 -52 183q-33 40 -79 40q-74 0 -110 -97q-22 -57 -22 -128q0 -120 52 -184q33 -40 80 -40z" />
<glyph unicode="&#x210;" horiz-adv-x="627" d="M380 694h-28l-109 93h64zM248 694h-28l-109 93h65zM601 0h-64q-50 0 -80 49q-2 4 -5 8l-176 310h-107v-306q0 -24 22 -34q6 -3 13 -3h52v-24h-230v24h53q21 0 32 23q3 7 3 14v538q0 23 -21 34q-7 4 -14 4h-53v24h293q78 0 121 -56q27 -36 27 -83q0 -78 -61 -124 q-32 -24 -72 -29l173 -297q16 -26 51 -46q17 -10 30 -10h13v-16zM284 631h-115v-239h114q78 0 109 70q13 29 13 66q0 61 -59 89q-28 14 -62 14z" />
<glyph unicode="&#x211;" horiz-adv-x="345" d="M316 505h-28l-109 93h64zM184 505h-28l-109 93h65zM311 438q0 -30 -32 -40q-9 -3 -19 -3q-42 0 -45 27q0 3 3 6q-34 -7 -70 -51v-332q0 -17 17 -25q4 -2 8 -2h45v-18h-196v18h45q16 0 23 18q2 5 2 9v345l-40 16v6l96 57v-67q47 52 83 64q17 6 34 6q36 0 45 -24 q1 -5 1 -10z" />
<glyph unicode="&#x212;" horiz-adv-x="627" d="M349 694h-24q-20 44 -80 44q-66 0 -79 -44h-24q6 60 57 85q22 11 47 11q60 0 89 -53q11 -19 14 -43zM601 0h-64q-50 0 -80 49q-2 4 -5 8l-176 310h-107v-306q0 -24 22 -34q6 -3 13 -3h52v-24h-230v24h53q21 0 32 23q3 7 3 14v538q0 23 -21 34q-7 4 -14 4h-53v24h293 q78 0 121 -56q27 -36 27 -83q0 -78 -61 -124q-32 -24 -72 -29l173 -297q16 -26 51 -46q17 -10 30 -10h13v-16zM284 631h-115v-239h114q78 0 109 70q13 29 13 66q0 61 -59 89q-28 14 -62 14z" />
<glyph unicode="&#x213;" horiz-adv-x="345" d="M285 505h-24q-20 44 -80 44q-66 0 -79 -44h-24q6 60 57 85q22 11 47 11q60 0 89 -53q11 -19 14 -43zM311 438q0 -30 -32 -40q-9 -3 -19 -3q-42 0 -45 27q0 3 3 6q-34 -7 -70 -51v-332q0 -17 17 -25q4 -2 8 -2h45v-18h-196v18h45q16 0 23 18q2 5 2 9v345l-40 16v6l96 57 v-67q47 52 83 64q17 6 34 6q36 0 45 -24q1 -5 1 -10z" />
<glyph unicode="&#x214;" horiz-adv-x="656" d="M473 694h-28l-109 93h64zM341 694h-28l-109 93h65zM638 637h-53q-23 0 -32 -24q-3 -6 -3 -13v-380q0 -103 -61 -173q-52 -59 -127 -59q-139 0 -189 51q-45 45 -45 142v419q0 21 -21 33q-7 4 -14 4h-53v24h231v-24h-53q-23 0 -32 -24q-3 -6 -3 -13v-468q0 -65 75 -102 q47 -23 101 -23q80 0 130 77q37 56 37 125v391q0 22 -21 33q-8 4 -15 4h-52v24h200v-24z" />
<glyph unicode="&#x215;" horiz-adv-x="524" d="M351 496h-28l-109 93h64zM219 496h-28l-109 93h65zM477 65l-114 -74v74q-60 -74 -152 -74q-83 0 -113 61q-13 26 -13 61v305q0 17 -17 25q-4 2 -8 2h-45v18h126v-355q0 -65 57 -80q13 -4 28 -4q67 0 128 63q5 4 9 9v322q0 17 -17 25q-4 2 -8 2h-45v18h126v-365l58 -16 v-17z" />
<glyph unicode="&#x216;" horiz-adv-x="656" d="M442 694h-24q-20 44 -80 44q-66 0 -79 -44h-24q6 60 57 85q22 11 47 11q60 0 89 -53q11 -19 14 -43zM638 637h-53q-23 0 -32 -24q-3 -6 -3 -13v-380q0 -103 -61 -173q-52 -59 -127 -59q-139 0 -189 51q-45 45 -45 142v419q0 21 -21 33q-7 4 -14 4h-53v24h231v-24h-53 q-23 0 -32 -24q-3 -6 -3 -13v-468q0 -65 75 -102q47 -23 101 -23q80 0 130 77q37 56 37 125v391q0 22 -21 33q-8 4 -15 4h-52v24h200v-24z" />
<glyph unicode="&#x217;" horiz-adv-x="524" d="M320 496h-24q-20 44 -80 44q-66 0 -79 -44h-24q6 60 57 85q22 11 47 11q60 0 89 -53q11 -19 14 -43zM477 65l-114 -74v74q-60 -74 -152 -74q-83 0 -113 61q-13 26 -13 61v305q0 17 -17 25q-4 2 -8 2h-45v18h126v-355q0 -65 57 -80q13 -4 28 -4q67 0 128 63q5 4 9 9v322 q0 17 -17 25q-4 2 -8 2h-45v18h126v-365l58 -16v-17z" />
<glyph unicode="&#x218;" horiz-adv-x="502" d="M302 -131q-9 -23 -19 -35q-21 -28 -47 -41q-17 -9 -36 -13l-13 15q15 4 26 14q16 12 18 27v17q0 3 -2 5q-23 14 -23 45q0 36 30 49q10 5 22 5h5q39 -2 48 -39l1 -21q-1 -16 -10 -28zM466 174q0 -76 -55 -130q-56 -54 -148 -54q-48 0 -97 31q-30 19 -46 19q-15 0 -48 -42 h-11l-11 217h14q32 -116 104 -171q43 -32 93 -32q79 0 124 46q30 30 30 73q0 96 -98 150q-25 14 -129 54q-98 38 -129 80q-24 32 -24 75q0 84 70 140q55 44 126 44q65 0 102 -29q22 -18 40 -18q16 0 45 39q2 2 3 4h11l12 -218h-14q-29 111 -98 168q-46 37 -99 37 q-65 0 -109 -51q-30 -36 -30 -81q0 -73 89 -122q16 -9 121 -54t138 -95q24 -35 24 -80z" />
<glyph unicode="&#x219;" horiz-adv-x="385" d="M240 -130q-9 -23 -19 -35q-21 -28 -47 -41q-17 -9 -36 -13l-13 15q15 4 26 14q16 12 18 27v17q0 3 -2 5q-23 14 -23 45q0 36 30 49q10 5 22 5h5q39 -2 48 -39l1 -21q-1 -16 -10 -28zM332 119q0 -70 -61 -107q-35 -21 -78 -21q-47 0 -132 35v110h3q8 -59 58 -99 q36 -28 78 -28q48 0 72 45q11 22 11 46q0 45 -63 79l-97 50q-79 46 -79 118q0 67 61 103q36 22 81 22q52 0 122 -32v-110h-2q-14 76 -63 107q-23 15 -50 15q-60 0 -87 -35q-11 -15 -11 -34q0 -53 64 -91l99 -53q74 -47 74 -120z" />
<glyph unicode="&#x21a;" horiz-adv-x="741" d="M418 -121q-9 -23 -19 -35q-21 -28 -47 -41q-17 -9 -36 -13l-13 15q15 4 26 14q16 12 18 27v17q0 3 -2 5q-23 14 -23 45q0 36 30 49q10 5 22 5h5q39 -2 48 -39l1 -21q-1 -16 -10 -28zM710 490l-20 -1q-20 77 -91 117q-42 24 -88 24h-80q-26 0 -35 -34q-2 -8 -2 -16v-519 q0 -24 22 -34q6 -3 13 -3h53v-24h-231v24h53q21 0 32 23q3 7 3 14v519q0 37 -24 48q-6 2 -13 2h-41q-106 0 -160 -69q-24 -31 -32 -72l-22 1l58 171h548z" />
<glyph unicode="&#x21b;" horiz-adv-x="265" d="M205 -130q-9 -23 -19 -35q-21 -28 -47 -41q-17 -9 -36 -13l-13 15q15 4 26 14q16 12 18 27v17q0 3 -2 5q-23 14 -23 45q0 36 30 49q10 5 22 5h5q39 -2 48 -39l1 -21q-1 -16 -10 -28zM223 64q-4 -35 -34 -57q-21 -16 -50 -16q-55 0 -55 82v340h-56v22l94 125l18 -14v-90 h81l-16 -43h-65v-348q0 -21 24 -28q5 -1 10 -1q23 0 41 33q5 8 6 14z" />
<glyph unicode="&#x21c;" horiz-adv-x="539" d="M48 -137v30q33 47 100 97q56 42 102 54q138 34 160 110q5 17 5 36q0 72 -49 108q-6 5 -12 8q-22 12 -51 12q-25 0 -54 -10l-28 -10v38l27 10q108 38 137 89q15 27 15 62q0 74 -58 111q-33 20 -74 20q-98 0 -146 -109q-12 -26 -21 -59h-24q13 126 13 205h24q6 -36 27 -36 q9 0 44 15q47 20 112 20q143 0 165 -121q4 -21 4 -44q0 -79 -54 -116q-21 -15 -55 -27l-8 -3q-6 -2 -6 -4l9 -2h8q111 0 126 -122q2 -17 2 -36q0 -103 -108 -153q-40 -19 -102 -34q-120 -30 -216 -125q-7 -6 -14 -14z" />
<glyph unicode="&#x21d;" horiz-adv-x="464" d="M179 230l19 7q81 30 98 73q5 15 5 33q0 58 -48 82q-20 10 -44 10q-75 0 -109 -92q-4 -11 -8 -25h-17l3 23q6 56 7 120h16q4 -25 19 -25q7 0 17 5l6 2q46 18 86 18q99 0 136 -60q15 -25 15 -56q0 -48 -54 -84q-13 -8 -37 -21l-5 -3q-4 -1 -4 -3q0 -1 6 -1l6 1h24 q47 -8 70 -59q10 -23 10 -47q0 -84 -112 -118q-31 -9 -68 -13q-75 -8 -125 -59q-8 -8 -18 -20v29q22 38 74 63q24 12 49 16q103 15 115 87q1 8 1 16q0 56 -42 79q-19 11 -39 11q-16 0 -33 -7l-19 -7v25z" />
<glyph unicode="&#x21e;" horiz-adv-x="695" d="M242 788h25l76 -58h8l76 58h23l-95 -94h-17zM648 0h-231v24h53q21 0 32 23q3 7 3 14v275h-317v-275q0 -24 22 -34q6 -3 13 -3h52v-24h-230v24h53q21 0 32 23q3 7 3 14v539q0 21 -21 33q-7 4 -14 4h-53v24h230v-24h-52q-23 0 -32 -24q-3 -6 -3 -13v-243h317v243 q0 21 -21 33q-7 4 -14 4h-53v24h231v-24h-53q-23 0 -32 -24q-3 -6 -3 -13v-539q0 -24 22 -34q6 -3 13 -3h53v-24z" />
<glyph unicode="&#x21f;" horiz-adv-x="510" d="M-5 792h25l76 -58h8l76 58h23l-95 -94h-17zM488 0h-196v18h45q16 0 23 18q2 5 2 9v321q0 45 -39 68q-19 11 -41 11q-57 0 -116 -59q-7 -6 -12 -12v-329q0 -19 18 -26q3 -1 7 -1h45v-18h-196v18h44q17 0 24 18q2 5 2 9v522l-55 16v15l111 67v-263q52 55 116 67q14 3 26 3 q108 0 120 -57q2 -8 2 -18v-352q0 -17 17 -25q4 -2 8 -2h45v-18z" />
<glyph unicode="&#x222;" horiz-adv-x="580" d="M245 607l34 -2q68 -12 110 -66q25 -32 26 -63l-3 -27q-13 -57 -112 -101q-16 -7 -39 -16q118 -49 156 -76q51 -38 53 -84l-2 -29q-13 -69 -94 -112q-63 -34 -141 -34q-153 0 -217 75q-31 36 -31 84v5q2 72 94 120q20 11 51 24q-105 59 -111 132v4l3 25q15 60 99 91 q53 20 115 20l-3 -22l-40 -2q-70 -11 -91 -55q-5 -12 -5 -29q3 -58 97 -105q16 -9 37 -18q97 42 115 95q6 17 6 35v7q-2 47 -43 80q-29 25 -66 26zM387 145q-2 40 -81 79l-147 67q-99 -50 -102 -111q0 -139 130 -160q22 -3 46 -3q82 0 127 52q27 31 27 71v5z" />
<glyph unicode="&#x223;" horiz-adv-x="472" d="M158 564l15 -19l-15 -14q-21 -24 -21 -58v-4q2 -61 76 -112q8 -5 17 -11q71 45 82 108q2 14 2 29q0 28 -19 48q-5 6 -8 9l15 25l31 -23q24 -22 25 -66l-3 -31q-11 -56 -85 -102q-8 -5 -19 -11q81 -48 107 -75q36 -38 38 -85l-2 -36q-14 -75 -78 -115q-40 -24 -85 -24 q-106 0 -150 75q-22 36 -22 84v5q1 75 73 126q12 8 28 18q-77 62 -77 136q0 81 75 123zM338 145q-1 42 -65 86l-93 60q-71 -48 -71 -111q0 -146 100 -161q10 -2 22 -2q57 0 88 52q19 31 19 71v5z" />
<glyph unicode="&#x224;" horiz-adv-x="582" d="M49 0v21l399 615h-170q-60 0 -119 -48q-41 -34 -52 -73l-13 -46h-23l45 192h405v-22l-391 -614h314q88 0 88 -65q0 -40 -77 -82l-8 -5v10l23 26q17 25 17 42q0 34 -32 45q-10 4 -21 4h-385z" />
<glyph unicode="&#x225;" horiz-adv-x="404" d="M12 0l270 445h-121q-46 0 -78 -68q-13 -29 -17 -56l-16 10l23 132h291l-273 -445h152q68 -6 71 -58q0 -40 -77 -82l-8 -5v10l23 26q17 25 17 42q0 34 -32 45q-10 4 -21 4h-204z" />
<glyph unicode="&#x226;" horiz-adv-x="732" d="M406 754q0 -29 -27 -34h-18q-26 6 -26 34q0 29 27 35h17q27 -6 27 -35zM684 0h-202v25h41q17 0 21 17l-1 13l-92 265h-190l-88 -215q-4 -9 -4 -21q0 -35 28 -52q10 -7 23 -7h38v-25h-221v25h35q31 0 58 44q4 7 7 14l216 526l-14 38l43 39l222 -621q9 -26 44 -37 q10 -3 19 -3h17v-25zM444 342l-79 233l-96 -233h175z" />
<glyph unicode="&#x227;" horiz-adv-x="400" d="M212 541q0 -29 -27 -34h-18q-26 6 -26 34q0 29 27 35h17q27 -6 27 -35zM369 43q0 -26 -27 -44q-12 -8 -23 -8q-58 0 -71 44q-4 15 -5 37q-26 -50 -72 -72q-19 -9 -38 -9q-113 0 -113 113q0 72 80 113q7 4 92 38q32 13 51 25v104q0 38 -41 52q-12 4 -26 4q-45 0 -70 -15 l1 -28q0 -7 -3 -18q-13 -55 -33 -66q-7 -4 -17 -4q-20 0 -21 26l4 24q18 56 75 89q43 24 96 24q44 0 71 -30q20 -21 20 -53v-320q0 -33 25 -38q3 -1 6 -1q20 0 37 37q1 3 2 5v-29zM243 110v145q-108 -23 -149 -74q-18 -22 -18 -47q0 -81 38 -97q16 -7 50 -7q37 0 71 65z" />
<glyph unicode="&#x228;" horiz-adv-x="584" d="M368 -109l-2 -37q-10 -63 -84 -75q-19 -3 -47 -4l-52 -1v34l57 5q74 6 74 57q0 32 -40 42q-10 3 -21 3h-38v85h33v-38h28q49 0 77 -34q15 -17 15 -37zM530 196l-52 -196h-456v24h53q21 0 32 23q3 7 3 14v539q0 21 -21 33q-7 4 -14 4h-53v24h464l44 -200h-20l-13 30 q-41 94 -92 123q-32 17 -74 17h-128q-28 0 -36 -35q-2 -7 -2 -15v-205h100q46 0 79 40q20 26 20 54v18h18v-254h-18v18q0 48 -43 80q-27 20 -56 20h-100v-272q0 -36 24 -47q6 -3 14 -3h128q105 0 161 124q3 5 5 11l13 31h20z" />
<glyph unicode="&#x229;" horiz-adv-x="457" d="M305 -118l-2 -37q-10 -63 -84 -75q-19 -3 -47 -4l-52 -1v34l57 5q74 6 74 57q0 32 -40 42q-10 3 -21 3h-38v85h33v-38h28q49 0 77 -34q15 -17 15 -37zM394 290h-294l-8 -43v-1q0 -105 53 -159q31 -31 73 -31q108 0 162 84q6 8 10 17v-63q-51 -103 -165 -103 q-127 0 -173 119q-21 55 -21 132q0 107 66 174q54 56 134 56t129 -71q34 -50 34 -111zM331 318q0 66 -37 108q-26 30 -63 30q-93 0 -124 -130l-2 -8h226z" />
<glyph unicode="&#x22a;" horiz-adv-x="710" d="M466 813h-215v45h215v-45zM436 780q26 0 35 -24q3 -7 3 -14q0 -26 -24 -35q-7 -3 -14 -3q-26 0 -35 24q-3 7 -3 14q0 26 24 35q7 3 14 3zM280 780q26 0 35 -24q3 -7 3 -14q0 -26 -24 -35q-7 -3 -14 -3q-26 0 -35 24q-3 7 -3 14q0 26 24 35q7 3 14 3zM359 -21 q-153 0 -238 128q-64 96 -64 222q0 145 81 242q84 100 220 100q154 0 239 -123q63 -92 63 -217q0 -152 -81 -252q-83 -100 -220 -100zM358 0q125 0 192 123q47 87 47 204q0 141 -69 234q-65 89 -169 89q-125 0 -191 -122q-48 -87 -48 -203q0 -147 71 -240q65 -85 167 -85z " />
<glyph unicode="&#x22b;" horiz-adv-x="482" d="M349 614h-215v45h215v-45zM319 581q26 0 35 -24q3 -7 3 -14q0 -26 -24 -35q-7 -3 -14 -3q-26 0 -35 24q-3 7 -3 14q0 26 24 35q7 3 14 3zM163 581q26 0 35 -24q3 -7 3 -14q0 -26 -24 -35q-7 -3 -14 -3q-26 0 -35 24q-3 7 -3 14q0 26 24 35q7 3 14 3zM242 -9 q-106 0 -158 100q-33 61 -33 140q0 114 62 184q52 57 129 57q105 0 158 -100q33 -61 33 -139q0 -117 -64 -186q-50 -56 -127 -56zM242 6q74 0 110 97q21 57 21 129q0 120 -52 183q-33 40 -79 40q-74 0 -110 -97q-22 -57 -22 -128q0 -120 52 -184q33 -40 80 -40z" />
<glyph unicode="&#x22c;" horiz-adv-x="710" d="M466 815h-215v45h215v-45zM257 705q1 43 39 67q18 11 36 11l16 -3q4 -2 33 -23q11 -8 20 -8q34 3 54 30h5l-2 -23q-9 -40 -40 -49l-15 -2q-23 1 -48 22q-15 13 -26 13q-40 -1 -62 -35h-10zM359 -21q-153 0 -238 128q-64 96 -64 222q0 145 81 242q84 100 220 100 q154 0 239 -123q63 -92 63 -217q0 -152 -81 -252q-83 -100 -220 -100zM358 0q125 0 192 123q47 87 47 204q0 141 -69 234q-65 89 -169 89q-125 0 -191 -122q-48 -87 -48 -203q0 -147 71 -240q65 -85 167 -85z" />
<glyph unicode="&#x22d;" horiz-adv-x="482" d="M349 616h-215v45h215v-45zM141 506q1 43 39 67q18 11 36 11l16 -3q4 -2 33 -23q11 -8 20 -8q34 3 54 30h5l-2 -23q-9 -40 -40 -49l-15 -2q-23 1 -48 22q-15 13 -26 13q-40 -1 -62 -35h-10zM242 -9q-106 0 -158 100q-33 61 -33 140q0 114 62 184q52 57 129 57 q105 0 158 -100q33 -61 33 -139q0 -117 -64 -186q-50 -56 -127 -56zM242 6q74 0 110 97q21 57 21 129q0 120 -52 183q-33 40 -79 40q-74 0 -110 -97q-22 -57 -22 -128q0 -120 52 -184q33 -40 80 -40z" />
<glyph unicode="&#x22e;" horiz-adv-x="710" d="M394 739q0 -29 -27 -34h-18q-26 6 -26 34q0 29 27 35h17q27 -6 27 -35zM359 -21q-153 0 -238 128q-64 96 -64 222q0 145 81 242q84 100 220 100q154 0 239 -123q63 -92 63 -217q0 -152 -81 -252q-83 -100 -220 -100zM358 0q125 0 192 123q47 87 47 204q0 141 -69 234 q-65 89 -169 89q-125 0 -191 -122q-48 -87 -48 -203q0 -147 71 -240q65 -85 167 -85z" />
<glyph unicode="&#x22f;" horiz-adv-x="482" d="M277 541q0 -29 -27 -34h-18q-26 6 -26 34q0 29 27 35h17q27 -6 27 -35zM242 -9q-106 0 -158 100q-33 61 -33 140q0 114 62 184q52 57 129 57q105 0 158 -100q33 -61 33 -139q0 -117 -64 -186q-50 -56 -127 -56zM242 6q74 0 110 97q21 57 21 129q0 120 -52 183 q-33 40 -79 40q-74 0 -110 -97q-22 -57 -22 -128q0 -120 52 -184q33 -40 80 -40z" />
<glyph unicode="&#x230;" horiz-adv-x="710" d="M466 808h-215v45h215v-45zM394 739q0 -29 -27 -34h-18q-26 6 -26 34q0 29 27 35h17q27 -6 27 -35zM359 -21q-153 0 -238 128q-64 96 -64 222q0 145 81 242q84 100 220 100q154 0 239 -123q63 -92 63 -217q0 -152 -81 -252q-83 -100 -220 -100zM358 0q125 0 192 123 q47 87 47 204q0 141 -69 234q-65 89 -169 89q-125 0 -191 -122q-48 -87 -48 -203q0 -147 71 -240q65 -85 167 -85z" />
<glyph unicode="&#x231;" horiz-adv-x="482" d="M349 609h-215v45h215v-45zM277 541q0 -29 -27 -34h-18q-26 6 -26 34q0 29 27 35h17q27 -6 27 -35zM242 -9q-106 0 -158 100q-33 61 -33 140q0 114 62 184q52 57 129 57q105 0 158 -100q33 -61 33 -139q0 -117 -64 -186q-50 -56 -127 -56zM242 6q74 0 110 97q21 57 21 129 q0 120 -52 183q-33 40 -79 40q-74 0 -110 -97q-22 -57 -22 -128q0 -120 52 -184q33 -40 80 -40z" />
<glyph unicode="&#x232;" horiz-adv-x="653" d="M442 694h-215v45h215v-45zM621 636h-35q-41 0 -114 -95q-6 -7 -10 -13l-135 -189v-278q0 -24 21 -34q6 -3 13 -3h53v-24h-231v24h53q21 0 32 23q4 7 4 14v273l-149 257q-20 35 -54 43q-7 2 -13 2h-8v25h190v-25h-29q-34 0 -34 -20l3 -18q3 -5 6 -11l132 -230l103 150 q44 64 44 99q1 16 -10 23q-9 7 -26 7h-26v25h220v-25z" />
<glyph unicode="&#x233;" horiz-adv-x="440" d="M330 496h-215v45h215v-45zM439 445h-19q-28 0 -56 -43q-4 -7 -7 -12l-210 -443q-20 -38 -61 -38q-35 0 -44 34q-2 8 -2 15q0 31 25 42q7 3 15 3q36 0 41 -31q1 -4 1 -7q0 -23 -23 -33q21 0 35 28l2 4l40 85l-4 2l-109 370q-4 15 -24 22q-4 2 -8 2h-25v18h159v-18h-28 q-19 0 -19 -20l1 -10l90 -293l110 238q8 18 8 40q0 45 -35 45h-23v18h170v-18z" />
<glyph unicode="&#x250;" horiz-adv-x="400" d="M20 419q0 26 27 44q12 8 23 8q58 0 71 -46q4 -14 5 -35q29 54 76 74q17 7 34 7q113 0 113 -113q0 -74 -80 -114q-7 -3 -92 -37q-32 -13 -51 -25v-104q0 -41 43 -53q12 -3 24 -3q43 0 70 15l-1 28q1 7 3 18q13 56 33 66q7 4 17 4q19 0 19 -22q0 -38 -43 -81 q-61 -60 -153 -60q-44 0 -61 41q-7 18 -7 42v320q0 29 -20 37l-11 2q-20 -1 -37 -37q-1 -3 -2 -5v29zM146 352v-145q99 22 144 69q23 25 23 52q0 81 -35 97q-16 7 -53 7q-38 0 -72 -66z" />
<glyph unicode="&#x251;" horiz-adv-x="487" d="M444 54l-93 -63v30q-49 -30 -118 -30q-113 0 -166 96q-33 58 -33 141q0 108 63 181q55 63 136 63q72 0 118 -40l56 34v-376l37 -14v-22zM351 121v177q0 103 -28 131q-23 25 -90 25q-77 0 -110 -104q-16 -51 -16 -111q0 -180 81 -220q21 -11 47 -11q80 0 104 62 q8 21 12 51z" />
<glyph unicode="&#x252;" horiz-adv-x="487" d="M0 398l113 79v-35q49 30 118 30q102 0 158 -86q41 -63 41 -151q0 -108 -64 -180q-55 -63 -135 -64l-39 3q-45 8 -79 37l-56 -34v355l-57 20v26zM113 342v-177q0 -104 28 -133q24 -23 86 -23h4q90 0 117 124q9 42 9 91q0 163 -70 213q-25 18 -58 18q-80 0 -104 -63 q-8 -21 -12 -50z" />
<glyph unicode="&#x253;" horiz-adv-x="489" d="M126 608v-180q49 44 121 44q181 0 195 -193q1 -17 1 -36q0 -109 -68 -187q-57 -65 -128 -65q-81 0 -128 41l-49 -41v0v583q0 113 128 113q72 0 98 -38q8 -11 8 -25q0 -24 -26 -27l-18 1q-28 9 -28 39q0 11 6 21q-12 15 -42 15q-35 0 -57 -28q-13 -16 -13 -37zM373 239 q0 132 -77 192q-31 23 -57 23q-78 0 -104 -76q-9 -26 -9 -56v-202q16 -112 121 -112q69 0 104 96q22 60 22 135z" />
<glyph unicode="&#x254;" horiz-adv-x="424" d="M21 353q33 74 95 105q29 14 60 14q113 0 164 -104q28 -58 28 -131q0 -100 -68 -176q-62 -70 -141 -70q-75 0 -114 60q-17 28 -17 56q-1 20 9 33q11 13 31 13q34 0 46 -43l3 -27q0 -10 -2 -20q-4 -16 -15 -30q20 -20 44 -22h15q81 0 120 82q20 43 20 94q0 223 -134 223 q-87 0 -144 -104v47z" />
<glyph unicode="&#x255;" horiz-adv-x="424" d="M341 66q-50 -64 -103 -73q-12 -2 -25 -2q-62 0 -106 33q-12 -39 -12 -80q0 -8 -10 -12l-7 1q-3 3 -3 11q0 48 15 94q-69 66 -69 188q0 106 71 181q60 65 138 65l32 -3q63 -14 90 -70q10 -22 10 -42l-3 -21q-9 -26 -38 -26q-34 0 -46 43l-3 27q0 10 2 20q4 16 15 30 q-20 20 -44 22h-15q-70 0 -112 -74q-28 -48 -28 -102q0 -111 31 -164q50 89 117 111q16 5 32 5q67 0 90 -53q7 -17 7 -37q1 -39 -26 -72zM270 190q-59 0 -114 -69q-11 -14 -20 -30q35 -38 88 -38q76 0 104 49q9 15 9 32q0 22 -15 38q-19 18 -52 18z" />
<glyph unicode="&#x256;" horiz-adv-x="548" d="M407 -43q0 -41 43 -59q14 -6 27 -6q22 0 42 15q-6 11 -6 21q0 32 30 39l18 1q24 -5 24 -27q0 -37 -50 -54q-25 -9 -56 -9q-128 0 -128 113v30q-49 -30 -118 -30q-107 0 -162 91q-37 61 -37 146q0 123 72 193q53 50 127 51l39 -3q45 -8 79 -37v163l-48 10l3 16l101 59 v-723zM351 121v177q0 103 -28 131q-23 25 -90 25q-93 -1 -118 -130q-8 -39 -8 -85q0 -175 78 -219q22 -12 50 -12q82 0 106 68q7 19 10 45z" />
<glyph unicode="&#x257;" horiz-adv-x="546" d="M408 608l-1 -532l23 -10v-21l-79 -54v30q-49 -30 -118 -30q-125 0 -174 108q-25 55 -25 129q0 108 64 180q55 63 135 64l39 -3q45 -8 79 -37l1 142q1 113 128 113q72 0 98 -38q8 -11 8 -25q0 -24 -26 -27l-18 1q-28 9 -28 39q0 11 6 21q-35 15 -42 15q-35 0 -57 -28 q-13 -16 -13 -37zM351 121v177q0 103 -28 131q-23 25 -90 25q-90 -1 -117 -125q-9 -41 -9 -90q0 -163 70 -213q25 -18 58 -18q77 0 101 53q10 23 15 60z" />
<glyph unicode="&#x258;" horiz-adv-x="457" d="M37 290q0 84 58 139q45 43 105 43q104 0 161 -90q39 -61 39 -140q0 -157 -89 -220q-45 -31 -105 -31q-114 0 -165 103v63q50 -95 159 -101h13q67 0 103 79q23 50 23 111q0 2 -7 39q-1 3 -1 5h-294zM100 318h226q-35 133 -126 138q-59 0 -87 -70q-13 -33 -13 -68z" />
<glyph unicode="&#x259;" horiz-adv-x="457" d="M37 173h294l8 43v1q0 107 -54 160q-31 30 -72 30q-112 0 -167 -92q-3 -4 -5 -9v63q51 103 165 103q130 0 175 -124q19 -53 19 -127q0 -107 -66 -175q-54 -55 -134 -55t-129 71q-34 50 -34 111zM100 145q0 -66 37 -108q26 -30 63 -30q93 0 124 130l2 8h-226z" />
<glyph unicode="&#x25a;" horiz-adv-x="594" d="M570 173q-35 -46 -64 -49q-53 0 -73 84l-4 20q-9 -17 -32 -24h-1q-10 -118 -85 -176q-47 -37 -111 -37q-98 0 -139 85q-10 22 -15 48l296 89q0 81 -37 139q-34 55 -92 55q-112 0 -167 -92q-3 -4 -5 -9v63q51 103 165 103q115 0 164 -99q27 -56 27 -136v-6q27 15 40 40 l2 4l9 -52q20 -75 56 -75q24 0 44 35q5 9 12 10l8 -3q4 -4 4 -9zM337 185l-227 -66q3 -84 57 -106q15 -6 33 -6q66 0 108 82q22 43 29 96z" />
<glyph unicode="&#x25b;" horiz-adv-x="464" d="M269 253l1 -25h-19q-47 0 -75 -14q-37 -21 -42 -74q-1 -5 -1 -11q0 -61 55 -89q27 -14 61 -14q77 0 116 67q6 10 10 22l21 -7q-31 -93 -132 -108q-17 -3 -35 -3q-102 0 -153 58q-27 32 -27 73q0 73 77 101q14 6 31 9l5 1q6 2 6 3q0 2 -5 2l-5 1q-76 13 -90 76 q-3 11 -3 24q0 72 71 101q34 15 79 15q41 0 86 -18l7 -2q10 -5 17 -5q15 0 18 25h17q0 -50 7 -120l2 -23h-16q-29 104 -97 115q-10 2 -21 2q-57 0 -81 -46q-11 -21 -11 -46q0 -67 65 -85q20 -5 43 -5h18z" />
<glyph unicode="&#x25c;" horiz-adv-x="464" d="M175 253h19q82 0 102 58q5 15 5 32q0 58 -48 82q-20 10 -44 10q-75 0 -109 -92q-4 -11 -8 -25h-17l3 23q6 56 7 120h16q4 -25 19 -25q7 0 17 5l6 2q46 18 86 18q99 0 136 -60q15 -25 15 -56q0 -68 -65 -93q-13 -4 -28 -7l-5 -1q-5 0 -5 -2t6 -3l5 -1q88 -17 105 -83 q3 -13 3 -27q0 -69 -70 -106q-47 -25 -110 -25q-110 0 -155 83q-7 13 -12 28l21 7q28 -71 96 -86q15 -3 30 -3q71 0 102 52q14 23 14 51q0 51 -35 80q-4 3 -8 5q-28 14 -75 14h-19v25z" />
<glyph unicode="&#x25d;" horiz-adv-x="579" d="M567 312q-35 -46 -64 -49q-53 0 -73 84l-4 20q-9 -17 -32 -24l-14 -4q-3 -64 -66 -87q-13 -5 -27 -7l-5 -1q-5 0 -5 -2t6 -3l5 -1q88 -17 105 -83q3 -13 3 -27q0 -69 -70 -106q-47 -25 -110 -25q-110 0 -155 83q-7 13 -12 28l21 7q28 -71 96 -86q15 -3 30 -3q71 0 102 52 q14 23 14 51q0 51 -35 80q-4 3 -8 5q-28 14 -75 14h-19v25h19q82 0 102 58q5 15 5 32q0 58 -48 82q-20 10 -44 10q-75 0 -109 -92q-4 -11 -8 -25h-17l3 23q6 56 7 120h16q4 -25 19 -25q7 0 17 5l6 2q46 18 86 18q98 0 136 -59q11 -17 14 -38l8 3q22 7 42 34q5 7 7 13l9 -52 q20 -75 56 -75q24 0 44 35q5 9 12 10l8 -3q4 -4 4 -9z" />
<glyph unicode="&#x25e;" horiz-adv-x="494" d="M427 305q0 -51 -46 -74q41 -26 46 -92q0 -100 -91 -135q-36 -13 -80 -13q-98 0 -165 84q-55 69 -55 149q0 91 59 164q62 78 153 78q111 0 156 -73q23 -36 23 -88zM246 419q-95 0 -146 -74q-35 -50 -35 -118q0 -97 73 -152q50 -38 118 -38q71 0 117 38q29 24 29 54 q0 46 -32 66q-14 8 -30 8l-161 2q-44 1 -49 19l1 8q9 15 48 16l161 3q42 1 58 47q4 14 4 27q0 70 -96 89q-28 5 -60 5z" />
<glyph unicode="&#x25f;" horiz-adv-x="287" d="M244 22h-71v-57q0 -58 -47 -92q-26 -18 -55 -19l-24 3q-35 9 -35 43l3 18q10 24 36 25l16 -3q20 -8 20 -29l-3 -16q-3 -7 -8 -12q-10 -12 -16 -15q13 0 27 7q30 16 30 56v91h-75v56h75v332q0 22 -21 22h-37v42h168v-42h-34q-12 0 -18 -15q-2 -3 -2 -7v-332h71v-56z" />
<glyph unicode="&#x260;" horiz-adv-x="457" d="M217 -212q-108 0 -158 56q-27 31 -27 75v12q0 10 1 16q4 30 32 35l17 -1q25 -6 28 -32l-2 -18q-8 -28 -34 -28q-5 0 -9 1q-13 4 -16 8q-1 2 -3 4q0 -65 90 -95q41 -14 81 -14q68 0 108 65q26 42 26 91v58q-49 -30 -118 -30q-125 0 -174 108q-25 55 -25 129q0 108 64 180 q55 63 135 64l39 -3q45 -8 79 -37v87q0 113 128 113q72 0 98 -38q8 -11 8 -25q0 -24 -26 -27l-18 1q-28 9 -28 39q0 10 6 21q-11 15 -42 15q-34 0 -56 -27q-14 -16 -14 -38v-590q0 -100 -79 -147q-47 -28 -111 -28zM351 121v177q0 103 -28 131q-23 25 -90 25 q-90 -1 -117 -125q-9 -41 -9 -90q0 -161 68 -212q26 -19 60 -19q77 0 101 53q10 23 15 60z" />
<glyph unicode="&#x261;" horiz-adv-x="457" d="M407 488v-525q0 -100 -79 -147q-47 -28 -111 -28q-108 0 -158 56q-27 31 -27 75v12q0 10 1 16q4 30 32 35l17 -1q25 -6 28 -32l-2 -18q-8 -28 -34 -28q-5 0 -9 1l-11 2q-1 1 -3 4q1 -48 78 -78q46 -18 88 -18q71 0 110 63q24 39 24 86v58q-49 -30 -118 -30 q-125 0 -174 108q-25 55 -25 129q0 108 64 180q55 63 135 64l39 -3q45 -8 79 -37v28zM351 121v177q0 103 -28 131q-23 25 -90 25q-90 -1 -117 -125q-9 -41 -9 -90q0 -161 68 -212q26 -19 60 -19q77 0 101 53q10 23 15 60z" />
<glyph unicode="&#x262;" horiz-adv-x="482" d="M457 234h-31q-20 0 -21 -31v-159l-27 10q-53 -59 -139 -62q-91 0 -151 84q-49 69 -49 153q0 93 63 166q58 66 131 66q64 0 108 -37q5 -4 10 -9l30 42h20l9 -152h-13q-6 18 -13 32q-54 107 -155 107q-63 0 -105 -85q-31 -63 -31 -136q1 -101 55 -164q41 -49 102 -49 q63 0 94 45q2 2 4 5v143q0 31 -23 31h-21v16h153v-16z" />
<glyph unicode="&#x263;" horiz-adv-x="542" d="M501 445h-10q-45 0 -90 -75q-12 -20 -19 -38l-125 -265l37 -113q7 -21 7 -45q0 -25 -7 -45q-20 -56 -82 -56q-58 0 -62 53l2 29q2 9 5 18l53 116l-132 380q-15 42 -49 42h-11v16h174v-16h-39q-19 0 -19 -20q0 -9 4 -23l104 -309l112 230q23 59 23 80l-3 18q-9 23 -47 23 h-21v17h195v-17zM249 -86l-27 84l-44 -92q-6 -17 -6 -34q0 -38 36 -38q49 0 49 41l-3 26q-2 6 -5 13z" />
<glyph unicode="&#x264;" horiz-adv-x="546" d="M28 420q35 42 80 42q59 0 89 -32q21 -22 35 -62l94 -266q6 -17 6 -33q0 -12 -3 -22q-13 -40 -60 -46l-18 -1q-30 2 -42 35l-3 20q0 10 4 19l122 292q28 66 50 83q17 13 38 13q32 0 64 -27q14 -12 18 -15v-27l-45 36q-17 11 -37 11q-34 0 -59 -53l-17 -41l-114 -270 q-4 -10 -4 -21l3 -17q7 -16 24 -16q25 0 25 31l-3 23q-1 1 -1 2l-102 286q-21 59 -44 71q-9 5 -20 5q-31 0 -80 -47v27z" />
<glyph unicode="&#x265;" horiz-adv-x="510" d="M28 472h196v-18h-45q-16 0 -23 -18q-2 -5 -2 -9v-321q0 -45 39 -68q19 -11 41 -11q57 0 116 59q7 6 12 12v329q0 19 -18 26q-3 1 -7 1h-45v18h196v-18h-44q-17 0 -24 -18q-2 -5 -2 -9v-522l55 -16v-15l-111 -67v263q-52 -55 -116 -67q-14 -3 -26 -3q-122 0 -122 75v352 q0 17 -17 25q-4 2 -8 2h-45v18z" />
<glyph unicode="&#x266;" horiz-adv-x="510" d="M488 0h-196v18h45q16 0 23 18q2 5 2 9v321q0 46 -40 69q-18 10 -40 10q-57 0 -116 -59q-7 -6 -12 -12v-329q0 -19 18 -26q3 -1 7 -1h45v-18h-196v18h44q17 0 24 18q2 5 2 9v529q0 113 128 113q72 0 98 -38q8 -11 8 -25q0 -24 -26 -27l-18 1q-28 9 -28 39q0 11 6 21 q-15 15 -42 15q-35 0 -57 -28q-13 -16 -13 -37v-206q52 55 116 67q14 3 26 3q122 0 122 -75v-352q0 -17 17 -25q4 -2 8 -2h45v-18z" />
<glyph unicode="&#x267;" horiz-adv-x="510" d="M418 -27q0 -113 -128 -113q-72 0 -98 38q-8 11 -8 25q0 24 26 27l18 -1q28 -9 28 -39q0 -10 -6 -21q35 -15 42 -15q35 0 57 28q13 16 13 37v427q0 45 -39 68q-19 11 -41 11q-57 0 -116 -59q-7 -6 -12 -12v-329q0 -19 18 -26q3 -1 7 -1h45v-18h-196v18h44q17 0 24 18 q2 5 2 9v529q0 113 128 113q72 0 98 -38q8 -11 8 -25q0 -24 -26 -27l-18 1q-28 9 -28 39q0 11 6 21q-11 12 -38 14q-2 1 -4 1q-35 0 -57 -28q-13 -16 -13 -37v-206q52 55 116 67q14 3 26 3q108 0 120 -57q2 -8 2 -18v-424z" />
<glyph unicode="&#x268;" horiz-adv-x="262" d="M164 583q0 -29 -27 -34h-18q-26 6 -26 34q0 29 27 35h17q27 -6 27 -35zM230 200h-73v-155q0 -17 17 -25q5 -2 9 -2h45v-18h-197v18h45q17 0 24 18q2 5 2 9v155h-69v46h69v130l-53 18v13l108 67v-228h73v-46z" />
<glyph unicode="&#x269;" horiz-adv-x="295" d="M157 474v-429q0 -25 23 -32h17l6 2q-6 11 -6 21q0 32 30 39l18 1q23 -4 24 -27q-1 -41 -48 -49q-8 -1 -18 -1q-101 0 -101 95v282l-53 18v13z" />
<glyph unicode="&#x26a;" horiz-adv-x="297" d="M275 0h-230v24h53q21 0 32 23q3 7 3 14v340q0 21 -21 33q-7 4 -14 4h-53v24h230v-24h-52q-23 0 -32 -24q-3 -6 -3 -13v-340q0 -24 22 -34q6 -3 13 -3h52v-24z" />
<glyph unicode="&#x26b;" horiz-adv-x="262" d="M227 0h-196v18h45q16 0 23 19q2 4 2 8v355l-17 2q-31 -2 -55 -35h-10q1 37 34 63q19 15 38 15q5 0 10 -1v128l-55 15v16l111 67v-258h15q26 4 45 29h5l-2 -23q-9 -40 -41 -49l-20 -1h-2v-323q0 -18 17 -25q4 -2 8 -2h45v-18z" />
<glyph unicode="&#x26c;" horiz-adv-x="262" d="M241 280h-84v-235q0 -18 17 -25q4 -2 8 -2h45v-18h-196v18h45q16 0 23 19q2 4 2 8v238q-91 21 -95 79q0 42 52 66q22 10 43 11v133l-55 15v16l111 67v-364h84v-26zM101 312v96q-42 0 -56 -31q-3 -8 -3 -17q0 -35 59 -48z" />
<glyph unicode="&#x26d;" horiz-adv-x="262" d="M269 -45q-1 -41 -48 -49q-8 -1 -18 -1q-54 0 -85 43q-17 23 -17 52v572l-55 15v16l111 67v-719q0 -25 23 -32h17l6 2q-6 11 -6 21q0 32 30 39l18 1q23 -4 24 -27z" />
<glyph unicode="&#x26e;" horiz-adv-x="465" d="M157 464h262l-148 -247q107 -32 144 -130q14 -38 14 -81q0 -99 -68 -165q-60 -58 -152 -61l-31 3q-56 12 -78 58q-9 18 -9 38v5q3 45 40 56l19 2q32 -4 39 -34l1 -15q-1 -44 -38 -44q-5 0 -11 1q6 -25 36 -38q11 -4 20 -4q45 0 97 43q63 52 68 125l-2 34q-12 71 -68 118 q-41 35 -87 35h-23v29l155 254l-180 1v-402q0 -18 17 -25q4 -2 8 -2h45v-18h-196v18h45q16 0 23 19q2 4 2 8v527l-55 15v16l111 67v-206z" />
<glyph unicode="&#x26f;" horiz-adv-x="785" d="M28 474h198v-18h-44q-17 0 -24 -18q-2 -5 -2 -9v-321q0 -44 40 -68q19 -11 40 -11q52 0 115 57l11 11v332q0 17 -17 25q-4 2 -8 2h-45v18h196v-18h-45q-16 0 -23 -18q-2 -5 -2 -9v-321q0 -46 40 -69q18 -10 40 -10q58 0 121 61q3 4 7 8v331q0 17 -17 25q-5 2 -9 2h-44v18 h196v-18h-45q-18 0 -24 -20q-1 -3 -1 -7v-331l54 -15v-16l-110 -67v71q-62 -62 -129 -68q-7 -1 -13 -1q-113 0 -122 64v4q-68 -68 -140 -68q-124 0 -124 75v352q0 18 -17 25q-4 2 -8 2h-45v18z" />
</font>
</defs>
</svg>
